SplineFontDB: 3.0
FontName: ArialNarrow
FullName: Arial Narrow
FamilyName: Arial Narrow
Weight: Book
Copyright: Typeface (c) The Monotype Corporation plc. Data (c) The Monotype Corporation plc/Type Solutions Inc.1990-1991 All Rights Reserved.
Version: 2.20
ItalicAngle: 0
UnderlinePosition: -292
UnderlineWidth: 150
Ascent: 1638
Descent: 410
InvalidEm: 0
sfntRevision: 0x00020000
LayerCount: 2
Layer: 0 1 "Arri+AOgA-re" 1
Layer: 1 1 "Avant" 0
XUID: [1021 780 -851155697 15413]
StyleMap: 0x0000
FSType: 0
OS2Version: 1
OS2_WeightWidthSlopeOnly: 0
OS2_UseTypoMetrics: 0
CreationTime: 653920317
ModificationTime: 1448572193
PfmFamily: 17
TTFWeight: 400
TTFWidth: 3
LineGap: 0
VLineGap: 0
Panose: 2 11 5 6 2 2 2 3 2 4
OS2TypoAscent: 1491
OS2TypoAOffset: 0
OS2TypoDescent: -431
OS2TypoDOffset: 0
OS2TypoLinegap: 269
OS2WinAscent: 1888
OS2WinAOffset: 0
OS2WinDescent: 431
OS2WinDOffset: 0
HheadAscent: 1916
HheadAOffset: 0
HheadDescent: -434
HheadDOffset: 0
OS2SubXSize: 1434
OS2SubYSize: 1331
OS2SubXOff: 0
OS2SubYOff: 147
OS2SupXSize: 1434
OS2SupYSize: 1331
OS2SupXOff: 0
OS2SupYOff: 523
OS2StrikeYSize: 102
OS2StrikeYPos: 530
OS2FamilyClass: 2053
OS2Vendor: 'MONO'
OS2CodePages: 2000009f.dfd70000
OS2UnicodeRanges: 00000287.00000000.00000000.00000000
Lookup: 258 0 0 "'kern' Cr+AOkA-nage horizontal dans Latin lookup 0" { "sous-table 'kern' Cr+AOkA-nage horizontal dans Latin lookup 0"  } ['kern' ('DFLT' <'dflt' > 'latn' <'dflt' > ) ]
DEI: 91125
TtTable: prep
NPUSHB
 11
 111
 50
 1
 219
 187
 80
 31
 109
 156
 80
 31
PUSHW_3
 544
 96
 2048
PUSHB_3
 31
 201
 96
PUSHW_1
 2048
PUSHB_3
 31
 95
 96
NPUSHW
 41
 2048
 31
 32
 558
 1
 47
 369
 159
 369
 175
 369
 191
 369
 223
 369
 239
 369
 255
 369
 7
 0
 369
 16
 369
 95
 369
 127
 369
 143
 369
 175
 369
 6
 0
 369
 79
 369
 159
 369
 3
 540
NPUSHB
 48
 247
 54
 31
 48
 247
 64
 247
 80
 247
 112
 247
 128
 247
 144
 247
 160
 247
 192
 247
 8
 16
 247
 64
 247
 111
 247
 208
 247
 4
 0
 247
 16
 247
 48
 247
 80
 247
 128
 247
 5
 9
 16
 247

StartChar: .notdef
Encoding: 65536 -1 0
Width: 397
Flags: W
LayerCount: 2
Fore
SplineSet
37.5 0 m 1,0,-1
 37.5 1280 l 1,1,-1
 368.150390625 1280 l 1,2,-1
 368.150390625 0 l 1,3,-1
 37.5 0 l 1,0,-1
77.4501953125 53 m 1,4,-1
 329.049804688 53 l 1,5,-1
 329.049804688 1237 l 1,6,-1
 77.4501953125 1237 l 1,7,-1
 77.4501953125 53 l 1,4,-1
EndSplineSet
EndChar

StartChar: exclam
Encoding: 33 33 4
Width: 397
GlyphClass: 2
Flags: W
LayerCount: 2
Fore
SplineSet
164.150390625 364 m 1,0,-1
 125.900390625 1141 l 1,1,-1
 125.900390625 1466 l 1,2,-1
 281.450195312 1466 l 1,3,-1
 281.450195312 1141 l 1,4,-1
 245.75 364 l 1,5,-1
 164.150390625 364 l 1,0,-1
131.849609375 0 m 1,6,-1
 131.849609375 205 l 1,7,-1
 275.5 205 l 1,8,-1
 275.5 0 l 1,9,-1
 131.849609375 0 l 1,6,-1
EndSplineSet
EndChar

StartChar: quotedbl
Encoding: 34 34 5
Width: 506
GlyphClass: 2
Flags: W
LayerCount: 2
Fore
SplineSet
99.5498046875 947 m 1,0,-1
 64.7001953125 1226 l 1,1,-1
 64.7001953125 1466 l 1,2,-1
 207.5 1466 l 1,3,-1
 207.5 1226 l 1,4,-1
 176.049804688 947 l 1,5,-1
 99.5498046875 947 l 1,0,-1
329.900390625 947 m 1,6,-1
 296.75 1226 l 1,7,-1
 296.75 1466 l 1,8,-1
 439.549804688 1466 l 1,9,-1
 439.549804688 1226 l 1,10,-1
 405.549804688 947 l 1,11,-1
 329.900390625 947 l 1,6,-1
EndSplineSet
EndChar

StartChar: numbersign
Encoding: 35 35 6
Width: 794
GlyphClass: 2
Flags: W
LayerCount: 2
Fore
SplineSet
69.7998046875 -25 m 1,0,-1
 130.150390625 401 l 1,1,-1
 12.849609375 401 l 1,2,-1
 12.849609375 550 l 1,3,-1
 151.400390625 550 l 1,4,-1
 203.25 913 l 1,5,-1
 12.849609375 913 l 1,6,-1
 12.849609375 1062 l 1,7,-1
 223.650390625 1062 l 1,8,-1
 284.849609375 1491 l 1,9,-1
 389.400390625 1491 l 1,10,-1
 328.200195312 1062 l 1,11,-1
 548.349609375 1062 l 1,12,-1
 608.700195312 1491 l 1,13,-1
 714.099609375 1491 l 1,14,-1
 652.900390625 1062 l 1,15,-1
 774.450195312 1062 l 1,16,-1
 774.450195312 913 l 1,17,-1
 632.5 913 l 1,18,-1
 580.650390625 550 l 1,19,-1
 774.450195312 550 l 1,20,-1
 774.450195312 401 l 1,21,-1
 559.400390625 401 l 1,22,-1
 499.049804688 -25 l 1,23,-1
 393.650390625 -25 l 1,24,-1
 454 401 l 1,25,-1
 234.700195312 401 l 1,26,-1
 174.349609375 -25 l 1,27,-1
 69.7998046875 -25 l 1,0,-1
255.950195312 550 m 1,28,-1
 475.25 550 l 1,29,-1
 527.099609375 913 l 1,30,-1
 307.799804688 913 l 1,31,-1
 255.950195312 550 l 1,28,-1
EndSplineSet
EndChar

StartChar: dollar
Encoding: 36 36 7
Width: 794
GlyphClass: 2
Flags: W
LayerCount: 2
Fore
SplineSet
352.849609375 -211 m 1,0,-1
 352.849609375 -31 l 1,1,2
 250.849609375 -12 250.849609375 -12 192.200195312 36.5 c 128,-1,3
 133.549804688 85 133.549804688 85 94.4501953125 179 c 128,-1,4
 55.349609375 273 55.349609375 273 48.5498046875 407 c 1,5,-1
 175.200195312 441 l 1,6,7
 191.349609375 279 191.349609375 279 240.224609375 204.5 c 128,-1,8
 289.099609375 130 289.099609375 130 352.849609375 121 c 1,9,-1
 352.849609375 694 l 1,10,11
 269.549804688 716 269.549804688 716 187.950195312 786 c 0,12,13
 133.549804688 832 133.549804688 832 102.099609375 914.5 c 128,-1,14
 70.650390625 997 70.650390625 997 70.650390625 1107 c 0,15,16
 70.650390625 1220 70.650390625 1220 106.349609375 1312.5 c 128,-1,17
 142.049804688 1405 142.049804688 1405 199.849609375 1453 c 128,-1,18
 257.650390625 1501 257.650390625 1501 352.849609375 1515 c 1,19,-1
 352.849609375 1601 l 1,20,-1
 427.650390625 1601 l 1,21,-1
 427.650390625 1515 l 1,22,23
 506.700195312 1504 506.700195312 1504 560.674804688 1462 c 128,-1,24
 614.650390625 1420 614.650390625 1420 651.200195312 1343.5 c 128,-1,25
 687.75 1267 687.75 1267 699.650390625 1154 c 1,26,-1
 570.450195312 1126 l 1,27,28
 549.200195312 1327 549.200195312 1327 427.650390625 1363 c 1,29,-1
 427.650390625 844 l 1,30,31
 513.5 813 513.5 813 538.150390625 799 c 0,32,33
 594.25 768 594.25 768 635.474609375 717 c 128,-1,34
 676.700195312 666 676.700195312 666 700.924804688 589.5 c 128,-1,35
 725.150390625 513 725.150390625 513 725.150390625 417 c 0,36,37
 725.150390625 222 725.150390625 222 639.299804688 101 c 128,-1,38
 553.450195312 -20 553.450195312 -20 427.650390625 -29 c 1,39,-1
 427.650390625 -211 l 1,40,-1
 352.849609375 -211 l 1,0,-1
352.849609375 1365 m 1,41,42
 281.450195312 1349 281.450195312 1349 238.525390625 1283 c 128,-1,43
 195.599609375 1217 195.599609375 1217 195.599609375 1114 c 0,44,45
 195.599609375 936 195.599609375 936 352.849609375 867 c 1,46,-1
 352.849609375 1365 l 1,41,42
427.650390625 121 m 1,47,48
 498.200195312 134 498.200195312 134 547.075195312 209.5 c 128,-1,49
 595.950195312 285 595.950195312 285 595.950195312 408 c 0,50,51
 595.950195312 507 595.950195312 507 559.825195312 566 c 128,-1,52
 523.700195312 625 523.700195312 625 427.650390625 669 c 1,53,-1
 427.650390625 121 l 1,47,48
EndSplineSet
EndChar

StartChar: percent
Encoding: 37 37 8
Width: 1269
GlyphClass: 2
Flags: W
LayerCount: 2
Fore
SplineSet
80 1114 m 0,0,1
 80 1297 80 1297 142.049804688 1394 c 128,-1,2
 204.099609375 1491 204.099609375 1491 294.200195312 1491 c 0,3,4
 387.700195312 1491 387.700195312 1491 452.299804688 1394 c 128,-1,5
 516.900390625 1297 516.900390625 1297 516.900390625 1104 c 0,6,7
 516.900390625 915 516.900390625 915 452.299804688 815.5 c 128,-1,8
 387.700195312 716 387.700195312 716 295.900390625 716 c 0,9,10
 205.799804688 716 205.799804688 716 142.900390625 814.5 c 128,-1,11
 80 913 80 913 80 1114 c 0,0,1
298.450195312 1367 m 256,12,13
 251.700195312 1367 251.700195312 1367 220.674804688 1308.5 c 128,-1,14
 189.650390625 1250 189.650390625 1250 189.650390625 1103 c 256,15,16
 189.650390625 956 189.650390625 956 220.674804688 898 c 128,-1,17
 251.700195312 840 251.700195312 840 301 840 c 0,18,19
 346.049804688 840 346.049804688 840 377.075195312 898.5 c 128,-1,20
 408.099609375 957 408.099609375 957 408.099609375 1103 c 256,21,22
 408.099609375 1249 408.099609375 1249 376.650390625 1308 c 128,-1,23
 345.200195312 1367 345.200195312 1367 298.450195312 1367 c 256,12,13
298.450195312 -54 m 1,24,-1
 857.75 1491 l 1,25,-1
 959.75 1491 l 1,26,-1
 403 -54 l 1,27,-1
 298.450195312 -54 l 1,24,-1
741.299804688 344 m 0,28,29
 741.299804688 527 741.299804688 527 803.349609375 624 c 128,-1,30
 865.400390625 721 865.400390625 721 954.650390625 721 c 0,31,32
 1049 721 1049 721 1113.59960938 624.5 c 128,-1,33
 1178.20019531 528 1178.20019531 528 1178.20019531 335 c 0,34,35
 1178.20019531 145 1178.20019531 145 1113.17480469 45.5 c 128,-1,36
 1048.15039062 -54 1048.15039062 -54 957.200195312 -54 c 0,37,38
 867.099609375 -54 867.099609375 -54 804.200195312 45 c 128,-1,39
 741.299804688 144 741.299804688 144 741.299804688 344 c 0,28,29
959.75 597 m 0,40,41
 912.150390625 597 912.150390625 597 881.125 538.5 c 128,-1,42
 850.099609375 480 850.099609375 480 850.099609375 333 c 256,43,44
 850.099609375 186 850.099609375 186 881.549804688 128 c 128,-1,45
 913 70 913 70 962.299804688 70 c 0,46,47
 1006.5 70 1006.5 70 1037.52539062 129 c 128,-1,48
 1068.54980469 188 1068.54980469 188 1068.54980469 334 c 256,49,50
 1068.54980469 480 1068.54980469 480 1037.52539062 538.5 c 128,-1,51
 1006.5 597 1006.5 597 959.75 597 c 0,40,41
EndSplineSet
EndChar

StartChar: ampersand
Encoding: 38 38 9
Width: 952
GlyphClass: 2
Flags: W
LayerCount: 2
Fore
SplineSet
679.25 173 m 1,0,1
 555.150390625 -25 555.150390625 -25 386.849609375 -25 c 0,2,3
 234.700195312 -25 234.700195312 -25 148.424804688 109 c 128,-1,4
 62.150390625 243 62.150390625 243 62.150390625 405 c 0,5,6
 62.150390625 676 62.150390625 676 305.25 842 c 1,7,8
 238.099609375 953 238.099609375 953 214.299804688 1024.5 c 128,-1,9
 190.5 1096 190.5 1096 190.5 1164 c 0,10,11
 190.5 1303 190.5 1303 264.875 1397 c 128,-1,12
 339.25 1491 339.25 1491 443.799804688 1491 c 0,13,14
 544.099609375 1491 544.099609375 1491 612.950195312 1402.5 c 128,-1,15
 681.799804688 1314 681.799804688 1314 681.799804688 1178 c 0,16,17
 681.799804688 969 681.799804688 969 488.849609375 821 c 1,18,-1
 672.450195312 486 l 1,19,20
 702.200195312 572 702.200195312 572 720.900390625 690 c 1,21,-1
 850.950195312 650 l 1,22,23
 817.799804688 460 817.799804688 460 760.849609375 334 c 1,24,25
 829.700195312 202 829.700195312 202 919.799804688 109 c 1,26,-1
 835.650390625 -34 l 1,27,28
 760 37 760 37 679.25 173 c 1,0,1
424.25 937 m 1,29,30
 502.450195312 1004 502.450195312 1004 527.950195312 1055 c 128,-1,31
 553.450195312 1106 553.450195312 1106 553.450195312 1173 c 0,32,33
 553.450195312 1251 553.450195312 1251 519.450195312 1297 c 128,-1,34
 485.450195312 1343 485.450195312 1343 437.849609375 1343 c 0,35,36
 389.400390625 1343 389.400390625 1343 354.125 1298 c 128,-1,37
 318.849609375 1253 318.849609375 1253 318.849609375 1181 c 0,38,39
 318.849609375 1112 318.849609375 1112 368.150390625 1030 c 2,40,-1
 424.25 937 l 1,29,30
600.200195312 315 m 1,41,-1
 370.700195312 724 l 1,42,43
 273.799804688 641 273.799804688 641 235.549804688 567.5 c 128,-1,44
 197.299804688 494 197.299804688 494 197.299804688 416 c 0,45,46
 197.299804688 316 197.299804688 316 250 225 c 128,-1,47
 302.700195312 134 302.700195312 134 387.700195312 134 c 0,48,49
 442.099609375 134 442.099609375 134 502.450195312 183 c 128,-1,50
 562.799804688 232 562.799804688 232 600.200195312 315 c 1,41,-1
EndSplineSet
EndChar

StartChar: quotesingle
Encoding: 39 39 10
Width: 273
GlyphClass: 2
Flags: W
LayerCount: 2
Fore
SplineSet
92.75 947 m 1,0,-1
 60.4501953125 1221 l 1,1,-1
 60.4501953125 1466 l 1,2,-1
 203.25 1466 l 1,3,-1
 203.25 1221 l 1,4,-1
 170.099609375 947 l 1,5,-1
 92.75 947 l 1,0,-1
EndSplineSet
EndChar

StartChar: parenleft
Encoding: 40 40 11
Width: 475
GlyphClass: 2
Flags: W
LayerCount: 2
Fore
SplineSet
333.299804688 -431 m 1,0,1
 239.799804688 -259 239.799804688 -259 162.875 -7 c 128,-1,2
 85.9501953125 245 85.9501953125 245 85.9501953125 532 c 0,3,4
 85.9501953125 1018 85.9501953125 1018 333.299804688 1491 c 1,5,-1
 423.400390625 1491 l 1,6,7
 328.200195312 1256 328.200195312 1256 292.075195312 1126.5 c 128,-1,8
 255.950195312 997 255.950195312 997 235.125 842 c 128,-1,9
 214.299804688 687 214.299804688 687 214.299804688 530 c 0,10,11
 214.299804688 50 214.299804688 50 423.400390625 -431 c 1,12,-1
 333.299804688 -431 l 1,0,1
EndSplineSet
EndChar

StartChar: parenright
Encoding: 41 41 12
Width: 475
GlyphClass: 2
Flags: W
LayerCount: 2
Fore
SplineSet
142.049804688 -431 m 1,0,-1
 51.9501953125 -431 l 1,1,2
 260.200195312 50 260.200195312 50 260.200195312 530 c 0,3,4
 260.200195312 687 260.200195312 687 239.375 842 c 128,-1,5
 218.549804688 997 218.549804688 997 182.849609375 1126.5 c 128,-1,6
 147.150390625 1256 147.150390625 1256 51.9501953125 1491 c 1,7,-1
 142.049804688 1491 l 1,8,9
 389.400390625 1018 389.400390625 1018 389.400390625 532 c 0,10,11
 389.400390625 253 389.400390625 253 315.450195312 1.5 c 128,-1,12
 241.5 -250 241.5 -250 142.049804688 -431 c 1,0,-1
EndSplineSet
EndChar

StartChar: asterisk
Encoding: 42 42 13
Width: 555
GlyphClass: 2
Flags: W
LayerCount: 2
Fore
SplineSet
42.599609375 1197 m 1,0,-1
 74.900390625 1339 l 1,1,2
 185.400390625 1283 185.400390625 1283 235.549804688 1242 c 1,3,4
 222.799804688 1426 222.799804688 1426 221.950195312 1491 c 1,5,-1
 323.099609375 1491 l 1,6,7
 321.400390625 1395 321.400390625 1395 306.950195312 1243 c 1,8,9
 377.5 1294 377.5 1294 471 1339 c 1,10,-1
 503.299804688 1197 l 1,11,12
 414.049804688 1155 414.049804688 1155 329.900390625 1141 c 1,13,14
 372.400390625 1088 372.400390625 1088 449.75 952 c 1,15,-1
 366.450195312 867 l 1,16,17
 327.349609375 943 327.349609375 943 270.400390625 1082 c 1,18,19
 218.549804688 941 218.549804688 941 179.450195312 867 c 1,20,-1
 97.849609375 952 l 1,21,22
 174.349609375 1090 174.349609375 1090 213.450195312 1141 c 1,23,24
 122.5 1166 122.5 1166 42.599609375 1197 c 1,0,-1
EndSplineSet
EndChar

StartChar: plus
Encoding: 43 43 14
Width: 833
GlyphClass: 2
Flags: W
LayerCount: 2
Fore
SplineSet
356.25 237 m 1,0,-1
 356.25 639 l 1,1,-1
 78.2998046875 639 l 1,2,-1
 78.2998046875 807 l 1,3,-1
 356.25 807 l 1,4,-1
 356.25 1206 l 1,5,-1
 475.25 1206 l 1,6,-1
 475.25 807 l 1,7,-1
 753.200195312 807 l 1,8,-1
 753.200195312 639 l 1,9,-1
 475.25 639 l 1,10,-1
 475.25 237 l 1,11,-1
 356.25 237 l 1,0,-1
EndSplineSet
EndChar

StartChar: comma
Encoding: 44 44 15
Width: 397
GlyphClass: 2
Flags: W
LayerCount: 2
Fore
SplineSet
129.299804688 0 m 1,0,-1
 129.299804688 205 l 1,1,-1
 272.099609375 205 l 1,2,-1
 272.099609375 0 l 2,3,4
 272.099609375 -119 272.099609375 -119 242.349609375 -186.5 c 128,-1,5
 212.599609375 -254 212.599609375 -254 155.650390625 -290 c 1,6,-1
 120.799804688 -213 l 1,7,8
 159.049804688 -189 159.049804688 -189 178.599609375 -141.5 c 128,-1,9
 198.150390625 -94 198.150390625 -94 199.849609375 0 c 1,10,-1
 129.299804688 0 l 1,0,-1
EndSplineSet
EndChar

StartChar: hyphen
Encoding: 45 45 16
AltUni2: 0000ad.ffffffff.0
Width: 475
GlyphClass: 2
Flags: W
LayerCount: 2
Fore
SplineSet
45.150390625 440 m 1,0,-1
 45.150390625 621 l 1,1,-1
 430.200195312 621 l 1,2,-1
 430.200195312 440 l 1,3,-1
 45.150390625 440 l 1,0,-1
EndSplineSet
EndChar

StartChar: period
Encoding: 46 46 17
Width: 397
GlyphClass: 2
Flags: W
LayerCount: 2
Fore
SplineSet
131.849609375 0 m 1,0,-1
 131.849609375 205 l 1,1,-1
 274.650390625 205 l 1,2,-1
 274.650390625 0 l 1,3,-1
 131.849609375 0 l 1,0,-1
EndSplineSet
EndChar

StartChar: slash
Encoding: 47 47 18
Width: 397
GlyphClass: 2
Flags: W
LayerCount: 2
Fore
SplineSet
0.099609375 -25 m 1,0,-1
 295.900390625 1491 l 1,1,-1
 397.049804688 1491 l 1,2,-1
 100.400390625 -25 l 1,3,-1
 0.099609375 -25 l 1,0,-1
EndSplineSet
EndChar

StartChar: zero
Encoding: 48 48 19
Width: 794
GlyphClass: 2
Flags: W
LayerCount: 2
Fore
SplineSet
57.0498046875 723 m 0,0,1
 57.0498046875 1092 57.0498046875 1092 141.625 1282 c 128,-1,2
 226.200195312 1472 226.200195312 1472 391.099609375 1472 c 0,3,4
 537.299804688 1472 537.299804688 1472 621.450195312 1318 c 0,5,6
 723.450195312 1132 723.450195312 1132 723.450195312 723 c 0,7,8
 723.450195312 356 723.450195312 356 639.299804688 165.5 c 128,-1,9
 555.150390625 -25 555.150390625 -25 389.400390625 -25 c 0,10,11
 243.200195312 -25 243.200195312 -25 150.125 143 c 128,-1,12
 57.0498046875 311 57.0498046875 311 57.0498046875 723 c 0,0,1
185.400390625 723 m 0,13,14
 185.400390625 366 185.400390625 366 243.625 244.5 c 128,-1,15
 301.849609375 123 301.849609375 123 392.799804688 123 c 0,16,17
 478.650390625 123 478.650390625 123 536.450195312 246 c 128,-1,18
 594.25 369 594.25 369 594.25 723 c 0,19,20
 594.25 1081 594.25 1081 536.025390625 1202 c 128,-1,21
 477.799804688 1323 477.799804688 1323 385.150390625 1323 c 0,22,23
 300.150390625 1323 300.150390625 1323 242.775390625 1200 c 128,-1,24
 185.400390625 1077 185.400390625 1077 185.400390625 723 c 0,13,14
EndSplineSet
EndChar

StartChar: one
Encoding: 49 49 20
Width: 794
GlyphClass: 2
Flags: W
LayerCount: 2
Fore
SplineSet
529.650390625 0 m 1,0,-1
 403.849609375 0 l 1,1,-1
 403.849609375 1147 l 1,2,3
 360.5 1087 360.5 1087 287.400390625 1024.5 c 128,-1,4
 214.299804688 962 214.299804688 962 153.099609375 930 c 1,5,-1
 153.099609375 1104 l 1,6,7
 256.799804688 1174 256.799804688 1174 336.275390625 1275 c 128,-1,8
 415.75 1376 415.75 1376 448.049804688 1472 c 1,9,-1
 529.650390625 1472 l 1,10,-1
 529.650390625 0 l 1,0,-1
EndSplineSet
EndChar

StartChar: two
Encoding: 50 50 21
Width: 794
GlyphClass: 2
Flags: W
LayerCount: 2
Fore
SplineSet
718.349609375 173 m 1,0,-1
 718.349609375 0 l 1,1,-1
 42.599609375 0 l 1,2,3
 40.0498046875 105 40.0498046875 105 96.5751953125 235 c 128,-1,4
 153.099609375 365 153.099609375 365 303.549804688 542 c 0,5,6
 479.5 748 479.5 748 533.900390625 860.5 c 128,-1,7
 588.299804688 973 588.299804688 973 588.299804688 1070 c 0,8,9
 588.299804688 1182 588.299804688 1182 532.625 1252.5 c 128,-1,10
 476.950195312 1323 476.950195312 1323 395.349609375 1323 c 0,11,12
 307.799804688 1323 307.799804688 1323 251.700195312 1247 c 128,-1,13
 195.599609375 1171 195.599609375 1171 195.599609375 1029 c 1,14,-1
 66.400390625 1048 l 1,15,16
 80 1259 80 1259 167.974609375 1365.5 c 128,-1,17
 255.950195312 1472 255.950195312 1472 399.599609375 1472 c 0,18,19
 556 1472 556 1472 636.325195312 1348 c 128,-1,20
 716.650390625 1224 716.650390625 1224 716.650390625 1066 c 0,21,22
 716.650390625 926 716.650390625 926 653.75 797.5 c 128,-1,23
 590.849609375 669 590.849609375 669 414.900390625 455 c 0,24,25
 302.700195312 320 302.700195312 320 269.974609375 271 c 128,-1,26
 237.25 222 237.25 222 216.849609375 173 c 1,27,-1
 718.349609375 173 l 1,0,-1
EndSplineSet
EndChar

StartChar: three
Encoding: 51 51 22
Width: 794
GlyphClass: 2
Flags: W
LayerCount: 2
Fore
SplineSet
57.900390625 387 m 1,0,-1
 183.700195312 411 l 1,1,2
 222.799804688 123 222.799804688 123 381.75 123 c 0,3,4
 467.599609375 123 467.599609375 123 530.5 208.5 c 128,-1,5
 593.400390625 294 593.400390625 294 593.400390625 430 c 0,6,7
 593.400390625 558 593.400390625 558 535.599609375 636 c 128,-1,8
 477.799804688 714 477.799804688 714 393.650390625 714 c 0,9,10
 357.950195312 714 357.950195312 714 305.25 694 c 1,11,-1
 319.700195312 852 l 1,12,-1
 339.25 850 l 1,13,14
 431.900390625 850 431.900390625 850 489.700195312 917 c 128,-1,15
 547.5 984 547.5 984 547.5 1096 c 0,16,17
 547.5 1199 547.5 1199 499.049804688 1261.5 c 128,-1,18
 450.599609375 1324 450.599609375 1324 380.900390625 1324 c 0,19,20
 308.650390625 1324 308.650390625 1324 258.924804688 1258.5 c 128,-1,21
 209.200195312 1193 209.200195312 1193 195.599609375 1060 c 1,22,-1
 70.650390625 1092 l 1,23,24
 94.4501953125 1280 94.4501953125 1280 177.75 1376 c 128,-1,25
 261.049804688 1472 261.049804688 1472 379.200195312 1472 c 0,26,27
 503.299804688 1472 503.299804688 1472 590 1364 c 128,-1,28
 676.700195312 1256 676.700195312 1256 676.700195312 1092 c 0,29,30
 676.700195312 992 676.700195312 992 639.724609375 915 c 128,-1,31
 602.75 838 602.75 838 536.450195312 794 c 1,32,33
 597.650390625 774 597.650390625 774 637.599609375 728 c 128,-1,34
 677.549804688 682 677.549804688 682 702.200195312 605 c 128,-1,35
 726.849609375 528 726.849609375 528 726.849609375 433 c 0,36,37
 726.849609375 231 726.849609375 231 625.700195312 102.5 c 128,-1,38
 524.549804688 -26 524.549804688 -26 383.450195312 -26 c 0,39,40
 252.549804688 -26 252.549804688 -26 161.599609375 86 c 128,-1,41
 70.650390625 198 70.650390625 198 57.900390625 387 c 1,0,-1
EndSplineSet
EndChar

StartChar: four
Encoding: 52 52 23
Width: 794
GlyphClass: 2
Flags: W
LayerCount: 2
Fore
SplineSet
459.099609375 0 m 1,0,-1
 459.099609375 351 l 1,1,-1
 16.25 351 l 1,2,-1
 16.25 516 l 1,3,-1
 482.900390625 1466 l 1,4,-1
 584.900390625 1466 l 1,5,-1
 584.900390625 516 l 1,6,-1
 723.450195312 516 l 1,7,-1
 723.450195312 351 l 1,8,-1
 584.900390625 351 l 1,9,-1
 584.900390625 0 l 1,10,-1
 459.099609375 0 l 1,0,-1
459.099609375 516 m 1,11,-1
 459.099609375 1177 l 1,12,-1
 139.5 516 l 1,13,-1
 459.099609375 516 l 1,11,-1
EndSplineSet
EndChar

StartChar: five
Encoding: 53 53 24
Width: 794
GlyphClass: 2
Flags: W
LayerCount: 2
Fore
SplineSet
57.0498046875 384 m 1,0,-1
 188.799804688 400 l 1,1,2
 204.099609375 260 204.099609375 260 258.075195312 191.5 c 128,-1,3
 312.049804688 123 312.049804688 123 383.450195312 123 c 0,4,5
 472.700195312 123 472.700195312 123 537.299804688 219.5 c 128,-1,6
 601.900390625 316 601.900390625 316 601.900390625 483 c 0,7,8
 601.900390625 640 601.900390625 640 539.424804688 726.5 c 128,-1,9
 476.950195312 813 476.950195312 813 382.599609375 813 c 0,10,11
 325.650390625 813 325.650390625 813 275.924804688 775.5 c 128,-1,12
 226.200195312 738 226.200195312 738 197.299804688 671 c 1,13,-1
 79.150390625 693 l 1,14,-1
 178.599609375 1446 l 1,15,-1
 686.049804688 1446 l 1,16,-1
 686.049804688 1274 l 1,17,-1
 278.900390625 1274 l 1,18,-1
 223.650390625 880 l 1,19,20
 314.599609375 972 314.599609375 972 416.599609375 972 c 0,21,22
 544.950195312 972 544.950195312 972 639.724609375 843.5 c 128,-1,23
 734.5 715 734.5 715 734.5 497 c 0,24,25
 734.5 282 734.5 282 639.724609375 128.5 c 128,-1,26
 544.950195312 -25 544.950195312 -25 385.150390625 -25 c 0,27,28
 252.549804688 -25 252.549804688 -25 161.174804688 83.5 c 128,-1,29
 69.7998046875 192 69.7998046875 192 57.0498046875 384 c 1,0,-1
EndSplineSet
EndChar

StartChar: six
Encoding: 54 54 25
Width: 794
GlyphClass: 2
Flags: W
LayerCount: 2
Fore
SplineSet
708.150390625 1107 m 1,0,-1
 583.200195312 1093 l 1,1,2
 565.349609375 1206 565.349609375 1206 530.5 1254 c 0,3,4
 480.349609375 1324 480.349609375 1324 409.799804688 1324 c 0,5,6
 300.150390625 1324 300.150390625 1324 233.849609375 1164 c 0,7,8
 176.900390625 1026 176.900390625 1026 176.049804688 756 c 1,9,10
 219.400390625 852 219.400390625 852 284.849609375 901.5 c 128,-1,11
 350.299804688 951 350.299804688 951 423.400390625 951 c 0,12,13
 544.950195312 951 544.950195312 951 635.474609375 821.5 c 128,-1,14
 726 692 726 692 726 475 c 0,15,16
 726 328 726 328 680.525390625 208.5 c 128,-1,17
 635.049804688 89 635.049804688 89 563.650390625 32 c 128,-1,18
 492.25 -25 492.25 -25 406.400390625 -25 c 0,19,20
 251.700195312 -25 251.700195312 -25 151.400390625 139 c 128,-1,21
 51.099609375 303 51.099609375 303 51.099609375 686 c 0,22,23
 51.099609375 1111 51.099609375 1111 153.950195312 1291.5 c 128,-1,24
 256.799804688 1472 256.799804688 1472 417.450195312 1472 c 0,25,26
 533.900390625 1472 533.900390625 1472 612.525390625 1378.5 c 128,-1,27
 691.150390625 1285 691.150390625 1285 708.150390625 1107 c 1,0,-1
195.599609375 475 m 0,28,29
 195.599609375 316 195.599609375 316 259.349609375 219.5 c 128,-1,30
 323.099609375 123 323.099609375 123 407.25 123 c 0,31,32
 481.200195312 123 481.200195312 123 539.424804688 214 c 128,-1,33
 597.650390625 305 597.650390625 305 597.650390625 464 c 0,34,35
 597.650390625 620 597.650390625 620 539.849609375 706 c 128,-1,36
 482.049804688 792 482.049804688 792 398.75 792 c 0,37,38
 317.150390625 792 317.150390625 792 256.375 706.5 c 128,-1,39
 195.599609375 621 195.599609375 621 195.599609375 475 c 0,28,29
EndSplineSet
EndChar

StartChar: seven
Encoding: 55 55 26
Width: 794
GlyphClass: 2
Flags: W
LayerCount: 2
Fore
SplineSet
65.5498046875 1274 m 1,0,-1
 65.5498046875 1447 l 1,1,-1
 726.849609375 1447 l 1,2,-1
 726.849609375 1307 l 1,3,4
 578.950195312 1081 578.950195312 1081 466.75 718.5 c 128,-1,5
 354.549804688 356 354.549804688 356 337.549804688 0 c 1,6,-1
 208.349609375 0 l 1,7,8
 210.900390625 184 210.900390625 184 258.075195312 429 c 128,-1,9
 305.25 674 305.25 674 387.700195312 896 c 128,-1,10
 470.150390625 1118 470.150390625 1118 565.349609375 1274 c 1,11,-1
 65.5498046875 1274 l 1,0,-1
EndSplineSet
EndChar

StartChar: eight
Encoding: 56 56 27
Width: 794
GlyphClass: 2
Flags: W
LayerCount: 2
Fore
SplineSet
250 795 m 1,0,1
 174.349609375 835 174.349609375 835 135.674804688 909.5 c 128,-1,2
 97 984 97 984 97 1095 c 0,3,4
 97 1262 97 1262 180.724609375 1367 c 128,-1,5
 264.450195312 1472 264.450195312 1472 391.099609375 1472 c 0,6,7
 518.599609375 1472 518.599609375 1472 603.174804688 1365 c 128,-1,8
 687.75 1258 687.75 1258 687.75 1089 c 0,9,10
 687.75 983 687.75 983 650.349609375 909.5 c 128,-1,11
 612.950195312 836 612.950195312 836 537.299804688 795 c 1,12,13
 629.950195312 752 629.950195312 752 679.674804688 656 c 128,-1,14
 729.400390625 560 729.400390625 560 729.400390625 418 c 0,15,16
 729.400390625 222 729.400390625 222 632.924804688 98.5 c 128,-1,17
 536.450195312 -25 536.450195312 -25 393.650390625 -25 c 0,18,19
 249.150390625 -25 249.150390625 -25 152.674804688 98.5 c 128,-1,20
 56.2001953125 222 56.2001953125 222 56.2001953125 423 c 0,21,22
 56.2001953125 570 56.2001953125 570 107.625 665.5 c 128,-1,23
 159.049804688 761 159.049804688 761 250 795 c 1,0,1
226.200195312 1100 m 0,24,25
 226.200195312 992 226.200195312 992 274.650390625 928 c 128,-1,26
 323.099609375 864 323.099609375 864 393.650390625 864 c 0,27,28
 462.5 864 462.5 864 510.950195312 927 c 128,-1,29
 559.400390625 990 559.400390625 990 559.400390625 1090 c 0,30,31
 559.400390625 1193 559.400390625 1193 509.674804688 1258.5 c 128,-1,32
 459.950195312 1324 459.950195312 1324 391.950195312 1324 c 256,33,34
 323.950195312 1324 323.950195312 1324 275.075195312 1260 c 128,-1,35
 226.200195312 1196 226.200195312 1196 226.200195312 1100 c 0,24,25
184.549804688 423 m 0,36,37
 184.549804688 288 184.549804688 288 246.174804688 205.5 c 128,-1,38
 307.799804688 123 307.799804688 123 393.650390625 123 c 0,39,40
 480.349609375 123 480.349609375 123 540.700195312 203 c 128,-1,41
 601.049804688 283 601.049804688 283 601.049804688 417 c 0,42,43
 601.049804688 552 601.049804688 552 539 634.5 c 128,-1,44
 476.950195312 717 476.950195312 717 390.25 717 c 0,45,46
 304.400390625 717 304.400390625 717 244.474609375 635 c 128,-1,47
 184.549804688 553 184.549804688 553 184.549804688 423 c 0,36,37
EndSplineSet
EndChar

StartChar: nine
Encoding: 57 57 28
Width: 794
GlyphClass: 2
Flags: W
LayerCount: 2
Fore
SplineSet
75.75 339 m 1,0,-1
 196.450195312 355 l 1,1,2
 225.349609375 123 225.349609375 123 366.450195312 123 c 0,3,4
 429.349609375 123 429.349609375 123 480.775390625 173.5 c 128,-1,5
 532.200195312 224 532.200195312 224 567.900390625 353 c 128,-1,6
 603.599609375 482 603.599609375 482 603.599609375 654 c 2,7,-1
 603.599609375 690 l 1,8,9
 564.5 601 564.5 601 498.200195312 549 c 128,-1,10
 431.900390625 497 431.900390625 497 363.049804688 497 c 0,11,12
 238.099609375 497 238.099609375 497 147.575195312 625.5 c 128,-1,13
 57.0498046875 754 57.0498046875 754 57.0498046875 977 c 0,14,15
 57.0498046875 1207 57.0498046875 1207 150.974609375 1339.5 c 128,-1,16
 244.900390625 1472 244.900390625 1472 379.200195312 1472 c 0,17,18
 474.400390625 1472 474.400390625 1472 556.849609375 1398 c 128,-1,19
 639.299804688 1324 639.299804688 1324 684.349609375 1180 c 128,-1,20
 729.400390625 1036 729.400390625 1036 729.400390625 765 c 0,21,22
 729.400390625 463 729.400390625 463 680.950195312 296 c 128,-1,23
 632.5 129 632.5 129 549.625 52 c 128,-1,24
 466.75 -25 466.75 -25 363.900390625 -25 c 0,25,26
 247.450195312 -25 247.450195312 -25 169.25 68.5 c 128,-1,27
 91.0498046875 162 91.0498046875 162 75.75 339 c 1,0,-1
590 986 m 0,28,29
 590 1143 590 1143 530.5 1233 c 128,-1,30
 471 1323 471 1323 393.650390625 1323 c 0,31,32
 312.900390625 1323 312.900390625 1323 249.575195312 1227 c 128,-1,33
 186.25 1131 186.25 1131 186.25 971 c 0,34,35
 186.25 827 186.25 827 246.599609375 741.5 c 128,-1,36
 306.950195312 656 306.950195312 656 391.099609375 656 c 0,37,38
 474.400390625 656 474.400390625 656 532.200195312 742 c 128,-1,39
 590 828 590 828 590 986 c 0,28,29
EndSplineSet
EndChar

StartChar: colon
Encoding: 58 58 29
Width: 397
GlyphClass: 2
Flags: W
LayerCount: 2
Fore
SplineSet
131.849609375 857 m 1,0,-1
 131.849609375 1062 l 1,1,-1
 274.650390625 1062 l 1,2,-1
 274.650390625 857 l 1,3,-1
 131.849609375 857 l 1,0,-1
131.849609375 0 m 1,4,-1
 131.849609375 205 l 1,5,-1
 274.650390625 205 l 1,6,-1
 274.650390625 0 l 1,7,-1
 131.849609375 0 l 1,4,-1
EndSplineSet
EndChar

StartChar: semicolon
Encoding: 59 59 30
AltUni2: 00037e.ffffffff.0
Width: 397
GlyphClass: 2
Flags: W
LayerCount: 2
Fore
SplineSet
129.299804688 857 m 1,0,-1
 129.299804688 1062 l 1,1,-1
 272.099609375 1062 l 1,2,-1
 272.099609375 857 l 1,3,-1
 129.299804688 857 l 1,0,-1
129.299804688 0 m 1,4,-1
 129.299804688 205 l 1,5,-1
 272.099609375 205 l 1,6,-1
 272.099609375 0 l 2,7,8
 272.099609375 -119 272.099609375 -119 242.349609375 -186.5 c 128,-1,9
 212.599609375 -254 212.599609375 -254 155.650390625 -290 c 1,10,-1
 120.799804688 -213 l 1,11,12
 159.049804688 -189 159.049804688 -189 178.599609375 -141.5 c 128,-1,13
 198.150390625 -94 198.150390625 -94 199.849609375 0 c 1,14,-1
 129.299804688 0 l 1,4,-1
EndSplineSet
EndChar

StartChar: less
Encoding: 60 60 31
Width: 833
GlyphClass: 2
Flags: W
LayerCount: 2
Fore
SplineSet
76.599609375 641 m 1,0,-1
 76.599609375 809 l 1,1,-1
 753.200195312 1219 l 1,2,-1
 753.200195312 1040 l 1,3,-1
 216.849609375 724 l 1,4,-1
 753.200195312 405 l 1,5,-1
 753.200195312 226 l 1,6,-1
 76.599609375 641 l 1,0,-1
EndSplineSet
EndChar

StartChar: equal
Encoding: 61 61 32
Width: 833
GlyphClass: 2
Flags: W
LayerCount: 2
Fore
SplineSet
753.200195312 862 m 1,0,-1
 78.2998046875 862 l 1,1,-1
 78.2998046875 1030 l 1,2,-1
 753.200195312 1030 l 1,3,-1
 753.200195312 862 l 1,0,-1
753.200195312 417 m 1,4,-1
 78.2998046875 417 l 1,5,-1
 78.2998046875 585 l 1,6,-1
 753.200195312 585 l 1,7,-1
 753.200195312 417 l 1,4,-1
EndSplineSet
EndChar

StartChar: greater
Encoding: 62 62 33
Width: 833
GlyphClass: 2
Flags: W
LayerCount: 2
Fore
SplineSet
753.200195312 641 m 1,0,-1
 76.599609375 226 l 1,1,-1
 76.599609375 405 l 1,2,-1
 612.950195312 724 l 1,3,-1
 76.599609375 1040 l 1,4,-1
 76.599609375 1219 l 1,5,-1
 753.200195312 809 l 1,6,-1
 753.200195312 641 l 1,0,-1
EndSplineSet
EndChar

StartChar: question
Encoding: 63 63 34
Width: 794
GlyphClass: 2
Flags: W
LayerCount: 2
Fore
SplineSet
327.349609375 361 m 1,0,-1
 325.650390625 415 l 1,1,2
 325.650390625 560 325.650390625 560 367.299804688 658 c 0,3,4
 396.200195312 726 396.200195312 726 488.849609375 843 c 0,5,6
 551.75 922 551.75 922 571.299804688 971.5 c 128,-1,7
 590.849609375 1021 590.849609375 1021 590.849609375 1079 c 0,8,9
 590.849609375 1189 590.849609375 1189 531.349609375 1266 c 128,-1,10
 471.849609375 1343 471.849609375 1343 394.5 1343 c 0,11,12
 315.450195312 1343 315.450195312 1343 260.625 1272 c 128,-1,13
 205.799804688 1201 205.799804688 1201 189.650390625 1046 c 1,14,-1
 60.4501953125 1068 l 1,15,16
 79.150390625 1280 79.150390625 1280 167.125 1385.5 c 128,-1,17
 255.099609375 1491 255.099609375 1491 393.650390625 1491 c 0,18,19
 533.049804688 1491 533.049804688 1491 626.125 1378.5 c 128,-1,20
 719.200195312 1266 719.200195312 1266 719.200195312 1091 c 0,21,22
 719.200195312 995 719.200195312 995 688.599609375 915 c 128,-1,23
 658 835 658 835 566.200195312 717 c 0,24,25
 488 618 488 618 468.875 560.5 c 128,-1,26
 449.75 503 449.75 503 447.200195312 361 c 1,27,-1
 327.349609375 361 l 1,0,-1
318.849609375 0 m 1,28,-1
 318.849609375 205 l 1,29,-1
 461.650390625 205 l 1,30,-1
 461.650390625 0 l 1,31,-1
 318.849609375 0 l 1,28,-1
EndSplineSet
EndChar

StartChar: at
Encoding: 64 64 35
Width: 1448
GlyphClass: 2
Flags: W
LayerCount: 2
Fore
SplineSet
807.599609375 163 m 1,0,1
 758.299804688 81 758.299804688 81 701.775390625 39 c 128,-1,2
 645.25 -3 645.25 -3 596.799804688 -3 c 0,3,4
 494.799804688 -3 494.799804688 -3 425.099609375 106 c 0,5,6
 340.950195312 238 340.950195312 238 340.950195312 446 c 0,7,8
 340.950195312 614 340.950195312 614 401.299804688 773.5 c 128,-1,9
 461.650390625 933 461.650390625 933 544.099609375 1008.5 c 128,-1,10
 626.549804688 1084 626.549804688 1084 705.599609375 1084 c 0,11,12
 763.400390625 1084 763.400390625 1084 818.650390625 1038 c 128,-1,13
 873.900390625 992 873.900390625 992 913.849609375 900 c 1,14,-1
 936.799804688 1055 l 1,15,-1
 1062.59960938 1055 l 1,16,-1
 961.450195312 384 l 2,17,18
 941.049804688 245 941.049804688 245 941.049804688 229 c 0,19,20
 941.049804688 200 941.049804688 200 955.5 181.5 c 128,-1,21
 969.950195312 163 969.950195312 163 989.5 163 c 0,22,23
 1026.90039062 163 1026.90039062 163 1095.75 233 c 128,-1,24
 1164.59960938 303 1164.59960938 303 1211.34960938 436.5 c 128,-1,25
 1258.09960938 570 1258.09960938 570 1258.09960938 719 c 0,26,27
 1258.09960938 897 1258.09960938 897 1192.65039062 1041 c 128,-1,28
 1127.20019531 1185 1127.20019531 1185 1012.02539062 1266 c 128,-1,29
 896.849609375 1347 896.849609375 1347 761.700195312 1347 c 0,30,31
 601.049804688 1347 601.049804688 1347 471 1245 c 128,-1,32
 340.950195312 1143 340.950195312 1143 259.775390625 941.5 c 128,-1,33
 178.599609375 740 178.599609375 740 178.599609375 481 c 0,34,35
 178.599609375 237 178.599609375 237 251.700195312 66 c 128,-1,36
 324.799804688 -105 324.799804688 -105 460.375 -194 c 128,-1,37
 595.950195312 -283 595.950195312 -283 782.099609375 -283 c 0,38,39
 949.549804688 -283 949.549804688 -283 1076.625 -200.5 c 128,-1,40
 1203.70019531 -118 1203.70019531 -118 1270 19 c 1,41,-1
 1395.79980469 19 l 1,42,43
 1354.15039062 -102 1354.15039062 -102 1258.52539062 -212.5 c 128,-1,44
 1162.90039062 -323 1162.90039062 -323 1047.29980469 -377 c 128,-1,45
 931.700195312 -431 931.700195312 -431 781.25 -431 c 0,46,47
 561.099609375 -431 561.099609375 -431 407.25 -327 c 128,-1,48
 253.400390625 -223 253.400390625 -223 164.575195312 -20.5 c 128,-1,49
 75.75 182 75.75 182 75.75 467 c 0,50,51
 75.75 770 75.75 770 173.5 1016 c 128,-1,52
 271.25 1262 271.25 1262 420.424804688 1377.5 c 128,-1,53
 569.599609375 1493 569.599609375 1493 768.5 1493 c 0,54,55
 935.099609375 1493 935.099609375 1493 1068.125 1397 c 128,-1,56
 1201.15039062 1301 1201.15039062 1301 1281.47460938 1118.5 c 128,-1,57
 1361.79980469 936 1361.79980469 936 1361.79980469 715 c 0,58,59
 1361.79980469 415 1361.79980469 415 1213.90039062 188 c 0,60,61
 1088.95019531 -4 1088.95019531 -4 941.900390625 -4 c 0,62,63
 872.200195312 -4 872.200195312 -4 842.875 36.5 c 128,-1,64
 813.549804688 77 813.549804688 77 807.599609375 163 c 1,0,1
470.150390625 434 m 0,65,66
 470.150390625 296 470.150390625 296 516.474609375 220.5 c 128,-1,67
 562.799804688 145 562.799804688 145 620.599609375 145 c 0,68,69
 669.900390625 145 669.900390625 145 729.400390625 203.5 c 128,-1,70
 788.900390625 262 788.900390625 262 831.400390625 386 c 128,-1,71
 873.900390625 510 873.900390625 510 873.900390625 647 c 0,72,73
 873.900390625 787 873.900390625 787 826.299804688 861 c 128,-1,74
 778.700195312 935 778.700195312 935 711.549804688 935 c 0,75,76
 659.700195312 935 659.700195312 935 607.424804688 883 c 128,-1,77
 555.150390625 831 555.150390625 831 512.650390625 697 c 128,-1,78
 470.150390625 563 470.150390625 563 470.150390625 434 c 0,65,66
EndSplineSet
EndChar

StartChar: A
Encoding: 65 65 36
Width: 952
GlyphClass: 2
Flags: W
LayerCount: 2
Fore
SplineSet
-1.599609375 0 m 1,0,-1
 391.099609375 1466 l 1,1,-1
 536.450195312 1466 l 1,2,-1
 954.650390625 0 l 1,3,-1
 799.950195312 0 l 1,4,-1
 680.950195312 444 l 1,5,-1
 254.25 444 l 1,6,-1
 142.049804688 0 l 1,7,-1
 -1.599609375 0 l 1,0,-1
293.349609375 602 m 1,8,-1
 639.299804688 602 l 1,9,-1
 533.049804688 1008 l 2,10,11
 483.75 1195 483.75 1195 460.799804688 1312 c 1,12,13
 441.25 1171 441.25 1171 405.549804688 1032 c 2,14,-1
 293.349609375 602 l 1,8,-1
EndSplineSet
EndChar

StartChar: B
Encoding: 66 66 37
Width: 952
GlyphClass: 2
Flags: W
LayerCount: 2
Fore
SplineSet
105.5 0 m 1,0,-1
 105.5 1466 l 1,1,-1
 488.849609375 1466 l 2,2,3
 605.299804688 1466 605.299804688 1466 673.299804688 1423.5 c 128,-1,4
 741.299804688 1381 741.299804688 1381 784.650390625 1291 c 128,-1,5
 828 1201 828 1201 828 1092 c 0,6,7
 828 991 828 991 790.599609375 910 c 128,-1,8
 753.200195312 829 753.200195312 829 685.200195312 780 c 1,9,10
 774.450195312 742 774.450195312 742 825.875 650.5 c 128,-1,11
 877.299804688 559 877.299804688 559 877.299804688 425 c 0,12,13
 877.299804688 292 877.299804688 292 830.974609375 191.5 c 128,-1,14
 784.650390625 91 784.650390625 91 707.299804688 45.5 c 128,-1,15
 629.950195312 0 629.950195312 0 494.799804688 0 c 2,16,-1
 105.5 0 l 1,0,-1
240.650390625 850 m 1,17,-1
 461.650390625 850 l 2,18,19
 548.349609375 850 548.349609375 850 584.900390625 864 c 0,20,21
 637.599609375 885 637.599609375 885 666.075195312 934.5 c 128,-1,22
 694.549804688 984 694.549804688 984 694.549804688 1069 c 0,23,24
 694.549804688 1148 694.549804688 1148 668.625 1200.5 c 128,-1,25
 642.700195312 1253 642.700195312 1253 599.775390625 1273 c 128,-1,26
 556.849609375 1293 556.849609375 1293 445.5 1293 c 2,27,-1
 240.650390625 1293 l 1,28,-1
 240.650390625 850 l 1,17,-1
240.650390625 173 m 1,29,-1
 494.799804688 173 l 2,30,31
 578.950195312 173 578.950195312 173 618.900390625 191 c 0,32,33
 676.700195312 217 676.700195312 217 706.875 276.5 c 128,-1,34
 737.049804688 336 737.049804688 336 737.049804688 426 c 0,35,36
 737.049804688 509 737.049804688 509 708.150390625 566.5 c 128,-1,37
 679.25 624 679.25 624 630.375 650.5 c 128,-1,38
 581.5 677 581.5 677 476.950195312 677 c 2,39,-1
 240.650390625 677 l 1,40,-1
 240.650390625 173 l 1,29,-1
EndSplineSet
EndChar

StartChar: C
Encoding: 67 67 38
Width: 1030
GlyphClass: 2
Flags: W
LayerCount: 2
Fore
SplineSet
835.650390625 514 m 1,0,-1
 971.650390625 465 l 1,1,2
 926.599609375 218 926.599609375 218 813.974609375 96.5 c 128,-1,3
 701.349609375 -25 701.349609375 -25 539.849609375 -25 c 0,4,5
 397.900390625 -25 397.900390625 -25 297.174804688 56.5 c 128,-1,6
 196.450195312 138 196.450195312 138 132.275390625 318 c 128,-1,7
 68.099609375 498 68.099609375 498 68.099609375 743 c 0,8,9
 68.099609375 985 68.099609375 985 132.275390625 1152.5 c 128,-1,10
 196.450195312 1320 196.450195312 1320 306.099609375 1405.5 c 128,-1,11
 415.75 1491 415.75 1491 550.900390625 1491 c 0,12,13
 698.799804688 1491 698.799804688 1491 805.049804688 1382.5 c 128,-1,14
 911.299804688 1274 911.299804688 1274 953.799804688 1064 c 1,15,-1
 821.200195312 1019 l 1,16,17
 753.200195312 1325 753.200195312 1325 548.349609375 1325 c 0,18,19
 446.349609375 1325 446.349609375 1325 371.549804688 1263.5 c 128,-1,20
 296.75 1202 296.75 1202 252.125 1072 c 128,-1,21
 207.5 942 207.5 942 207.5 743 c 0,22,23
 207.5 442 207.5 442 297.599609375 291.5 c 128,-1,24
 387.700195312 141 387.700195312 141 537.299804688 141 c 0,25,26
 647.799804688 141 647.799804688 141 728.125 233.5 c 128,-1,27
 808.450195312 326 808.450195312 326 835.650390625 514 c 1,0,-1
EndSplineSet
EndChar

StartChar: D
Encoding: 68 68 39
Width: 1030
GlyphClass: 2
Flags: W
LayerCount: 2
Fore
SplineSet
107.200195312 0 m 1,0,-1
 107.200195312 1466 l 1,1,-1
 459.950195312 1466 l 2,2,3
 590.849609375 1466 590.849609375 1466 658.849609375 1439 c 0,4,5
 748.099609375 1404 748.099609375 1404 813.549804688 1311 c 128,-1,6
 879 1218 879 1218 915.549804688 1076.5 c 128,-1,7
 952.099609375 935 952.099609375 935 952.099609375 741 c 0,8,9
 952.099609375 492 952.099609375 492 890.049804688 318.5 c 128,-1,10
 828 145 828 145 730.674804688 72.5 c 128,-1,11
 633.349609375 0 633.349609375 0 476.099609375 0 c 2,12,-1
 107.200195312 0 l 1,0,-1
242.349609375 173 m 1,13,-1
 459.950195312 173 l 2,14,15
 591.700195312 173 591.700195312 173 659.700195312 223.5 c 128,-1,16
 727.700195312 274 727.700195312 274 764.25 386 c 0,17,18
 812.700195312 535 812.700195312 535 812.700195312 743 c 0,19,20
 812.700195312 966 812.700195312 966 761.275390625 1093.5 c 128,-1,21
 709.849609375 1221 709.849609375 1221 629.099609375 1264 c 0,22,23
 574.700195312 1293 574.700195312 1293 456.549804688 1293 c 2,24,-1
 242.349609375 1293 l 1,25,-1
 242.349609375 173 l 1,13,-1
EndSplineSet
EndChar

StartChar: E
Encoding: 69 69 40
Width: 952
GlyphClass: 2
Flags: W
LayerCount: 2
Fore
SplineSet
113.150390625 0 m 1,0,-1
 113.150390625 1466 l 1,1,-1
 851.799804688 1466 l 1,2,-1
 851.799804688 1293 l 1,3,-1
 248.299804688 1293 l 1,4,-1
 248.299804688 844 l 1,5,-1
 813.549804688 844 l 1,6,-1
 813.549804688 672 l 1,7,-1
 248.299804688 672 l 1,8,-1
 248.299804688 173 l 1,9,-1
 875.599609375 173 l 1,10,-1
 875.599609375 0 l 1,11,-1
 113.150390625 0 l 1,0,-1
EndSplineSet
EndChar

StartChar: F
Encoding: 70 70 41
Width: 872
GlyphClass: 2
Flags: W
LayerCount: 2
Fore
SplineSet
119.950195312 0 m 1,0,-1
 119.950195312 1466 l 1,1,-1
 809.299804688 1466 l 1,2,-1
 809.299804688 1293 l 1,3,-1
 255.099609375 1293 l 1,4,-1
 255.099609375 839 l 1,5,-1
 734.5 839 l 1,6,-1
 734.5 666 l 1,7,-1
 255.099609375 666 l 1,8,-1
 255.099609375 0 l 1,9,-1
 119.950195312 0 l 1,0,-1
EndSplineSet
EndChar

StartChar: G
Encoding: 71 71 42
Width: 1111
GlyphClass: 2
Flags: W
LayerCount: 2
Fore
SplineSet
591.700195312 575 m 1,0,-1
 591.700195312 747 l 1,1,-1
 1024.34960938 748 l 1,2,-1
 1024.34960938 204 l 1,3,4
 924.900390625 90 924.900390625 90 818.650390625 32.5 c 128,-1,5
 712.400390625 -25 712.400390625 -25 600.200195312 -25 c 0,6,7
 450.599609375 -25 450.599609375 -25 333.299804688 63 c 128,-1,8
 216 151 216 151 147.575195312 320 c 128,-1,9
 79.150390625 489 79.150390625 489 79.150390625 726 c 0,10,11
 79.150390625 966 79.150390625 966 148 1144 c 128,-1,12
 216.849609375 1322 216.849609375 1322 328.200195312 1406.5 c 128,-1,13
 439.549804688 1491 439.549804688 1491 591.700195312 1491 c 0,14,15
 703.900390625 1491 703.900390625 1491 788.049804688 1442 c 128,-1,16
 872.200195312 1393 872.200195312 1393 926.599609375 1303 c 128,-1,17
 981 1213 981 1213 1008.20019531 1056 c 1,18,-1
 886.650390625 1008 l 1,19,20
 862 1132 862 1132 824.599609375 1193.5 c 128,-1,21
 787.200195312 1255 787.200195312 1255 726 1290 c 128,-1,22
 664.799804688 1325 664.799804688 1325 588.299804688 1325 c 0,23,24
 476.950195312 1325 476.950195312 1325 396.625 1261.5 c 128,-1,25
 316.299804688 1198 316.299804688 1198 267.424804688 1064 c 128,-1,26
 218.549804688 930 218.549804688 930 218.549804688 737 c 0,27,28
 218.549804688 443 218.549804688 443 323.099609375 296.5 c 128,-1,29
 427.650390625 150 427.650390625 150 595.099609375 150 c 0,30,31
 675 150 675 150 758.724609375 195 c 128,-1,32
 842.450195312 240 842.450195312 240 891.75 302 c 1,33,-1
 891.75 575 l 1,34,-1
 591.700195312 575 l 1,0,-1
EndSplineSet
EndChar

StartChar: H
Encoding: 72 72 43
Width: 1030
GlyphClass: 2
Flags: W
LayerCount: 2
Fore
SplineSet
109.75 0 m 1,0,-1
 109.75 1466 l 1,1,-1
 244.900390625 1466 l 1,2,-1
 244.900390625 864 l 1,3,-1
 776.150390625 864 l 1,4,-1
 776.150390625 1466 l 1,5,-1
 911.299804688 1466 l 1,6,-1
 911.299804688 0 l 1,7,-1
 776.150390625 0 l 1,8,-1
 776.150390625 691 l 1,9,-1
 244.900390625 691 l 1,10,-1
 244.900390625 0 l 1,11,-1
 109.75 0 l 1,0,-1
EndSplineSet
EndChar

StartChar: I
Encoding: 73 73 44
Width: 397
GlyphClass: 2
Flags: W
LayerCount: 2
Fore
SplineSet
136.099609375 0 m 1,0,-1
 136.099609375 1466 l 1,1,-1
 271.25 1466 l 1,2,-1
 271.25 0 l 1,3,-1
 136.099609375 0 l 1,0,-1
EndSplineSet
EndChar

StartChar: J
Encoding: 74 74 45
Width: 714
GlyphClass: 2
Flags: W
LayerCount: 2
Fore
SplineSet
38.349609375 416 m 1,0,-1
 159.900390625 440 l 1,1,2
 165 272 165 272 204.099609375 210 c 128,-1,3
 243.200195312 148 243.200195312 148 312.049804688 148 c 0,4,5
 360.5 148 360.5 148 397.474609375 179.5 c 128,-1,6
 434.450195312 211 434.450195312 211 447.200195312 259 c 0,7,8
 465.049804688 324 465.049804688 324 465.049804688 456 c 2,9,-1
 465.049804688 1466 l 1,10,-1
 600.200195312 1466 l 1,11,-1
 600.200195312 467 l 2,12,13
 600.200195312 197 600.200195312 197 524.974609375 86 c 128,-1,14
 449.75 -25 449.75 -25 312.900390625 -25 c 0,15,16
 179.450195312 -25 179.450195312 -25 114 75 c 0,17,18
 38.349609375 189 38.349609375 189 38.349609375 416 c 1,0,-1
EndSplineSet
EndChar

StartChar: K
Encoding: 75 75 46
Width: 952
GlyphClass: 2
Flags: W
LayerCount: 2
Fore
SplineSet
105.5 0 m 1,0,-1
 105.5 1466 l 1,1,-1
 240.650390625 1466 l 1,2,-1
 240.650390625 739 l 1,3,-1
 748.099609375 1466 l 1,4,-1
 931.700195312 1466 l 1,5,-1
 502.450195312 872 l 1,6,-1
 950.400390625 0 l 1,7,-1
 771.900390625 0 l 1,8,-1
 408.099609375 742 l 1,9,-1
 240.650390625 508 l 1,10,-1
 240.650390625 0 l 1,11,-1
 105.5 0 l 1,0,-1
EndSplineSet
EndChar

StartChar: L
Encoding: 76 76 47
Width: 794
GlyphClass: 2
Flags: W
LayerCount: 2
Fore
SplineSet
102.099609375 0 m 1,0,-1
 102.099609375 1466 l 1,1,-1
 237.25 1466 l 1,2,-1
 237.25 173 l 1,3,-1
 740.450195312 173 l 1,4,-1
 740.450195312 0 l 1,5,-1
 102.099609375 0 l 1,0,-1
EndSplineSet
EndChar

StartChar: M
Encoding: 77 77 48
Width: 1189
GlyphClass: 2
Flags: W
LayerCount: 2
Fore
SplineSet
106.349609375 0 m 1,0,-1
 106.349609375 1466 l 1,1,-1
 309.5 1466 l 1,2,-1
 551.75 428 l 1,3,-1
 600.200195312 211 l 1,4,5
 618.049804688 292 618.049804688 292 654.599609375 446 c 2,6,-1
 899.400390625 1466 l 1,7,-1
 1081.29980469 1466 l 1,8,-1
 1081.29980469 0 l 1,9,-1
 951.25 0 l 1,10,-1
 951.25 1227 l 1,11,-1
 653.75 0 l 1,12,-1
 532.200195312 0 l 1,13,-1
 236.400390625 1248 l 1,14,-1
 236.400390625 0 l 1,15,-1
 106.349609375 0 l 1,0,-1
EndSplineSet
EndChar

StartChar: N
Encoding: 78 78 49
Width: 1030
GlyphClass: 2
Flags: W
LayerCount: 2
Fore
SplineSet
106.349609375 0 m 1,0,-1
 106.349609375 1466 l 1,1,-1
 244.900390625 1466 l 1,2,-1
 782.099609375 315 l 1,3,-1
 782.099609375 1466 l 1,4,-1
 911.299804688 1466 l 1,5,-1
 911.299804688 0 l 1,6,-1
 772.75 0 l 1,7,-1
 236.400390625 1152 l 1,8,-1
 236.400390625 0 l 1,9,-1
 106.349609375 0 l 1,0,-1
EndSplineSet
EndChar

StartChar: O
Encoding: 79 79 50
Width: 1111
GlyphClass: 2
Flags: W
LayerCount: 2
Fore
SplineSet
72.349609375 714 m 0,0,1
 72.349609375 1089 72.349609375 1089 212.599609375 1290.5 c 128,-1,2
 352.849609375 1492 352.849609375 1492 561.950195312 1492 c 0,3,4
 697.099609375 1492 697.099609375 1492 808.450195312 1402 c 128,-1,5
 919.799804688 1312 919.799804688 1312 984.825195312 1140.5 c 128,-1,6
 1049.84960938 969 1049.84960938 969 1049.84960938 732 c 0,7,8
 1049.84960938 406 1049.84960938 406 924.049804688 201 c 0,9,10
 785.5 -25 785.5 -25 561.099609375 -25 c 0,11,12
 335 -25 335 -25 197.299804688 207 c 0,13,14
 72.349609375 417 72.349609375 417 72.349609375 714 c 0,0,1
211.75 711 m 0,15,16
 211.75 440 211.75 440 313.325195312 290.5 c 128,-1,17
 414.900390625 141 414.900390625 141 560.25 141 c 0,18,19
 709 141 709 141 809.724609375 292 c 128,-1,20
 910.450195312 443 910.450195312 443 910.450195312 736 c 0,21,22
 910.450195312 925 910.450195312 925 858.599609375 1074 c 0,23,24
 818.650390625 1188 818.650390625 1188 738.325195312 1256.5 c 128,-1,25
 658 1325 658 1325 562.799804688 1325 c 0,26,27
 409.799804688 1325 409.799804688 1325 310.775390625 1175 c 128,-1,28
 211.75 1025 211.75 1025 211.75 711 c 0,15,16
EndSplineSet
EndChar

StartChar: P
Encoding: 80 80 51
Width: 952
GlyphClass: 2
Flags: W
LayerCount: 2
Fore
SplineSet
110.599609375 0 m 1,0,-1
 110.599609375 1466 l 1,1,-1
 495.650390625 1466 l 2,2,3
 631.650390625 1466 631.650390625 1466 696.25 1438 c 0,4,5
 784.650390625 1400 784.650390625 1400 837.349609375 1297 c 128,-1,6
 890.049804688 1194 890.049804688 1194 890.049804688 1044 c 0,7,8
 890.049804688 846 890.049804688 846 804.200195312 721 c 128,-1,9
 718.349609375 596 718.349609375 596 507.549804688 596 c 2,10,-1
 245.75 596 l 1,11,-1
 245.75 0 l 1,12,-1
 110.599609375 0 l 1,0,-1
245.75 769 m 1,13,-1
 510.099609375 769 l 2,14,15
 635.049804688 769 635.049804688 769 692.849609375 835.5 c 128,-1,16
 750.650390625 902 750.650390625 902 750.650390625 1036 c 0,17,18
 750.650390625 1123 750.650390625 1123 722.174804688 1185 c 128,-1,19
 693.700195312 1247 693.700195312 1247 653.325195312 1270 c 128,-1,20
 612.950195312 1293 612.950195312 1293 507.549804688 1293 c 2,21,-1
 245.75 1293 l 1,22,-1
 245.75 769 l 1,13,-1
EndSplineSet
EndChar

StartChar: Q
Encoding: 81 81 52
Width: 1111
GlyphClass: 2
Flags: W
LayerCount: 2
Fore
SplineSet
888.349609375 157 m 1,0,1
 982.700195312 64 982.700195312 64 1061.75 21 c 1,2,-1
 1021.79980469 -114 l 1,3,4
 909.599609375 -56 909.599609375 -56 802.5 66 c 1,5,6
 689.450195312 -25 689.450195312 -25 552.599609375 -25 c 0,7,8
 328.200195312 -25 328.200195312 -25 189.650390625 206 c 0,9,10
 64.7001953125 414 64.7001953125 414 64.7001953125 732 c 0,11,12
 64.7001953125 970 64.7001953125 970 131.849609375 1144.5 c 128,-1,13
 199 1319 199 1319 308.224609375 1405.5 c 128,-1,14
 417.450195312 1492 417.450195312 1492 554.299804688 1492 c 0,15,16
 689.450195312 1492 689.450195312 1492 800.375 1402.5 c 128,-1,17
 911.299804688 1313 911.299804688 1313 976.75 1141.5 c 128,-1,18
 1042.20019531 970 1042.20019531 970 1042.20019531 736 c 0,19,20
 1042.20019531 553 1042.20019531 553 1001.82519531 405 c 128,-1,21
 961.450195312 257 961.450195312 257 888.349609375 157 c 1,0,1
590 405 m 1,22,23
 706.450195312 359 706.450195312 359 782.950195312 265 c 1,24,25
 901.950195312 423 901.950195312 423 901.950195312 736 c 0,26,27
 901.950195312 925 901.950195312 925 856.474609375 1057 c 128,-1,28
 811 1189 811 1189 730.674804688 1257 c 128,-1,29
 650.349609375 1325 650.349609375 1325 555.150390625 1325 c 0,30,31
 403.849609375 1325 403.849609375 1325 303.974609375 1175.5 c 128,-1,32
 204.099609375 1026 204.099609375 1026 204.099609375 732 c 0,33,34
 204.099609375 442 204.099609375 442 305.25 291.5 c 128,-1,35
 406.400390625 141 406.400390625 141 555.150390625 141 c 0,36,37
 626.549804688 141 626.549804688 141 691.150390625 180 c 1,38,39
 628.25 239 628.25 239 556.849609375 264 c 1,40,-1
 590 405 l 1,22,23
EndSplineSet
EndChar

StartChar: R
Encoding: 82 82 53
Width: 1030
GlyphClass: 2
Flags: W
LayerCount: 2
Fore
SplineSet
109.75 0 m 1,0,-1
 109.75 1466 l 1,1,-1
 562.799804688 1466 l 2,2,3
 704.75 1466 704.75 1466 772.325195312 1425 c 128,-1,4
 839.900390625 1384 839.900390625 1384 883.25 1288.5 c 128,-1,5
 926.599609375 1193 926.599609375 1193 926.599609375 1067 c 0,6,7
 926.599609375 901 926.599609375 901 853.075195312 798 c 128,-1,8
 779.549804688 695 779.549804688 695 639.299804688 667 c 1,9,10
 696.25 627 696.25 627 726 586 c 0,11,12
 786.349609375 502 786.349609375 502 832.25 399 c 2,13,-1
 1010.75 0 l 1,14,-1
 840.75 0 l 1,15,-1
 704.75 305 l 2,16,17
 625.700195312 484 625.700195312 484 585.325195312 546 c 128,-1,18
 544.950195312 608 544.950195312 608 507.125 629.5 c 128,-1,19
 469.299804688 651 469.299804688 651 401.299804688 651 c 2,20,-1
 244.900390625 651 l 1,21,-1
 244.900390625 0 l 1,22,-1
 109.75 0 l 1,0,-1
244.900390625 819 m 1,23,-1
 535.599609375 819 l 2,24,25
 630.799804688 819 630.799804688 819 680.099609375 846 c 128,-1,26
 729.400390625 873 729.400390625 873 758.299804688 931 c 128,-1,27
 787.200195312 989 787.200195312 989 787.200195312 1066 c 0,28,29
 787.200195312 1177 787.200195312 1177 731.950195312 1240.5 c 128,-1,30
 676.700195312 1304 676.700195312 1304 567.900390625 1304 c 2,31,-1
 244.900390625 1304 l 1,32,-1
 244.900390625 819 l 1,23,-1
EndSplineSet
EndChar

StartChar: S
Encoding: 83 83 54
Width: 952
GlyphClass: 2
Flags: W
LayerCount: 2
Fore
SplineSet
64.7001953125 471 m 1,0,-1
 192.200195312 487 l 1,1,2
 202.400390625 366 202.400390625 366 238.525390625 298.5 c 128,-1,3
 274.650390625 231 274.650390625 231 341.799804688 190 c 128,-1,4
 408.950195312 149 408.950195312 149 493.099609375 149 c 0,5,6
 613.799804688 149 613.799804688 149 680.525390625 218.5 c 128,-1,7
 747.25 288 747.25 288 747.25 399 c 0,8,9
 747.25 464 747.25 464 723.025390625 512.5 c 128,-1,10
 698.799804688 561 698.799804688 561 649.924804688 592 c 128,-1,11
 601.049804688 623 601.049804688 623 438.700195312 679 c 0,12,13
 294.200195312 729 294.200195312 729 233 780 c 128,-1,14
 171.799804688 831 171.799804688 831 137.799804688 909.5 c 128,-1,15
 103.799804688 988 103.799804688 988 103.799804688 1087 c 0,16,17
 103.799804688 1265 103.799804688 1265 201.549804688 1378 c 128,-1,18
 299.299804688 1491 299.299804688 1491 465.049804688 1491 c 0,19,20
 578.950195312 1491 578.950195312 1491 664.375 1438 c 128,-1,21
 749.799804688 1385 749.799804688 1385 796.974609375 1286 c 128,-1,22
 844.150390625 1187 844.150390625 1187 847.549804688 1053 c 1,23,-1
 717.5 1039 l 1,24,25
 707.299804688 1182 707.299804688 1182 644.825195312 1251 c 128,-1,26
 582.349609375 1320 582.349609375 1320 469.299804688 1320 c 0,27,28
 354.549804688 1320 354.549804688 1320 294.200195312 1259.5 c 128,-1,29
 233.849609375 1199 233.849609375 1199 233.849609375 1103 c 0,30,31
 233.849609375 1014 233.849609375 1014 278.049804688 965 c 256,32,33
 322.25 916 322.25 916 476.950195312 866 c 0,34,35
 628.25 817 628.25 817 689.450195312 781 c 0,36,37
 782.950195312 725 782.950195312 725 830.549804688 633.5 c 128,-1,38
 878.150390625 542 878.150390625 542 878.150390625 415 c 0,39,40
 878.150390625 289 878.150390625 289 828 185.5 c 128,-1,41
 777.849609375 82 777.849609375 82 691.575195312 28 c 128,-1,42
 605.299804688 -26 605.299804688 -26 483.75 -26 c 0,43,44
 294.200195312 -26 294.200195312 -26 181.575195312 108 c 128,-1,45
 68.9501953125 242 68.9501953125 242 64.7001953125 471 c 1,0,-1
EndSplineSet
EndChar

StartChar: T
Encoding: 84 84 55
Width: 872
GlyphClass: 2
Flags: W
LayerCount: 2
Fore
SplineSet
372.400390625 0 m 1,0,-1
 372.400390625 1293 l 1,1,-1
 35.7998046875 1293 l 1,2,-1
 35.7998046875 1466 l 1,3,-1
 845.849609375 1466 l 1,4,-1
 845.849609375 1293 l 1,5,-1
 507.549804688 1293 l 1,6,-1
 507.549804688 0 l 1,7,-1
 372.400390625 0 l 1,0,-1
EndSplineSet
EndChar

StartChar: U
Encoding: 85 85 56
Width: 1030
GlyphClass: 2
Flags: W
LayerCount: 2
Fore
SplineSet
777.849609375 1466 m 1,0,-1
 913.849609375 1466 l 1,1,-1
 913.849609375 619 l 2,2,3
 913.849609375 406 913.849609375 406 878.575195312 269.5 c 128,-1,4
 843.299804688 133 843.299804688 133 750.224609375 54 c 128,-1,5
 657.150390625 -25 657.150390625 -25 513.5 -25 c 0,6,7
 311.200195312 -25 311.200195312 -25 210.474609375 117 c 128,-1,8
 109.75 259 109.75 259 109.75 619 c 2,9,-1
 109.75 1466 l 1,10,-1
 244.900390625 1466 l 1,11,-1
 244.900390625 620 l 2,12,13
 244.900390625 421 244.900390625 421 271.25 332 c 128,-1,14
 297.599609375 243 297.599609375 243 357.525390625 196.5 c 128,-1,15
 417.450195312 150 417.450195312 150 503.299804688 150 c 0,16,17
 647.799804688 150 647.799804688 150 712.825195312 246 c 128,-1,18
 777.849609375 342 777.849609375 342 777.849609375 620 c 2,19,-1
 777.849609375 1466 l 1,0,-1
EndSplineSet
EndChar

StartChar: V
Encoding: 86 86 57
Width: 952
GlyphClass: 2
Flags: W
LayerCount: 2
Fore
SplineSet
403 0 m 1,0,-1
 6.900390625 1466 l 1,1,-1
 153.099609375 1466 l 1,2,-1
 419.150390625 401 l 2,3,4
 449.75 277 449.75 277 472.700195312 161 c 1,5,6
 496.5 282 496.5 282 527.099609375 401 c 2,7,-1
 803.349609375 1466 l 1,8,-1
 941.049804688 1466 l 1,9,-1
 541.549804688 0 l 1,10,-1
 403 0 l 1,0,-1
EndSplineSet
EndChar

StartChar: W
Encoding: 87 87 58
Width: 1347
GlyphClass: 2
Flags: W
LayerCount: 2
Fore
SplineSet
290.799804688 0 m 1,0,-1
 19.650390625 1466 l 1,1,-1
 158.200195312 1466 l 1,2,-1
 313.75 505 l 2,3,4
 338.400390625 357 338.400390625 357 357.099609375 205 c 1,5,-1
 403 476 l 1,6,-1
 597.650390625 1466 l 1,7,-1
 760.849609375 1466 l 1,8,-1
 907.049804688 724 l 2,9,10
 960.599609375 453 960.599609375 453 986.950195312 205 c 1,11,12
 1006.5 348 1006.5 348 1037.09960938 524 c 2,13,-1
 1197.75 1466 l 1,14,-1
 1333.75 1466 l 1,15,-1
 1053.25 0 l 1,16,-1
 923.200195312 0 l 1,17,-1
 707.299804688 1117 l 1,18,-1
 675 1289 l 1,19,20
 660.549804688 1193 660.549804688 1193 645.25 1117 c 2,21,-1
 428.5 0 l 1,22,-1
 290.799804688 0 l 1,0,-1
EndSplineSet
EndChar

StartChar: X
Encoding: 88 88 59
Width: 952
GlyphClass: 2
Flags: W
LayerCount: 2
Fore
SplineSet
6.900390625 0 m 1,0,-1
 402.150390625 764 l 1,1,-1
 53.650390625 1466 l 1,2,-1
 214.299804688 1466 l 1,3,-1
 400.450195312 1090 l 2,4,5
 457.400390625 974 457.400390625 974 482.049804688 910 c 1,6,7
 515.200195312 988 515.200195312 988 562.799804688 1077 c 2,8,-1
 769.349609375 1466 l 1,9,-1
 915.549804688 1466 l 1,10,-1
 556.849609375 775 l 1,11,-1
 943.599609375 0 l 1,12,-1
 777 0 l 1,13,-1
 519.450195312 523 l 2,14,15
 498.200195312 567 498.200195312 567 475.25 621 c 1,16,17
 440.400390625 541 440.400390625 541 425.950195312 511 c 2,18,-1
 169.25 0 l 1,19,-1
 6.900390625 0 l 1,0,-1
EndSplineSet
EndChar

StartChar: Y
Encoding: 89 89 60
Width: 952
GlyphClass: 2
Flags: W
LayerCount: 2
Fore
SplineSet
397.900390625 0 m 1,0,-1
 397.900390625 621 l 1,1,-1
 4.349609375 1466 l 1,2,-1
 169.25 1466 l 1,3,-1
 369.849609375 1024 l 2,4,5
 429.349609375 893 429.349609375 893 474.400390625 776 c 1,6,7
 519.450195312 891 519.450195312 891 585.75 1035 c 2,8,-1
 783.799804688 1466 l 1,9,-1
 941.049804688 1466 l 1,10,-1
 533.049804688 621 l 1,11,-1
 533.049804688 0 l 1,12,-1
 397.900390625 0 l 1,0,-1
EndSplineSet
EndChar

StartChar: Z
Encoding: 90 90 61
Width: 872
GlyphClass: 2
Flags: W
LayerCount: 2
Fore
SplineSet
30.7001953125 0 m 1,0,-1
 30.7001953125 180 l 1,1,-1
 554.299804688 1119 l 2,2,3
 608.700195312 1217 608.700195312 1217 660.549804688 1293 c 1,4,-1
 89.349609375 1293 l 1,5,-1
 89.349609375 1466 l 1,6,-1
 821.200195312 1466 l 1,7,-1
 821.200195312 1293 l 1,8,-1
 248.299804688 276 l 1,9,-1
 186.25 173 l 1,10,-1
 838.200195312 173 l 1,11,-1
 838.200195312 0 l 1,12,-1
 30.7001953125 0 l 1,0,-1
EndSplineSet
EndChar

StartChar: bracketleft
Encoding: 91 91 62
Width: 397
GlyphClass: 2
Flags: W
LayerCount: 2
Fore
SplineSet
99.5498046875 -407 m 1,0,-1
 99.5498046875 1466 l 1,1,-1
 376.650390625 1466 l 1,2,-1
 376.650390625 1317 l 1,3,-1
 224.5 1317 l 1,4,-1
 224.5 -258 l 1,5,-1
 376.650390625 -258 l 1,6,-1
 376.650390625 -407 l 1,7,-1
 99.5498046875 -407 l 1,0,-1
EndSplineSet
EndChar

StartChar: backslash
Encoding: 92 92 63
Width: 397
GlyphClass: 2
Flags: W
LayerCount: 2
Fore
SplineSet
295.900390625 -25 m 1,0,-1
 0.099609375 1491 l 1,1,-1
 101.25 1491 l 1,2,-1
 397.049804688 -25 l 1,3,-1
 295.900390625 -25 l 1,0,-1
EndSplineSet
EndChar

StartChar: bracketright
Encoding: 93 93 64
Width: 397
GlyphClass: 2
Flags: W
LayerCount: 2
Fore
SplineSet
307.799804688 -407 m 1,0,-1
 30.7001953125 -407 l 1,1,-1
 30.7001953125 -258 l 1,2,-1
 182 -258 l 1,3,-1
 182 1317 l 1,4,-1
 30.7001953125 1317 l 1,5,-1
 30.7001953125 1466 l 1,6,-1
 307.799804688 1466 l 1,7,-1
 307.799804688 -407 l 1,0,-1
EndSplineSet
EndChar

StartChar: asciicircum
Encoding: 94 94 65
Width: 669
GlyphClass: 2
Flags: W
LayerCount: 2
Fore
SplineSet
166.700195312 690 m 1,0,-1
 38.349609375 690 l 1,1,-1
 284.849609375 1491 l 1,2,-1
 386 1491 l 1,3,-1
 632.5 690 l 1,4,-1
 506.700195312 690 l 1,5,-1
 334.150390625 1287 l 1,6,-1
 166.700195312 690 l 1,0,-1
EndSplineSet
EndChar

StartChar: underscore
Encoding: 95 95 66
Width: 794
GlyphClass: 2
Flags: W
LayerCount: 2
Fore
SplineSet
-10.099609375 -154 m 1,0,-1
 801.650390625 -154 l 1,1,-1
 801.650390625 -256 l 1,2,-1
 -10.099609375 -256 l 1,3,-1
 -10.099609375 -154 l 1,0,-1
EndSplineSet
EndChar

StartChar: grave
Encoding: 96 96 67
Width: 475
GlyphClass: 2
Flags: W
LayerCount: 2
Fore
SplineSet
323.950195312 1194 m 1,0,-1
 222.799804688 1194 l 1,1,-1
 62.150390625 1474 l 1,2,-1
 230.450195312 1474 l 1,3,-1
 323.950195312 1194 l 1,0,-1
EndSplineSet
EndChar

StartChar: a
Encoding: 97 97 68
Width: 794
GlyphClass: 2
Flags: W
LayerCount: 2
Fore
SplineSet
574.700195312 131 m 1,0,1
 511.799804688 54 511.799804688 54 443.799804688 15 c 128,-1,2
 375.799804688 -24 375.799804688 -24 302.700195312 -24 c 0,3,4
 187.099609375 -24 187.099609375 -24 118.25 58 c 128,-1,5
 49.400390625 140 49.400390625 140 49.400390625 279 c 0,6,7
 49.400390625 371 49.400390625 371 81.7001953125 442 c 128,-1,8
 114 513 114 513 170.099609375 553 c 128,-1,9
 226.200195312 593 226.200195312 593 340.099609375 612 c 0,10,11
 493.099609375 638 493.099609375 638 564.5 674 c 1,12,-1
 565.349609375 720 l 2,13,14
 565.349609375 829 565.349609375 829 532.200195312 873 c 0,15,16
 485.450195312 937 485.450195312 937 388.549804688 937 c 0,17,18
 301 937 301 937 257.650390625 894.5 c 128,-1,19
 214.299804688 852 214.299804688 852 193.900390625 735 c 1,20,-1
 70.650390625 759 l 1,21,22
 97 930 97 930 177.325195312 1008 c 128,-1,23
 257.650390625 1086 257.650390625 1086 407.25 1086 c 0,24,25
 523.700195312 1086 523.700195312 1086 590 1034.5 c 128,-1,26
 656.299804688 983 656.299804688 983 673.724609375 907 c 128,-1,27
 691.150390625 831 691.150390625 831 691.150390625 685 c 2,28,-1
 691.150390625 445 l 2,29,30
 691.150390625 193 691.150390625 193 699.224609375 127.5 c 128,-1,31
 707.299804688 62 707.299804688 62 731.099609375 0 c 1,32,-1
 600.200195312 0 l 1,33,34
 580.650390625 55 580.650390625 55 574.700195312 131 c 1,0,1
564.5 533 m 1,35,36
 495.650390625 493 495.650390625 493 359.650390625 465 c 0,37,38
 280.599609375 449 280.599609375 449 249.150390625 428.5 c 128,-1,39
 217.700195312 408 217.700195312 408 200.275390625 370.5 c 128,-1,40
 182.849609375 333 182.849609375 333 182.849609375 284 c 0,41,42
 182.849609375 208 182.849609375 208 222.799804688 162.5 c 128,-1,43
 262.75 117 262.75 117 333.299804688 117 c 0,44,45
 400.450195312 117 400.450195312 117 455.275390625 158 c 128,-1,46
 510.099609375 199 510.099609375 199 537.299804688 267.5 c 128,-1,47
 564.5 336 564.5 336 564.5 467 c 2,48,-1
 564.5 533 l 1,35,36
EndSplineSet
EndChar

StartChar: b
Encoding: 98 98 69
Width: 794
GlyphClass: 2
Flags: W
LayerCount: 2
Fore
SplineSet
207.5 0 m 1,0,-1
 91.0498046875 0 l 1,1,-1
 91.0498046875 1466 l 1,2,-1
 216 1466 l 1,3,-1
 216 943 l 1,4,5
 255.950195312 1015 255.950195312 1015 306.525390625 1050.5 c 128,-1,6
 357.099609375 1086 357.099609375 1086 419.150390625 1086 c 0,7,8
 505.849609375 1086 505.849609375 1086 576.825195312 1025 c 128,-1,9
 647.799804688 964 647.799804688 964 690.299804688 840 c 128,-1,10
 732.799804688 716 732.799804688 716 732.799804688 539 c 0,11,12
 732.799804688 269 732.799804688 269 636.75 122.5 c 128,-1,13
 540.700195312 -24 540.700195312 -24 412.349609375 -24 c 0,14,15
 347.75 -24 347.75 -24 296.325195312 15.5 c 128,-1,16
 244.900390625 55 244.900390625 55 207.5 133 c 1,17,-1
 207.5 0 l 1,0,-1
205.799804688 539 m 0,18,19
 205.799804688 374 205.799804688 374 231.299804688 292 c 128,-1,20
 256.799804688 210 256.799804688 210 303.549804688 167 c 128,-1,21
 350.299804688 124 350.299804688 124 407.25 124 c 0,22,23
 484.599609375 124 484.599609375 124 544.525390625 226.5 c 128,-1,24
 604.450195312 329 604.450195312 329 604.450195312 533 c 0,25,26
 604.450195312 742 604.450195312 742 546.650390625 840 c 128,-1,27
 488.849609375 938 488.849609375 938 404.700195312 938 c 0,28,29
 327.349609375 938 327.349609375 938 266.575195312 835.5 c 128,-1,30
 205.799804688 733 205.799804688 733 205.799804688 539 c 0,18,19
EndSplineSet
EndChar

StartChar: c
Encoding: 99 99 70
Width: 714
GlyphClass: 2
Flags: W
LayerCount: 2
Fore
SplineSet
577.25 389 m 1,0,-1
 700.5 366 l 1,1,2
 679.25 176 679.25 176 593.825195312 76 c 128,-1,3
 508.400390625 -24 508.400390625 -24 388.549804688 -24 c 0,4,5
 243.200195312 -24 243.200195312 -24 149.275390625 116.5 c 128,-1,6
 55.349609375 257 55.349609375 257 55.349609375 532 c 0,7,8
 55.349609375 809 55.349609375 809 150.125 947.5 c 128,-1,9
 244.900390625 1086 244.900390625 1086 393.650390625 1086 c 0,10,11
 508.400390625 1086 508.400390625 1086 587.025390625 1002 c 128,-1,12
 665.650390625 918 665.650390625 918 687.75 750 c 1,13,-1
 566.200195312 723 l 1,14,15
 548.349609375 831 548.349609375 831 504.150390625 884.5 c 128,-1,16
 459.950195312 938 459.950195312 938 397.900390625 938 c 0,17,18
 305.25 938 305.25 938 244.474609375 841.5 c 128,-1,19
 183.700195312 745 183.700195312 745 183.700195312 535 c 0,20,21
 183.700195312 318 183.700195312 318 241.924804688 221 c 128,-1,22
 300.150390625 124 300.150390625 124 391.099609375 124 c 0,23,24
 462.5 124 462.5 124 513.075195312 188.5 c 128,-1,25
 563.650390625 253 563.650390625 253 577.25 389 c 1,0,-1
EndSplineSet
EndChar

StartChar: d
Encoding: 100 100 71
Width: 794
GlyphClass: 2
Flags: W
LayerCount: 2
Fore
SplineSet
572.150390625 0 m 1,0,-1
 572.150390625 134 l 1,1,2
 538.150390625 57 538.150390625 57 484.599609375 16.5 c 128,-1,3
 431.049804688 -24 431.049804688 -24 369 -24 c 0,4,5
 238.099609375 -24 238.099609375 -24 142.474609375 121.5 c 128,-1,6
 46.849609375 267 46.849609375 267 46.849609375 531 c 0,7,8
 46.849609375 712 46.849609375 712 89.349609375 838 c 128,-1,9
 131.849609375 964 131.849609375 964 202.825195312 1025 c 128,-1,10
 273.799804688 1086 273.799804688 1086 360.5 1086 c 0,11,12
 422.549804688 1086 422.549804688 1086 475.674804688 1047.5 c 128,-1,13
 528.799804688 1009 528.799804688 1009 563.650390625 940 c 1,14,-1
 563.650390625 1466 l 1,15,-1
 689.450195312 1466 l 1,16,-1
 689.450195312 0 l 1,17,-1
 572.150390625 0 l 1,0,-1
175.200195312 530 m 0,18,19
 175.200195312 324 175.200195312 324 235.974609375 224 c 128,-1,20
 296.75 124 296.75 124 377.5 124 c 0,21,22
 457.400390625 124 457.400390625 124 516.049804688 220 c 128,-1,23
 574.700195312 316 574.700195312 316 574.700195312 510 c 0,24,25
 574.700195312 733 574.700195312 733 516.049804688 835.5 c 128,-1,26
 457.400390625 938 457.400390625 938 368.150390625 938 c 0,27,28
 289.099609375 938 289.099609375 938 232.150390625 839.5 c 128,-1,29
 175.200195312 741 175.200195312 741 175.200195312 530 c 0,18,19
EndSplineSet
EndChar

StartChar: e
Encoding: 101 101 72
Width: 794
GlyphClass: 2
Flags: W
LayerCount: 2
Fore
SplineSet
598.5 342 m 1,0,-1
 727.700195312 319 l 1,1,2
 695.400390625 149 695.400390625 149 610.825195312 62.5 c 128,-1,3
 526.25 -24 526.25 -24 401.299804688 -24 c 0,4,5
 244.049804688 -24 244.049804688 -24 146.724609375 116.5 c 128,-1,6
 49.400390625 257 49.400390625 257 49.400390625 522 c 0,7,8
 49.400390625 797 49.400390625 797 147.575195312 941.5 c 128,-1,9
 245.75 1086 245.75 1086 396.200195312 1086 c 0,10,11
 539.849609375 1086 539.849609375 1086 635.900390625 944 c 128,-1,12
 731.950195312 802 731.950195312 802 731.950195312 533 c 1,13,-1
 731.099609375 485 l 1,14,-1
 178.599609375 485 l 1,15,16
 186.25 306 186.25 306 249.150390625 215 c 128,-1,17
 312.049804688 124 312.049804688 124 402.150390625 124 c 0,18,19
 543.25 124 543.25 124 598.5 342 c 1,0,-1
186.25 633 m 1,20,-1
 599.349609375 633 l 1,21,22
 590.849609375 771 590.849609375 771 549.200195312 839 c 0,23,24
 488.849609375 938 488.849609375 938 395.349609375 938 c 0,25,26
 311.200195312 938 311.200195312 938 251.700195312 855.5 c 128,-1,27
 192.200195312 773 192.200195312 773 186.25 633 c 1,20,-1
EndSplineSet
EndChar

StartChar: f
Encoding: 102 102 73
Width: 397
GlyphClass: 2
Flags: W
LayerCount: 2
Fore
SplineSet
127.599609375 0 m 1,0,-1
 127.599609375 922 l 1,1,-1
 16.25 922 l 1,2,-1
 16.25 1062 l 1,3,-1
 127.599609375 1062 l 1,4,-1
 127.599609375 1175 l 2,5,6
 127.599609375 1300 127.599609375 1300 149.700195312 1362.5 c 128,-1,7
 171.799804688 1425 171.799804688 1425 217.275390625 1458 c 128,-1,8
 262.75 1491 262.75 1491 331.599609375 1491 c 0,9,10
 385.150390625 1491 385.150390625 1491 448.900390625 1473 c 1,11,-1
 430.200195312 1316 l 1,12,13
 391.099609375 1326 391.099609375 1326 356.25 1326 c 0,14,15
 300.150390625 1326 300.150390625 1326 275.924804688 1291.5 c 128,-1,16
 251.700195312 1257 251.700195312 1257 251.700195312 1160 c 2,17,-1
 251.700195312 1062 l 1,18,-1
 396.200195312 1062 l 1,19,-1
 396.200195312 922 l 1,20,-1
 251.700195312 922 l 1,21,-1
 251.700195312 0 l 1,22,-1
 127.599609375 0 l 1,0,-1
EndSplineSet
EndChar

StartChar: g
Encoding: 103 103 74
Width: 794
GlyphClass: 2
Flags: W
LayerCount: 2
Fore
SplineSet
68.099609375 -88 m 1,0,-1
 190.5 -114 l 1,1,2
 199 -199 199 -199 241.5 -240.5 c 128,-1,3
 284 -282 284 -282 359.650390625 -282 c 0,4,5
 442.099609375 -282 442.099609375 -282 490.974609375 -235.5 c 128,-1,6
 539.849609375 -189 539.849609375 -189 557.700195312 -97 c 0,7,8
 568.75 -41 568.75 -41 568.75 139 c 1,9,10
 527.950195312 70 527.950195312 70 476.950195312 35 c 128,-1,11
 425.950195312 0 425.950195312 0 363.900390625 0 c 0,12,13
 231.299804688 0 231.299804688 0 143.75 132 c 0,14,15
 43.4501953125 284 43.4501953125 284 43.4501953125 539 c 0,16,17
 43.4501953125 710 43.4501953125 710 87.650390625 838 c 128,-1,18
 131.849609375 966 131.849609375 966 203.674804688 1026 c 128,-1,19
 275.5 1086 275.5 1086 364.75 1086 c 0,20,21
 430.200195312 1086 430.200195312 1086 484.174804688 1048 c 128,-1,22
 538.150390625 1010 538.150390625 1010 579.799804688 934 c 1,23,-1
 579.799804688 1062 l 1,24,-1
 695.400390625 1062 l 1,25,-1
 695.400390625 144 l 2,26,27
 695.400390625 -101 695.400390625 -101 661.400390625 -205.5 c 128,-1,28
 627.400390625 -310 627.400390625 -310 550.049804688 -370.5 c 128,-1,29
 472.700195312 -431 472.700195312 -431 363.900390625 -431 c 0,30,31
 220.25 -431 220.25 -431 142.900390625 -340 c 128,-1,32
 65.5498046875 -249 65.5498046875 -249 68.099609375 -88 c 1,0,-1
172.650390625 550 m 0,33,34
 172.650390625 341 172.650390625 341 231.299804688 245 c 128,-1,35
 289.950195312 149 289.950195312 149 374.950195312 149 c 256,36,37
 459.950195312 149 459.950195312 149 519.450195312 243 c 128,-1,38
 578.950195312 337 578.950195312 337 578.950195312 542 c 0,39,40
 578.950195312 742 578.950195312 742 517.75 839.5 c 128,-1,41
 456.549804688 937 456.549804688 937 369 937 c 0,42,43
 290.799804688 937 290.799804688 937 231.724609375 839.5 c 128,-1,44
 172.650390625 742 172.650390625 742 172.650390625 550 c 0,33,34
EndSplineSet
EndChar

StartChar: h
Encoding: 104 104 75
Width: 794
GlyphClass: 2
Flags: W
LayerCount: 2
Fore
SplineSet
91.900390625 0 m 1,0,-1
 91.900390625 1466 l 1,1,-1
 216.849609375 1466 l 1,2,-1
 216.849609375 940 l 1,3,4
 261.049804688 1013 261.049804688 1013 316.724609375 1049.5 c 128,-1,5
 372.400390625 1086 372.400390625 1086 439.549804688 1086 c 0,6,7
 557.700195312 1086 557.700195312 1086 626.125 997.5 c 128,-1,8
 694.549804688 909 694.549804688 909 694.549804688 673 c 2,9,-1
 694.549804688 0 l 1,10,-1
 569.599609375 0 l 1,11,-1
 569.599609375 673 l 2,12,13
 569.599609375 811 569.599609375 811 527.950195312 871 c 128,-1,14
 486.299804688 931 486.299804688 931 413.200195312 931 c 0,15,16
 331.599609375 931 331.599609375 931 274.224609375 854 c 128,-1,17
 216.849609375 777 216.849609375 777 216.849609375 581 c 2,18,-1
 216.849609375 0 l 1,19,-1
 91.900390625 0 l 1,0,-1
EndSplineSet
EndChar

StartChar: i
Encoding: 105 105 76
Width: 317
GlyphClass: 2
Flags: W
LayerCount: 2
Fore
SplineSet
91.900390625 1259 m 1,0,-1
 91.900390625 1466 l 1,1,-1
 216.849609375 1466 l 1,2,-1
 216.849609375 1259 l 1,3,-1
 91.900390625 1259 l 1,0,-1
91.900390625 0 m 1,4,-1
 91.900390625 1062 l 1,5,-1
 216.849609375 1062 l 1,6,-1
 216.849609375 0 l 1,7,-1
 91.900390625 0 l 1,4,-1
EndSplineSet
EndChar

StartChar: j
Encoding: 106 106 77
Width: 317
GlyphClass: 2
Flags: W
LayerCount: 2
Fore
SplineSet
91.0498046875 1257 m 1,0,-1
 91.0498046875 1466 l 1,1,-1
 216 1466 l 1,2,-1
 216 1257 l 1,3,-1
 91.0498046875 1257 l 1,0,-1
-67.900390625 -412 m 1,4,-1
 -44.099609375 -259 l 1,5,6
 -6.7001953125 -273 -6.7001953125 -273 14.5498046875 -273 c 0,7,8
 54.5 -273 54.5 -273 72.775390625 -236 c 128,-1,9
 91.0498046875 -199 91.0498046875 -199 91.0498046875 -54 c 2,10,-1
 91.0498046875 1062 l 1,11,-1
 216 1062 l 1,12,-1
 216 -58 l 2,13,14
 216 -275 216 -275 168.825195312 -353 c 128,-1,15
 121.650390625 -431 121.650390625 -431 30.7001953125 -431 c 0,16,17
 -20.2998046875 -431 -20.2998046875 -431 -67.900390625 -412 c 1,4,-1
EndSplineSet
EndChar

StartChar: k
Encoding: 107 107 78
Width: 714
GlyphClass: 2
Flags: W
LayerCount: 2
Fore
SplineSet
95.2998046875 0 m 1,0,-1
 95.2998046875 1466 l 1,1,-1
 220.25 1466 l 1,2,-1
 220.25 630 l 1,3,-1
 517.75 1062 l 1,4,-1
 680.099609375 1062 l 1,5,-1
 397.049804688 668 l 1,6,-1
 708.150390625 0 l 1,7,-1
 554.299804688 0 l 1,8,-1
 308.650390625 543 l 1,9,-1
 220.25 421 l 1,10,-1
 220.25 0 l 1,11,-1
 95.2998046875 0 l 1,0,-1
EndSplineSet
EndChar

StartChar: l
Encoding: 108 108 79
Width: 317
GlyphClass: 2
Flags: W
LayerCount: 2
Fore
SplineSet
88.5 0 m 1,0,-1
 88.5 1466 l 1,1,-1
 213.450195312 1466 l 1,2,-1
 213.450195312 0 l 1,3,-1
 88.5 0 l 1,0,-1
EndSplineSet
EndChar

StartChar: m
Encoding: 109 109 80
Width: 1189
GlyphClass: 2
Flags: W
LayerCount: 2
Fore
SplineSet
93.599609375 0 m 1,0,-1
 93.599609375 1062 l 1,1,-1
 205.799804688 1062 l 1,2,-1
 205.799804688 913 l 1,3,4
 243.200195312 996 243.200195312 996 301.849609375 1041 c 128,-1,5
 360.5 1086 360.5 1086 430.200195312 1086 c 0,6,7
 508.400390625 1086 508.400390625 1086 562.375 1038.5 c 128,-1,8
 616.349609375 991 616.349609375 991 639.299804688 900 c 1,9,10
 683.5 993 683.5 993 740.875 1039.5 c 128,-1,11
 798.25 1086 798.25 1086 867.950195312 1086 c 0,12,13
 974.200195312 1086 974.200195312 1086 1035.40039062 1001 c 128,-1,14
 1096.59960938 916 1096.59960938 916 1096.59960938 729 c 2,15,-1
 1096.59960938 0 l 1,16,-1
 971.650390625 0 l 1,17,-1
 971.650390625 669 l 2,18,19
 971.650390625 783 971.650390625 783 957.625 830.5 c 128,-1,20
 943.599609375 878 943.599609375 878 912.150390625 904 c 128,-1,21
 880.700195312 930 880.700195312 930 841.599609375 930 c 0,22,23
 760.849609375 930 760.849609375 930 709.849609375 854.5 c 128,-1,24
 658.849609375 779 658.849609375 779 658.849609375 617 c 2,25,-1
 658.849609375 0 l 1,26,-1
 533.049804688 0 l 1,27,-1
 533.049804688 690 l 2,28,29
 533.049804688 822 533.049804688 822 498.625 876 c 128,-1,30
 464.200195312 930 464.200195312 930 403.849609375 930 c 0,31,32
 318 930 318 930 268.275390625 848.5 c 128,-1,33
 218.549804688 767 218.549804688 767 218.549804688 551 c 2,34,-1
 218.549804688 0 l 1,35,-1
 93.599609375 0 l 1,0,-1
EndSplineSet
EndChar

StartChar: n
Encoding: 110 110 81
Width: 794
GlyphClass: 2
Flags: W
LayerCount: 2
Fore
SplineSet
91.900390625 0 m 1,0,-1
 91.900390625 1062 l 1,1,-1
 204.950195312 1062 l 1,2,-1
 204.950195312 911 l 1,3,4
 245.75 999 245.75 999 304.825195312 1042.5 c 128,-1,5
 363.900390625 1086 363.900390625 1086 440.400390625 1086 c 0,6,7
 499.900390625 1086 499.900390625 1086 550.474609375 1058.5 c 128,-1,8
 601.049804688 1031 601.049804688 1031 632.075195312 986.5 c 128,-1,9
 663.099609375 942 663.099609375 942 678.400390625 871 c 128,-1,10
 693.700195312 800 693.700195312 800 693.700195312 653 c 2,11,-1
 693.700195312 0 l 1,12,-1
 567.900390625 0 l 1,13,-1
 567.900390625 646 l 2,14,15
 567.900390625 763 567.900390625 763 550.900390625 817 c 128,-1,16
 533.900390625 871 533.900390625 871 497.775390625 900.5 c 128,-1,17
 461.650390625 930 461.650390625 930 414.049804688 930 c 0,18,19
 323.950195312 930 323.950195312 930 270.400390625 851 c 128,-1,20
 216.849609375 772 216.849609375 772 216.849609375 580 c 2,21,-1
 216.849609375 0 l 1,22,-1
 91.900390625 0 l 1,0,-1
EndSplineSet
EndChar

StartChar: o
Encoding: 111 111 82
Width: 794
GlyphClass: 2
Flags: W
LayerCount: 2
Fore
SplineSet
45.150390625 531 m 0,0,1
 45.150390625 806 45.150390625 806 143.325195312 946 c 128,-1,2
 241.5 1086 241.5 1086 391.950195312 1086 c 0,3,4
 539.849609375 1086 539.849609375 1086 639.299804688 946 c 128,-1,5
 738.75 806 738.75 806 738.75 542 c 0,6,7
 738.75 256 738.75 256 641 116 c 128,-1,8
 543.25 -24 543.25 -24 391.950195312 -24 c 0,9,10
 243.200195312 -24 243.200195312 -24 144.174804688 116.5 c 128,-1,11
 45.150390625 257 45.150390625 257 45.150390625 531 c 0,0,1
173.5 531 m 0,12,13
 173.5 325 173.5 325 237.25 224.5 c 128,-1,14
 301 124 301 124 395.349609375 124 c 0,15,16
 483.75 124 483.75 124 547.075195312 225.5 c 128,-1,17
 610.400390625 327 610.400390625 327 610.400390625 531 c 0,18,19
 610.400390625 736 610.400390625 736 546.650390625 836.5 c 128,-1,20
 482.900390625 937 482.900390625 937 388.549804688 937 c 0,21,22
 299.299804688 937 299.299804688 937 236.400390625 836 c 128,-1,23
 173.5 735 173.5 735 173.5 531 c 0,12,13
EndSplineSet
EndChar

StartChar: p
Encoding: 112 112 83
Width: 794
GlyphClass: 2
Flags: W
LayerCount: 2
Fore
SplineSet
91.900390625 -407 m 1,0,-1
 91.900390625 1062 l 1,1,-1
 206.650390625 1062 l 1,2,-1
 206.650390625 924 l 1,3,4
 249.150390625 1010 249.150390625 1010 301 1048 c 128,-1,5
 352.849609375 1086 352.849609375 1086 420 1086 c 0,6,7
 507.549804688 1086 507.549804688 1086 578.099609375 1025 c 128,-1,8
 648.650390625 964 648.650390625 964 691.575195312 839.5 c 128,-1,9
 734.5 715 734.5 715 734.5 540 c 0,10,11
 734.5 269 734.5 269 638.025390625 122.5 c 128,-1,12
 541.549804688 -24 541.549804688 -24 411.5 -24 c 0,13,14
 353.700195312 -24 353.700195312 -24 303.549804688 11 c 128,-1,15
 253.400390625 46 253.400390625 46 216.849609375 110 c 1,16,-1
 216.849609375 -407 l 1,17,-1
 91.900390625 -407 l 1,0,-1
204.950195312 525 m 0,18,19
 204.950195312 319 204.950195312 319 263.599609375 221.5 c 128,-1,20
 322.25 124 322.25 124 405.549804688 124 c 0,21,22
 485.450195312 124 485.450195312 124 545.799804688 225 c 128,-1,23
 606.150390625 326 606.150390625 326 606.150390625 537 c 0,24,25
 606.150390625 745 606.150390625 745 547.5 845 c 128,-1,26
 488.849609375 945 488.849609375 945 404.700195312 945 c 0,27,28
 329.049804688 945 329.049804688 945 267 837.5 c 128,-1,29
 204.950195312 730 204.950195312 730 204.950195312 525 c 0,18,19
EndSplineSet
EndChar

StartChar: q
Encoding: 113 113 84
Width: 794
GlyphClass: 2
Flags: W
LayerCount: 2
Fore
SplineSet
563.650390625 -407 m 1,0,-1
 563.650390625 113 l 1,1,2
 533.900390625 52 533.900390625 52 480.775390625 14 c 128,-1,3
 427.650390625 -24 427.650390625 -24 374.099609375 -24 c 0,4,5
 241.5 -24 241.5 -24 144.599609375 124 c 128,-1,6
 47.7001953125 272 47.7001953125 272 47.7001953125 541 c 0,7,8
 47.7001953125 775 47.7001953125 775 129.299804688 930.5 c 128,-1,9
 210.900390625 1086 210.900390625 1086 360.5 1086 c 0,10,11
 429.349609375 1086 429.349609375 1086 482.900390625 1044.5 c 128,-1,12
 536.450195312 1003 536.450195312 1003 575.549804688 920 c 1,13,-1
 575.549804688 1062 l 1,14,-1
 688.599609375 1062 l 1,15,-1
 688.599609375 -407 l 1,16,-1
 563.650390625 -407 l 1,0,-1
176.049804688 534 m 0,17,18
 176.049804688 327 176.049804688 327 237.25 225.5 c 128,-1,19
 298.450195312 124 298.450195312 124 383.450195312 124 c 0,20,21
 459.099609375 124 459.099609375 124 517.75 221.5 c 128,-1,22
 576.400390625 319 576.400390625 319 576.400390625 512 c 0,23,24
 576.400390625 731 576.400390625 731 514.775390625 837.5 c 128,-1,25
 453.150390625 944 453.150390625 944 368.150390625 944 c 0,26,27
 290.799804688 944 290.799804688 944 233.424804688 844.5 c 128,-1,28
 176.049804688 745 176.049804688 745 176.049804688 534 c 0,17,18
EndSplineSet
EndChar

StartChar: r
Encoding: 114 114 85
Width: 475
GlyphClass: 2
Flags: W
LayerCount: 2
Fore
SplineSet
91.900390625 0 m 1,0,-1
 91.900390625 1062 l 1,1,-1
 204.950195312 1062 l 1,2,-1
 204.950195312 901 l 1,3,4
 248.299804688 1013 248.299804688 1013 284.424804688 1049.5 c 128,-1,5
 320.549804688 1086 320.549804688 1086 365.599609375 1086 c 0,6,7
 428.5 1086 428.5 1086 493.950195312 1028 c 1,8,-1
 451.450195312 861 l 1,9,10
 404.700195312 900 404.700195312 900 360.5 900 c 0,11,12
 320.549804688 900 320.549804688 900 287.400390625 867 c 128,-1,13
 254.25 834 254.25 834 240.650390625 775 c 0,14,15
 216.849609375 672 216.849609375 672 216.849609375 556 c 2,16,-1
 216.849609375 0 l 1,17,-1
 91.900390625 0 l 1,0,-1
EndSplineSet
EndChar

StartChar: s
Encoding: 115 115 86
Width: 714
GlyphClass: 2
Flags: W
LayerCount: 2
Fore
SplineSet
44.2998046875 317 m 1,0,-1
 168.400390625 345 l 1,1,2
 179.450195312 233 179.450195312 233 228.75 178.5 c 128,-1,3
 278.049804688 124 278.049804688 124 359.650390625 124 c 256,4,5
 441.25 124 441.25 124 485.875 171.5 c 128,-1,6
 530.5 219 530.5 219 530.5 292 c 0,7,8
 530.5 355 530.5 355 492.25 390 c 0,9,10
 465.900390625 414 465.900390625 414 364.75 450 c 0,11,12
 218.549804688 503 218.549804688 503 169.25 540 c 128,-1,13
 119.950195312 577 119.950195312 577 92.75 639 c 128,-1,14
 65.5498046875 701 65.5498046875 701 65.5498046875 780 c 0,15,16
 65.5498046875 916 65.5498046875 916 139.5 1001 c 128,-1,17
 213.450195312 1086 213.450195312 1086 344.349609375 1086 c 0,18,19
 426.799804688 1086 426.799804688 1086 489.275390625 1051 c 128,-1,20
 551.75 1016 551.75 1016 584.900390625 957 c 128,-1,21
 618.049804688 898 618.049804688 898 630.799804688 788 c 1,22,-1
 508.400390625 764 l 1,23,24
 491.400390625 938 491.400390625 938 347.75 938 c 0,25,26
 266.150390625 938 266.150390625 938 226.200195312 899.5 c 128,-1,27
 186.25 861 186.25 861 186.25 801 c 0,28,29
 186.25 742 186.25 742 224.5 708 c 0,30,31
 247.450195312 688 247.450195312 688 360.5 644 c 0,32,33
 516.049804688 585 516.049804688 585 561.950195312 550.5 c 128,-1,34
 607.849609375 516 607.849609375 516 633.349609375 456.5 c 128,-1,35
 658.849609375 397 658.849609375 397 658.849609375 315 c 0,36,37
 658.849609375 163 658.849609375 163 576.825195312 69 c 128,-1,38
 494.799804688 -25 494.799804688 -25 352.849609375 -25 c 0,39,40
 86.7998046875 -25 86.7998046875 -25 44.2998046875 317 c 1,0,-1
EndSplineSet
EndChar

StartChar: t
Encoding: 116 116 87
Width: 397
GlyphClass: 2
Flags: W
LayerCount: 2
Fore
SplineSet
371.549804688 161 m 1,0,-1
 388.549804688 2 l 1,1,2
 336.700195312 -14 336.700195312 -14 295.049804688 -14 c 0,3,4
 229.599609375 -14 229.599609375 -14 189.650390625 16.5 c 128,-1,5
 149.700195312 47 149.700195312 47 134.825195312 100 c 128,-1,6
 119.950195312 153 119.950195312 153 119.950195312 311 c 2,7,-1
 119.950195312 922 l 1,8,-1
 28.150390625 922 l 1,9,-1
 28.150390625 1062 l 1,10,-1
 119.950195312 1062 l 1,11,-1
 119.950195312 1325 l 1,12,-1
 244.900390625 1433 l 1,13,-1
 244.900390625 1062 l 1,14,-1
 371.549804688 1062 l 1,15,-1
 371.549804688 922 l 1,16,-1
 244.900390625 922 l 1,17,-1
 244.900390625 301 l 2,18,19
 244.900390625 215 244.900390625 215 255.950195312 190 c 0,20,21
 272.099609375 154 272.099609375 154 316.299804688 154 c 0,22,23
 337.549804688 154 337.549804688 154 371.549804688 161 c 1,0,-1
EndSplineSet
EndChar

StartChar: u
Encoding: 117 117 88
Width: 794
GlyphClass: 2
Flags: W
LayerCount: 2
Fore
SplineSet
577.25 0 m 1,0,-1
 577.25 156 l 1,1,2
 533.900390625 66 533.900390625 66 475.25 21 c 128,-1,3
 416.599609375 -24 416.599609375 -24 342.650390625 -24 c 0,4,5
 255.099609375 -24 255.099609375 -24 193.049804688 31.5 c 128,-1,6
 131 87 131 87 110.174804688 172 c 128,-1,7
 89.349609375 257 89.349609375 257 89.349609375 404 c 2,8,-1
 89.349609375 1062 l 1,9,-1
 214.299804688 1062 l 1,10,-1
 214.299804688 473 l 2,11,12
 214.299804688 309 214.299804688 309 228.325195312 253.5 c 128,-1,13
 242.349609375 198 242.349609375 198 280.174804688 164.5 c 128,-1,14
 318 131 318 131 366.450195312 131 c 0,15,16
 456.549804688 131 456.549804688 131 514.349609375 218 c 0,17,18
 563.650390625 293 563.650390625 293 563.650390625 493 c 2,19,-1
 563.650390625 1062 l 1,20,-1
 689.450195312 1062 l 1,21,-1
 689.450195312 0 l 1,22,-1
 577.25 0 l 1,0,-1
EndSplineSet
EndChar

StartChar: v
Encoding: 118 118 89
Width: 714
GlyphClass: 2
Flags: W
LayerCount: 2
Fore
SplineSet
299.299804688 0 m 1,0,-1
 17.9501953125 1062 l 1,1,-1
 150.549804688 1062 l 1,2,-1
 309.5 426 l 2,3,4
 336.700195312 318 336.700195312 318 357.099609375 212 c 1,5,6
 373.25 296 373.25 296 403 414 c 2,7,-1
 567.900390625 1062 l 1,8,-1
 697.099609375 1062 l 1,9,-1
 416.599609375 0 l 1,10,-1
 299.299804688 0 l 1,0,-1
EndSplineSet
EndChar

StartChar: w
Encoding: 119 119 90
Width: 1030
GlyphClass: 2
Flags: W
LayerCount: 2
Fore
SplineSet
227.900390625 0 m 1,0,-1
 1.7998046875 1062 l 1,1,-1
 131.849609375 1062 l 1,2,-1
 249.150390625 449 l 1,3,-1
 292.5 221 l 1,4,-1
 331.599609375 440 l 1,5,-1
 448.900390625 1062 l 1,6,-1
 578.099609375 1062 l 1,7,-1
 688.599609375 446 l 1,8,-1
 726 243 l 1,9,-1
 768.5 448 l 1,10,-1
 895.150390625 1062 l 1,11,-1
 1017.54980469 1062 l 1,12,-1
 785.5 0 l 1,13,-1
 655.450195312 0 l 1,14,-1
 537.299804688 636 l 1,15,-1
 509.25 817 l 1,16,-1
 359.650390625 0 l 1,17,-1
 227.900390625 0 l 1,0,-1
EndSplineSet
EndChar

StartChar: x
Encoding: 120 120 91
Width: 714
GlyphClass: 2
Flags: W
LayerCount: 2
Fore
SplineSet
10.2998046875 0 m 1,0,-1
 280.599609375 552 l 1,1,-1
 30.7001953125 1062 l 1,2,-1
 187.099609375 1062 l 1,3,-1
 301 813 l 2,4,5
 332.450195312 744 332.450195312 744 352.849609375 694 c 1,6,7
 384.299804688 762 384.299804688 762 408.950195312 811 c 2,8,-1
 533.900390625 1062 l 1,9,-1
 683.5 1062 l 1,10,-1
 427.650390625 562 l 1,11,-1
 703.049804688 0 l 1,12,-1
 549.200195312 0 l 1,13,-1
 397.049804688 330 l 1,14,-1
 357.099609375 419 l 1,15,-1
 162.450195312 0 l 1,16,-1
 10.2998046875 0 l 1,0,-1
EndSplineSet
EndChar

StartChar: y
Encoding: 121 121 92
Width: 714
GlyphClass: 2
Flags: W
LayerCount: 2
Fore
SplineSet
88.5 -409 m 1,0,-1
 74.900390625 -240 l 1,1,2
 116.549804688 -256 116.549804688 -256 146.299804688 -256 c 0,3,4
 186.25 -256 186.25 -256 212.174804688 -237 c 128,-1,5
 238.099609375 -218 238.099609375 -218 255.099609375 -178 c 0,6,7
 261.049804688 -164 261.049804688 -164 304.400390625 -2 c 1,8,-1
 23.0498046875 1062 l 1,9,-1
 158.200195312 1062 l 1,10,-1
 312.900390625 447 l 2,11,12
 341.799804688 332 341.799804688 332 366.450195312 201 c 1,13,14
 387.700195312 325 387.700195312 325 417.450195312 443 c 2,15,-1
 575.549804688 1062 l 1,16,-1
 701.349609375 1062 l 1,17,-1
 420 -18 l 2,18,19
 364.75 -228 364.75 -228 332.875 -298.5 c 128,-1,20
 301 -369 301 -369 260.625 -400 c 128,-1,21
 220.25 -431 220.25 -431 169.25 -431 c 0,22,23
 133.549804688 -431 133.549804688 -431 88.5 -409 c 1,0,-1
EndSplineSet
EndChar

StartChar: z
Encoding: 122 122 93
Width: 714
GlyphClass: 2
Flags: W
LayerCount: 2
Fore
SplineSet
28.150390625 0 m 1,0,-1
 28.150390625 146 l 1,1,-1
 499.900390625 922 l 1,2,3
 419.150390625 916 419.150390625 916 357.950195312 916 c 2,4,-1
 56.2001953125 916 l 1,5,-1
 56.2001953125 1062 l 1,6,-1
 661.400390625 1062 l 1,7,-1
 661.400390625 943 l 1,8,-1
 260.200195312 269 l 1,9,-1
 182.849609375 146 l 1,10,11
 267 155 267 155 340.950195312 155 c 2,12,-1
 683.5 155 l 1,13,-1
 683.5 0 l 1,14,-1
 28.150390625 0 l 1,0,-1
EndSplineSet
EndChar

StartChar: braceleft
Encoding: 123 123 94
Width: 476
GlyphClass: 2
Flags: W
LayerCount: 2
Fore
SplineSet
39.2001953125 612 m 1,0,1
 86.7998046875 613 86.7998046875 613 120.799804688 647.5 c 128,-1,2
 154.799804688 682 154.799804688 682 168.825195312 747.5 c 128,-1,3
 182.849609375 813 182.849609375 813 183.700195312 999 c 0,4,5
 184.549804688 1181 184.549804688 1181 189.650390625 1241 c 0,6,7
 199 1338 199 1338 232.150390625 1402 c 0,8,9
 255.950195312 1449 255.950195312 1449 295.900390625 1470 c 128,-1,10
 335.849609375 1491 335.849609375 1491 403.849609375 1491 c 2,11,-1
 442.950195312 1491 l 1,12,-1
 442.950195312 1334 l 1,13,-1
 420.849609375 1334 l 2,14,15
 349.450195312 1334 349.450195312 1334 325.224609375 1297.5 c 128,-1,16
 301 1261 301 1261 301 1129 c 0,17,18
 301 853 301 853 290.799804688 779 c 0,19,20
 277.200195312 679 277.200195312 679 246.599609375 625.5 c 128,-1,21
 216 572 216 572 155.650390625 530 c 1,22,23
 229.599609375 485 229.599609375 485 265.299804688 392 c 128,-1,24
 301 299 301 299 301 80 c 0,25,26
 301 -141 301 -141 306.950195312 -178 c 0,27,28
 315.450195312 -231 315.450195312 -231 338.400390625 -252.5 c 128,-1,29
 361.349609375 -274 361.349609375 -274 420.849609375 -274 c 2,30,-1
 442.950195312 -274 l 1,31,-1
 442.950195312 -431 l 1,32,-1
 403.849609375 -431 l 2,33,34
 330.75 -431 330.75 -431 294.200195312 -409.5 c 128,-1,35
 257.650390625 -388 257.650390625 -388 234.700195312 -347 c 0,36,37
 203.25 -291 203.25 -291 193.900390625 -216 c 128,-1,38
 184.549804688 -141 184.549804688 -141 183.700195312 61 c 0,39,40
 182.849609375 247 182.849609375 247 168.400390625 313.5 c 128,-1,41
 153.950195312 380 153.950195312 380 120.799804688 413.5 c 128,-1,42
 87.650390625 447 87.650390625 447 39.2001953125 449 c 1,43,-1
 39.2001953125 612 l 1,0,1
EndSplineSet
EndChar

StartChar: bar
Encoding: 124 124 95
Width: 370
GlyphClass: 2
Flags: W
LayerCount: 2
Fore
SplineSet
132.700195312 -431 m 1,0,-1
 132.700195312 1491 l 1,1,-1
 242.349609375 1491 l 1,2,-1
 242.349609375 -431 l 1,3,-1
 132.700195312 -431 l 1,0,-1
EndSplineSet
EndChar

StartChar: braceright
Encoding: 125 125 96
Width: 476
GlyphClass: 2
Flags: W
LayerCount: 2
Fore
SplineSet
435.299804688 612 m 1,0,-1
 435.299804688 449 l 1,1,2
 386.849609375 447 386.849609375 447 353.275390625 413 c 128,-1,3
 319.700195312 379 319.700195312 379 305.674804688 312.5 c 128,-1,4
 291.650390625 246 291.650390625 246 290.799804688 61 c 0,5,6
 289.950195312 -120 289.950195312 -120 284.849609375 -179 c 0,7,8
 275.5 -276 275.5 -276 242.349609375 -341 c 0,9,10
 218.549804688 -389 218.549804688 -389 178.599609375 -410 c 128,-1,11
 138.650390625 -431 138.650390625 -431 70.650390625 -431 c 2,12,-1
 31.5498046875 -431 l 1,13,-1
 31.5498046875 -274 l 1,14,-1
 53.650390625 -274 l 2,15,16
 124.200195312 -274 124.200195312 -274 148.424804688 -237 c 128,-1,17
 172.650390625 -200 172.650390625 -200 172.650390625 -68 c 0,18,19
 172.650390625 209 172.650390625 209 183.700195312 285 c 0,20,21
 198.150390625 384 198.150390625 384 231.724609375 441 c 128,-1,22
 265.299804688 498 265.299804688 498 318.849609375 530 c 1,23,24
 238.950195312 585 238.950195312 585 205.799804688 675 c 128,-1,25
 172.650390625 765 172.650390625 765 172.650390625 980 c 0,26,27
 172.650390625 1201 172.650390625 1201 167.549804688 1239 c 0,28,29
 159.049804688 1292 159.049804688 1292 136.099609375 1313 c 128,-1,30
 113.150390625 1334 113.150390625 1334 53.650390625 1334 c 2,31,-1
 31.5498046875 1334 l 1,32,-1
 31.5498046875 1491 l 1,33,-1
 70.650390625 1491 l 2,34,35
 143.75 1491 143.75 1491 180.299804688 1469.5 c 128,-1,36
 216.849609375 1448 216.849609375 1448 239.799804688 1407 c 0,37,38
 271.25 1351 271.25 1351 280.599609375 1276 c 128,-1,39
 289.950195312 1201 289.950195312 1201 290.799804688 999 c 0,40,41
 291.650390625 814 291.650390625 814 306.099609375 747 c 128,-1,42
 320.549804688 680 320.549804688 680 353.700195312 646.5 c 128,-1,43
 386.849609375 613 386.849609375 613 435.299804688 612 c 1,0,-1
EndSplineSet
EndChar

StartChar: asciitilde
Encoding: 126 126 97
Width: 833
GlyphClass: 2
Flags: W
LayerCount: 2
Fore
SplineSet
61.2998046875 557 m 1,0,-1
 61.2998046875 762 l 1,1,2
 135.25 882 135.25 882 255.099609375 882 c 0,3,4
 294.200195312 882 294.200195312 882 340.525390625 865 c 128,-1,5
 386.849609375 848 386.849609375 848 473.549804688 795 c 0,6,7
 550.900390625 748 550.900390625 748 594.25 748 c 0,8,9
 635.900390625 748 635.900390625 748 675 776 c 0,10,11
 730.25 817 730.25 817 774.450195312 885 c 1,12,-1
 774.450195312 673 l 1,13,14
 687.75 559 687.75 559 581.5 559 c 0,15,16
 540.700195312 559 540.700195312 559 503.299804688 572 c 128,-1,17
 465.900390625 585 465.900390625 585 390.25 634 c 0,18,19
 298.450195312 693 298.450195312 693 243.200195312 693 c 0,20,21
 200.700195312 693 200.700195312 693 160.75 666 c 128,-1,22
 120.799804688 639 120.799804688 639 61.2998046875 557 c 1,0,-1
EndSplineSet
EndChar

StartChar: exclamdown
Encoding: 161 161 98
Width: 475
GlyphClass: 2
Flags: W
LayerCount: 2
Fore
SplineSet
309.5 1062 m 1,0,-1
 309.5 857 l 1,1,-1
 165.849609375 857 l 1,2,-1
 165.849609375 1062 l 1,3,-1
 309.5 1062 l 1,0,-1
277.200195312 697 m 1,4,-1
 315.450195312 -79 l 1,5,-1
 315.450195312 -404 l 1,6,-1
 159.900390625 -404 l 1,7,-1
 159.900390625 -79 l 1,8,-1
 195.599609375 697 l 1,9,-1
 277.200195312 697 l 1,4,-1
EndSplineSet
EndChar

StartChar: cent
Encoding: 162 162 99
Width: 794
GlyphClass: 2
Flags: W
LayerCount: 2
Fore
SplineSet
516.900390625 894 m 1,0,-1
 361.349609375 128 l 1,1,2
 385.150390625 119 385.150390625 119 404.700195312 119 c 0,3,4
 474.400390625 119 474.400390625 119 528.375 189.5 c 128,-1,5
 582.349609375 260 582.349609375 260 594.25 389 c 1,6,-1
 719.200195312 369 l 1,7,8
 695.400390625 179 695.400390625 179 607.849609375 75.5 c 128,-1,9
 520.299804688 -28 520.299804688 -28 405.549804688 -28 c 0,10,11
 372.400390625 -28 372.400390625 -28 334.150390625 -14 c 1,12,-1
 252.549804688 -409 l 1,13,-1
 174.349609375 -377 l 1,14,-1
 254.25 21 l 1,15,16
 174.349609375 76 174.349609375 76 123.349609375 204.5 c 128,-1,17
 72.349609375 333 72.349609375 333 72.349609375 530 c 0,18,19
 72.349609375 715 72.349609375 715 114.849609375 837 c 128,-1,20
 157.349609375 959 157.349609375 959 235.125 1022.5 c 128,-1,21
 312.900390625 1086 312.900390625 1086 404.700195312 1086 c 0,22,23
 428.5 1086 428.5 1086 470.150390625 1079 c 1,24,-1
 549.200195312 1466 l 1,25,-1
 625.700195312 1434 l 1,26,-1
 547.5 1047 l 1,27,28
 675.849609375 970 675.849609375 970 704.75 750 c 1,29,-1
 583.200195312 723 l 1,30,31
 565.349609375 836 565.349609375 836 516.900390625 894 c 1,0,-1
442.099609375 940 m 1,32,33
 420.849609375 943 420.849609375 943 408.099609375 943 c 0,34,35
 319.700195312 943 319.700195312 943 260.200195312 845 c 128,-1,36
 200.700195312 747 200.700195312 747 200.700195312 538 c 0,37,38
 200.700195312 269 200.700195312 269 287.400390625 177 c 1,39,-1
 442.099609375 940 l 1,32,33
EndSplineSet
EndChar

StartChar: sterling
Encoding: 163 163 100
Width: 794
GlyphClass: 2
Flags: W
LayerCount: 2
Fore
SplineSet
274.650390625 809 m 1,0,-1
 493.950195312 809 l 1,1,-1
 493.950195312 661 l 1,2,-1
 295.900390625 661 l 1,3,4
 309.5 617 309.5 617 309.5 575 c 0,5,6
 309.5 486 309.5 486 280.174804688 388.5 c 128,-1,7
 250.849609375 291 250.849609375 291 185.400390625 191 c 1,8,9
 240.650390625 213 240.650390625 213 285.700195312 213 c 0,10,11
 343.5 213 343.5 213 415.75 188 c 0,12,13
 534.75 147 534.75 147 578.099609375 147 c 0,14,15
 629.099609375 147 629.099609375 147 711.549804688 203 c 1,16,-1
 752.349609375 38 l 1,17,18
 647.799804688 -26 647.799804688 -26 584.900390625 -26 c 0,19,20
 556 -26 556 -26 525.400390625 -18 c 0,21,22
 505 -12 505 -12 434.450195312 19 c 0,23,24
 361.349609375 51 361.349609375 51 338.400390625 57 c 0,25,26
 306.950195312 66 306.950195312 66 278.049804688 66 c 0,27,28
 165.849609375 66 165.849609375 66 65.5498046875 -28 c 1,29,-1
 17.099609375 145 l 1,30,31
 90.2001953125 202 90.2001953125 202 133.549804688 302.5 c 128,-1,32
 176.900390625 403 176.900390625 403 176.900390625 537 c 0,33,34
 176.900390625 598 176.900390625 598 165.849609375 661 c 1,35,-1
 29 661 l 1,36,-1
 29 809 l 1,37,-1
 136.099609375 809 l 1,38,39
 100.400390625 986 100.400390625 986 100.400390625 1073 c 0,40,41
 100.400390625 1264 100.400390625 1264 190.924804688 1377.5 c 128,-1,42
 281.450195312 1491 281.450195312 1491 416.599609375 1491 c 0,43,44
 539 1491 539 1491 622.724609375 1394 c 128,-1,45
 706.450195312 1297 706.450195312 1297 726 1112 c 1,46,-1
 601.049804688 1085 l 1,47,48
 590 1208 590 1208 536.875 1275.5 c 128,-1,49
 483.75 1343 483.75 1343 414.900390625 1343 c 0,50,51
 340.099609375 1343 340.099609375 1343 287.400390625 1274 c 128,-1,52
 234.700195312 1205 234.700195312 1205 234.700195312 1098 c 0,53,54
 234.700195312 987 234.700195312 987 274.650390625 809 c 1,0,-1
EndSplineSet
EndChar

StartChar: currency
Encoding: 164 164 101
Width: 794
GlyphClass: 2
Flags: W
LayerCount: 2
Fore
SplineSet
146.299804688 961 m 1,0,-1
 49.400390625 1097 l 1,1,-1
 129.299804688 1216 l 1,2,-1
 226.200195312 1077 l 1,3,4
 262.75 1113 262.75 1113 303.974609375 1131 c 128,-1,5
 345.200195312 1149 345.200195312 1149 391.950195312 1149 c 256,6,7
 438.700195312 1149 438.700195312 1149 479.924804688 1131 c 128,-1,8
 521.150390625 1113 521.150390625 1113 556.849609375 1077 c 1,9,-1
 653.75 1216 l 1,10,-1
 734.5 1097 l 1,11,-1
 637.599609375 961 l 1,12,13
 686.900390625 851 686.900390625 851 686.900390625 726 c 256,14,15
 686.900390625 601 686.900390625 601 637.599609375 490 c 1,16,-1
 734.5 354 l 1,17,-1
 653.75 235 l 1,18,-1
 556.849609375 375 l 1,19,20
 521.150390625 339 521.150390625 339 479.924804688 320.5 c 128,-1,21
 438.700195312 302 438.700195312 302 391.950195312 302 c 256,22,23
 345.200195312 302 345.200195312 302 303.974609375 320.5 c 128,-1,24
 262.75 339 262.75 339 226.200195312 375 c 1,25,-1
 129.299804688 235 l 1,26,-1
 49.400390625 354 l 1,27,-1
 146.299804688 490 l 1,28,29
 97 601 97 601 97 726 c 256,30,31
 97 851 97 851 146.299804688 961 c 1,0,-1
210.049804688 726 m 0,32,33
 210.049804688 614 210.049804688 614 264.450195312 540 c 128,-1,34
 318.849609375 466 318.849609375 466 391.099609375 466 c 256,35,36
 463.349609375 466 463.349609375 466 517.75 540 c 128,-1,37
 572.150390625 614 572.150390625 614 572.150390625 726 c 0,38,39
 572.150390625 837 572.150390625 837 517.75 911 c 128,-1,40
 463.349609375 985 463.349609375 985 391.099609375 985 c 256,41,42
 318.849609375 985 318.849609375 985 264.450195312 911 c 128,-1,43
 210.049804688 837 210.049804688 837 210.049804688 726 c 0,32,33
EndSplineSet
EndChar

StartChar: yen
Encoding: 165 165 102
Width: 794
GlyphClass: 2
Flags: W
LayerCount: 2
Fore
SplineSet
330.75 0 m 1,0,-1
 330.75 325 l 1,1,-1
 40.900390625 325 l 1,2,-1
 40.900390625 464 l 1,3,-1
 330.75 464 l 1,4,-1
 330.75 607 l 1,5,-1
 40.900390625 607 l 1,6,-1
 40.900390625 755 l 1,7,-1
 278.900390625 755 l 1,8,-1
 -4.150390625 1466 l 1,9,-1
 135.25 1466 l 1,10,-1
 337.549804688 950 l 2,11,12
 372.400390625 860 372.400390625 860 390.25 796 c 1,13,14
 405.549804688 848 405.549804688 848 448.049804688 959 c 2,15,-1
 638.450195312 1466 l 1,16,-1
 787.200195312 1466 l 1,17,-1
 505 755 l 1,18,-1
 743 755 l 1,19,-1
 743 607 l 1,20,-1
 455.700195312 607 l 1,21,-1
 455.700195312 464 l 1,22,-1
 743 464 l 1,23,-1
 743 325 l 1,24,-1
 455.700195312 325 l 1,25,-1
 455.700195312 0 l 1,26,-1
 330.75 0 l 1,0,-1
EndSplineSet
EndChar

StartChar: brokenbar
Encoding: 166 166 103
Width: 370
GlyphClass: 2
Flags: W
LayerCount: 2
Fore
SplineSet
242.349609375 1491 m 1,0,-1
 242.349609375 701 l 1,1,-1
 132.700195312 701 l 1,2,-1
 132.700195312 1491 l 1,3,-1
 242.349609375 1491 l 1,0,-1
242.349609375 360 m 1,4,-1
 242.349609375 -431 l 1,5,-1
 132.700195312 -431 l 1,6,-1
 132.700195312 360 l 1,7,-1
 242.349609375 360 l 1,4,-1
EndSplineSet
EndChar

StartChar: section
Encoding: 167 167 104
Width: 794
GlyphClass: 2
Flags: W
LayerCount: 2
Fore
SplineSet
97 -70 m 1,0,-1
 223.650390625 -44 l 1,1,2
 244.049804688 -176 244.049804688 -176 287.400390625 -227.5 c 128,-1,3
 330.75 -279 330.75 -279 401.299804688 -279 c 0,4,5
 468.450195312 -279 468.450195312 -279 510.525390625 -229 c 128,-1,6
 552.599609375 -179 552.599609375 -179 552.599609375 -105 c 0,7,8
 552.599609375 -76 552.599609375 -76 544.525390625 -49 c 128,-1,9
 536.450195312 -22 536.450195312 -22 519.450195312 2 c 0,10,11
 469.299804688 77 469.299804688 77 290.799804688 234 c 0,12,13
 159.900390625 349 159.900390625 349 120.799804688 414 c 0,14,15
 54.5 522 54.5 522 54.5 644 c 0,16,17
 54.5 744 54.5 744 97.4248046875 820.5 c 128,-1,18
 140.349609375 897 140.349609375 897 210.900390625 927 c 1,19,20
 166.700195312 989 166.700195312 989 144.174804688 1051 c 128,-1,21
 121.650390625 1113 121.650390625 1113 121.650390625 1175 c 0,22,23
 121.650390625 1310 121.650390625 1310 194.75 1400.5 c 128,-1,24
 267.849609375 1491 267.849609375 1491 380.900390625 1491 c 0,25,26
 500.75 1491 500.75 1491 576.400390625 1404.5 c 128,-1,27
 652.049804688 1318 652.049804688 1318 667.349609375 1144 c 1,28,-1
 537.299804688 1125 l 1,29,30
 522 1249 522 1249 484.599609375 1296 c 128,-1,31
 447.200195312 1343 447.200195312 1343 386 1343 c 0,32,33
 326.5 1343 326.5 1343 285.275390625 1295.5 c 128,-1,34
 244.049804688 1248 244.049804688 1248 244.049804688 1182 c 0,35,36
 244.049804688 1154 244.049804688 1154 253.825195312 1125.5 c 128,-1,37
 263.599609375 1097 263.599609375 1097 282.299804688 1068 c 0,38,39
 319.700195312 1010 319.700195312 1010 482.900390625 868 c 0,40,41
 623.150390625 744 623.150390625 744 664.799804688 680 c 0,42,43
 726.849609375 584 726.849609375 584 726.849609375 464 c 0,44,45
 726.849609375 356 726.849609375 356 680.099609375 278 c 0,46,47
 649.5 227 649.5 227 567.900390625 178 c 1,48,49
 624 117 624 117 651.625 47 c 128,-1,50
 679.25 -23 679.25 -23 679.25 -103 c 0,51,52
 679.25 -246 679.25 -246 600.625 -338.5 c 128,-1,53
 522 -431 522 -431 398.75 -431 c 0,54,55
 274.650390625 -431 274.650390625 -431 194.325195312 -338.5 c 128,-1,56
 114 -246 114 -246 97 -70 c 1,0,-1
505 244 m 1,57,58
 555.150390625 281 555.150390625 281 581.5 331 c 128,-1,59
 607.849609375 381 607.849609375 381 607.849609375 431 c 0,60,61
 607.849609375 489 607.849609375 489 571.724609375 551 c 128,-1,62
 535.599609375 613 535.599609375 613 414.900390625 720 c 0,63,64
 318.849609375 804 318.849609375 804 272.099609375 858 c 1,65,66
 214.299804688 810 214.299804688 810 191.349609375 764 c 128,-1,67
 168.400390625 718 168.400390625 718 168.400390625 664 c 0,68,69
 168.400390625 601 168.400390625 601 200.700195312 543.5 c 128,-1,70
 233 486 233 486 344.349609375 392 c 0,71,72
 440.400390625 311 440.400390625 311 505 244 c 1,57,58
EndSplineSet
EndChar

StartChar: dieresis
Encoding: 168 168 105
Width: 475
GlyphClass: 2
Flags: W
LayerCount: 2
Fore
SplineSet
42.599609375 1270 m 1,0,-1
 42.599609375 1475 l 1,1,-1
 173.5 1475 l 1,2,-1
 173.5 1270 l 1,3,-1
 42.599609375 1270 l 1,0,-1
302.700195312 1270 m 1,4,-1
 302.700195312 1475 l 1,5,-1
 433.599609375 1475 l 1,6,-1
 433.599609375 1270 l 1,7,-1
 302.700195312 1270 l 1,4,-1
EndSplineSet
EndChar

StartChar: copyright
Encoding: 169 169 106
Width: 1051
GlyphClass: 2
Flags: W
LayerCount: 2
Fore
SplineSet
529.650390625 1491 m 0,0,1
 753.200195312 1491 753.200195312 1491 904.5 1265 c 128,-1,2
 1055.79980469 1039 1055.79980469 1039 1055.79980469 736 c 0,3,4
 1055.79980469 525 1055.79980469 525 981 348 c 128,-1,5
 906.200195312 171 906.200195312 171 785.075195312 76.5 c 128,-1,6
 663.950195312 -18 663.950195312 -18 529.650390625 -18 c 0,7,8
 306.099609375 -18 306.099609375 -18 154.799804688 207.5 c 128,-1,9
 3.5 433 3.5 433 3.5 736 c 0,10,11
 3.5 948 3.5 948 78.2998046875 1125 c 128,-1,12
 153.099609375 1302 153.099609375 1302 274.224609375 1396.5 c 128,-1,13
 395.349609375 1491 395.349609375 1491 529.650390625 1491 c 0,0,1
529.650390625 1366 m 0,14,15
 341.799804688 1366 341.799804688 1366 211.75 1170 c 0,16,17
 91.0498046875 988 91.0498046875 988 91.0498046875 736 c 0,18,19
 91.0498046875 465 91.0498046875 465 228.75 279 c 0,20,21
 356.25 107 356.25 107 529.650390625 107 c 0,22,23
 716.650390625 107 716.650390625 107 847.549804688 303 c 0,24,25
 968.25 484 968.25 484 968.25 736 c 0,26,27
 968.25 1007 968.25 1007 830.549804688 1193 c 0,28,29
 703.049804688 1366 703.049804688 1366 529.650390625 1366 c 0,14,15
698.799804688 614 m 1,30,-1
 783.799804688 578 l 1,31,32
 762.549804688 449 762.549804688 449 693.275390625 376.5 c 128,-1,33
 624 304 624 304 531.349609375 304 c 0,34,35
 412.349609375 304 412.349609375 304 333.724609375 415 c 128,-1,36
 255.099609375 526 255.099609375 526 255.099609375 734 c 256,37,38
 255.099609375 942 255.099609375 942 332.875 1051 c 128,-1,39
 410.650390625 1160 410.650390625 1160 537.299804688 1160 c 0,40,41
 624.849609375 1160 624.849609375 1160 687.75 1098 c 128,-1,42
 750.650390625 1036 750.650390625 1036 773.599609375 924 c 1,43,-1
 690.299804688 895 l 1,44,45
 669.049804688 971 669.049804688 971 627.825195312 1009.5 c 128,-1,46
 586.599609375 1048 586.599609375 1048 533.900390625 1048 c 0,47,48
 454.849609375 1048 454.849609375 1048 402.150390625 967 c 128,-1,49
 349.450195312 886 349.450195312 886 349.450195312 727 c 0,50,51
 349.450195312 575 349.450195312 575 399.599609375 498 c 128,-1,52
 449.75 421 449.75 421 524.549804688 421 c 0,53,54
 585.75 421 585.75 421 634.200195312 471.5 c 128,-1,55
 682.650390625 522 682.650390625 522 698.799804688 614 c 1,30,-1
EndSplineSet
EndChar

StartChar: ordfeminine
Encoding: 170 170 107
Width: 527
GlyphClass: 2
Flags: W
LayerCount: 2
Fore
SplineSet
385.150390625 853 m 1,0,1
 300.150390625 746 300.150390625 746 206.650390625 746 c 0,2,3
 132.700195312 746 132.700195312 746 84.25 805 c 128,-1,4
 35.7998046875 864 35.7998046875 864 35.7998046875 964 c 0,5,6
 35.7998046875 1048 35.7998046875 1048 68.9501953125 1098 c 128,-1,7
 102.099609375 1148 102.099609375 1148 161.599609375 1167 c 1,8,-1
 308.650390625 1201 l 2,9,10
 359.650390625 1215 359.650390625 1215 375.799804688 1221 c 1,11,12
 374.950195312 1306 374.950195312 1306 357.099609375 1332 c 0,13,14
 328.200195312 1374 328.200195312 1374 267 1374 c 0,15,16
 163.299804688 1374 163.299804688 1374 150.549804688 1249 c 1,17,-1
 54.5 1283 l 1,18,19
 63.849609375 1378 63.849609375 1378 119.099609375 1434.5 c 128,-1,20
 174.349609375 1491 174.349609375 1491 268.700195312 1491 c 0,21,22
 376.650390625 1491 376.650390625 1491 426.799804688 1433 c 0,23,24
 476.099609375 1374 476.099609375 1374 476.099609375 1249 c 2,25,-1
 476.099609375 1009 l 1,26,-1
 475.25 950 l 2,27,28
 475.25 815 475.25 815 503.299804688 764 c 1,29,-1
 400.450195312 764 l 1,30,31
 386.849609375 804 386.849609375 804 385.150390625 853 c 1,0,1
374.099609375 1104 m 1,32,33
 337.549804688 1090 337.549804688 1090 240.650390625 1068 c 0,34,35
 180.299804688 1055 180.299804688 1055 162.450195312 1034 c 0,36,37
 139.5 1006 139.5 1006 139.5 964 c 0,38,39
 139.5 921 139.5 921 164.575195312 893.5 c 128,-1,40
 189.650390625 866 189.650390625 866 228.75 866 c 0,41,42
 277.200195312 866 277.200195312 866 315.450195312 902 c 128,-1,43
 353.700195312 938 353.700195312 938 368.150390625 997 c 0,44,45
 374.099609375 1020 374.099609375 1020 374.099609375 1104 c 1,32,33
EndSplineSet
EndChar

StartChar: guillemotleft
Encoding: 171 171 108
Width: 794
GlyphClass: 2
Flags: W
LayerCount: 2
Fore
SplineSet
234.700195312 528 m 1,0,-1
 415.75 72 l 1,1,-1
 312.900390625 72 l 1,2,-1
 91.0498046875 528 l 1,3,-1
 312.900390625 984 l 1,4,-1
 416.599609375 984 l 1,5,-1
 234.700195312 528 l 1,0,-1
504.150390625 528 m 1,6,-1
 687.75 72 l 1,7,-1
 582.349609375 72 l 1,8,-1
 363.900390625 528 l 1,9,-1
 582.349609375 984 l 1,10,-1
 687.75 984 l 1,11,-1
 504.150390625 528 l 1,6,-1
EndSplineSet
EndChar

StartChar: logicalnot
Encoding: 172 172 109
Width: 833
GlyphClass: 2
Flags: W
LayerCount: 2
Fore
SplineSet
753.200195312 424 m 1,0,-1
 634.200195312 424 l 1,1,-1
 634.200195312 862 l 1,2,-1
 78.2998046875 862 l 1,3,-1
 78.2998046875 1030 l 1,4,-1
 753.200195312 1030 l 1,5,-1
 753.200195312 424 l 1,0,-1
EndSplineSet
EndChar

StartChar: registered
Encoding: 174 174 110
Width: 1051
GlyphClass: 2
Flags: W
LayerCount: 2
Fore
SplineSet
529.650390625 1491 m 0,0,1
 753.200195312 1491 753.200195312 1491 904.5 1265 c 128,-1,2
 1055.79980469 1039 1055.79980469 1039 1055.79980469 736 c 0,3,4
 1055.79980469 525 1055.79980469 525 981 348 c 128,-1,5
 906.200195312 171 906.200195312 171 785.075195312 76.5 c 128,-1,6
 663.950195312 -18 663.950195312 -18 529.650390625 -18 c 0,7,8
 306.099609375 -18 306.099609375 -18 154.799804688 207.5 c 128,-1,9
 3.5 433 3.5 433 3.5 736 c 0,10,11
 3.5 948 3.5 948 78.2998046875 1125 c 128,-1,12
 153.099609375 1302 153.099609375 1302 274.224609375 1396.5 c 128,-1,13
 395.349609375 1491 395.349609375 1491 529.650390625 1491 c 0,0,1
529.650390625 1366 m 0,14,15
 341.799804688 1366 341.799804688 1366 211.75 1170 c 0,16,17
 91.0498046875 988 91.0498046875 988 91.0498046875 736 c 0,18,19
 91.0498046875 465 91.0498046875 465 228.75 279 c 0,20,21
 356.25 107 356.25 107 529.650390625 107 c 0,22,23
 716.650390625 107 716.650390625 107 847.549804688 303 c 0,24,25
 968.25 484 968.25 484 968.25 736 c 0,26,27
 968.25 1007 968.25 1007 830.549804688 1193 c 0,28,29
 703.049804688 1366 703.049804688 1366 529.650390625 1366 c 0,14,15
298.450195312 319 m 1,30,-1
 298.450195312 1131 l 1,31,-1
 493.950195312 1131 l 2,32,33
 594.25 1131 594.25 1131 636.75 1109 c 128,-1,34
 679.25 1087 679.25 1087 707.299804688 1033 c 128,-1,35
 735.349609375 979 735.349609375 979 735.349609375 911 c 0,36,37
 735.349609375 817 735.349609375 817 689.875 753.5 c 128,-1,38
 644.400390625 690 644.400390625 690 573.849609375 682 c 1,39,40
 605.299804688 663 605.299804688 663 624 636 c 0,41,42
 659.700195312 584 659.700195312 584 705.599609375 478 c 2,43,-1
 773.599609375 319 l 1,44,-1
 663.099609375 319 l 1,45,-1
 612.099609375 447 l 2,46,47
 554.299804688 594 554.299804688 594 519.450195312 634 c 0,48,49
 493.099609375 664 493.099609375 664 444.650390625 664 c 2,50,-1
 390.25 664 l 1,51,-1
 390.25 319 l 1,52,-1
 298.450195312 319 l 1,30,-1
390.25 776 m 1,53,-1
 501.599609375 776 l 2,54,55
 576.400390625 776 576.400390625 776 607.424804688 807.5 c 128,-1,56
 638.450195312 839 638.450195312 839 638.450195312 900 c 0,57,58
 638.450195312 939 638.450195312 939 622.724609375 968 c 128,-1,59
 607 997 607 997 582.349609375 1009 c 128,-1,60
 557.700195312 1021 557.700195312 1021 493.950195312 1021 c 2,61,-1
 390.25 1021 l 1,62,-1
 390.25 776 l 1,53,-1
EndSplineSet
EndChar

StartChar: overscore
Encoding: 175 175 111
Width: 870
GlyphClass: 2
Flags: W
LayerCount: 2
Fore
SplineSet
-10.099609375 1722 m 1,0,-1
 880.700195312 1722 l 1,1,-1
 880.700195312 1619 l 1,2,-1
 -10.099609375 1619 l 1,3,-1
 -10.099609375 1722 l 1,0,-1
EndSplineSet
EndChar

StartChar: degree
Encoding: 176 176 112
Width: 696
GlyphClass: 2
Flags: W
LayerCount: 2
Fore
SplineSet
108.900390625 1214 m 0,0,1
 108.900390625 1329 108.900390625 1329 178.174804688 1410 c 128,-1,2
 247.450195312 1491 247.450195312 1491 344.349609375 1491 c 0,3,4
 442.950195312 1491 442.950195312 1491 511.799804688 1410 c 128,-1,5
 580.650390625 1329 580.650390625 1329 580.650390625 1214 c 256,6,7
 580.650390625 1099 580.650390625 1099 511.375 1017.5 c 128,-1,8
 442.099609375 936 442.099609375 936 344.349609375 936 c 0,9,10
 247.450195312 936 247.450195312 936 178.174804688 1017 c 128,-1,11
 108.900390625 1098 108.900390625 1098 108.900390625 1214 c 0,0,1
201.549804688 1214 m 256,12,13
 201.549804688 1144 201.549804688 1144 243.625 1094.5 c 128,-1,14
 285.700195312 1045 285.700195312 1045 345.200195312 1045 c 0,15,16
 403.849609375 1045 403.849609375 1045 445.924804688 1094.5 c 128,-1,17
 488 1144 488 1144 488 1214 c 256,18,19
 488 1284 488 1284 445.924804688 1333.5 c 128,-1,20
 403.849609375 1383 403.849609375 1383 345.200195312 1383 c 0,21,22
 285.700195312 1383 285.700195312 1383 243.625 1333.5 c 128,-1,23
 201.549804688 1284 201.549804688 1284 201.549804688 1214 c 256,12,13
EndSplineSet
EndChar

StartChar: plusminus
Encoding: 177 177 113
Width: 955
GlyphClass: 2
Flags: W
LayerCount: 2
Fore
SplineSet
405.549804688 260 m 1,0,-1
 405.549804688 663 l 1,1,-1
 66.400390625 663 l 1,2,-1
 66.400390625 830 l 1,3,-1
 405.549804688 830 l 1,4,-1
 405.549804688 1229 l 1,5,-1
 550.049804688 1229 l 1,6,-1
 550.049804688 830 l 1,7,-1
 889.200195312 830 l 1,8,-1
 889.200195312 663 l 1,9,-1
 550.049804688 663 l 1,10,-1
 550.049804688 260 l 1,11,-1
 405.549804688 260 l 1,0,-1
889.200195312 0 m 1,12,-1
 66.400390625 0 l 1,13,-1
 66.400390625 168 l 1,14,-1
 889.200195312 168 l 1,15,-1
 889.200195312 0 l 1,12,-1
EndSplineSet
EndChar

StartChar: twosuperior
Encoding: 178 178 114
Width: 475
GlyphClass: 2
Flags: W
LayerCount: 2
Fore
SplineSet
17.099609375 733 m 1,0,1
 27.2998046875 864 27.2998046875 864 197.299804688 1041 c 0,2,3
 299.299804688 1147 299.299804688 1147 319.275390625 1182 c 128,-1,4
 339.25 1217 339.25 1217 339.25 1255 c 0,5,6
 339.25 1307 339.25 1307 313.75 1336.5 c 128,-1,7
 288.25 1366 288.25 1366 243.200195312 1366 c 256,8,9
 198.150390625 1366 198.150390625 1366 175.200195312 1343 c 128,-1,10
 152.25 1320 152.25 1320 136.950195312 1252 c 1,11,-1
 31.5498046875 1268 l 1,12,13
 52.7998046875 1383 52.7998046875 1383 103.799804688 1433.5 c 128,-1,14
 154.799804688 1484 154.799804688 1484 244.049804688 1484 c 0,15,16
 344.349609375 1484 344.349609375 1484 396.200195312 1428.5 c 128,-1,17
 448.049804688 1373 448.049804688 1373 448.049804688 1279 c 0,18,19
 448.049804688 1195 448.049804688 1195 405.549804688 1120 c 0,20,21
 374.099609375 1065 374.099609375 1065 264.450195312 951 c 0,22,23
 206.650390625 890 206.650390625 890 182 854 c 1,24,-1
 451.450195312 854 l 1,25,-1
 451.450195312 733 l 1,26,-1
 17.099609375 733 l 1,0,1
EndSplineSet
EndChar

StartChar: threesuperior
Encoding: 179 179 115
Width: 475
GlyphClass: 2
Flags: W
LayerCount: 2
Fore
SplineSet
22.2001953125 929 m 1,0,-1
 124.200195312 944 l 1,1,2
 138.650390625 882 138.650390625 882 165 857 c 128,-1,3
 191.349609375 832 191.349609375 832 231.299804688 832 c 0,4,5
 278.049804688 832 278.049804688 832 309.075195312 869.5 c 128,-1,6
 340.099609375 907 340.099609375 907 340.099609375 965 c 0,7,8
 340.099609375 1018 340.099609375 1018 313.75 1046.5 c 128,-1,9
 287.400390625 1075 287.400390625 1075 230.450195312 1075 c 1,10,-1
 207.5 1073 l 1,11,-1
 192.200195312 1072 l 1,12,-1
 207.5 1182 l 1,13,14
 259.349609375 1181 259.349609375 1181 287.825195312 1209 c 128,-1,15
 316.299804688 1237 316.299804688 1237 316.299804688 1284 c 0,16,17
 316.299804688 1324 316.299804688 1324 293.775390625 1348.5 c 128,-1,18
 271.25 1373 271.25 1373 233 1373 c 256,19,20
 194.75 1373 194.75 1373 172.224609375 1351.5 c 128,-1,21
 149.700195312 1330 149.700195312 1330 133.549804688 1271 c 1,22,-1
 34.099609375 1294 l 1,23,24
 63.849609375 1403 63.849609375 1403 107.625 1443.5 c 128,-1,25
 151.400390625 1484 151.400390625 1484 234.700195312 1484 c 0,26,27
 328.200195312 1484 328.200195312 1484 376.650390625 1433.5 c 128,-1,28
 425.099609375 1383 425.099609375 1383 425.099609375 1298 c 0,29,30
 425.099609375 1239 425.099609375 1239 399.599609375 1197 c 128,-1,31
 374.099609375 1155 374.099609375 1155 329.049804688 1137 c 1,32,33
 449.75 1094 449.75 1094 449.75 946 c 0,34,35
 449.75 847 449.75 847 391.950195312 781 c 128,-1,36
 334.150390625 715 334.150390625 715 239.799804688 715 c 0,37,38
 52.7998046875 715 52.7998046875 715 22.2001953125 929 c 1,0,-1
EndSplineSet
EndChar

StartChar: acute
Encoding: 180 180 116
Width: 475
GlyphClass: 2
Flags: W
LayerCount: 2
Fore
SplineSet
154.799804688 1194 m 1,0,-1
 247.450195312 1474 l 1,1,-1
 411.5 1474 l 1,2,-1
 258.5 1194 l 1,3,-1
 154.799804688 1194 l 1,0,-1
EndSplineSet
EndChar

StartChar: mu1
Encoding: 181 181 117
Width: 1003
GlyphClass: 2
Flags: W
LayerCount: 2
Fore
SplineSet
865.400390625 1062 m 1,0,-1
 865.400390625 0 l 1,1,-1
 728.549804688 0 l 1,2,-1
 728.549804688 126 l 1,3,4
 684.349609375 46 684.349609375 46 641 16 c 0,5,6
 581.5 -25 581.5 -25 502.450195312 -25 c 0,7,8
 431.900390625 -25 431.900390625 -25 377.5 8 c 0,9,10
 336.700195312 33 336.700195312 33 287.400390625 107 c 1,11,-1
 287.400390625 -407 l 1,12,-1
 136.099609375 -407 l 1,13,-1
 136.099609375 1062 l 1,14,-1
 287.400390625 1062 l 1,15,-1
 287.400390625 612 l 2,16,17
 287.400390625 367 287.400390625 367 309.5 294.5 c 128,-1,18
 331.599609375 222 331.599609375 222 381.325195312 180 c 128,-1,19
 431.049804688 138 431.049804688 138 495.650390625 138 c 0,20,21
 563.650390625 138 563.650390625 138 617.200195312 182 c 128,-1,22
 670.75 226 670.75 226 692.849609375 295.5 c 128,-1,23
 714.950195312 365 714.950195312 365 714.950195312 609 c 2,24,-1
 714.950195312 1062 l 1,25,-1
 865.400390625 1062 l 1,0,-1
EndSplineSet
EndChar

StartChar: paragraph
Encoding: 182 182 118
Width: 765
GlyphClass: 2
Flags: W
LayerCount: 2
Fore
SplineSet
286.549804688 -407 m 1,0,-1
 286.549804688 638 l 1,1,2
 160.75 647 160.75 647 82.5498046875 755 c 128,-1,3
 4.349609375 863 4.349609375 863 4.349609375 1044 c 0,4,5
 4.349609375 1177 4.349609375 1177 45.150390625 1274 c 128,-1,6
 85.9501953125 1371 85.9501953125 1371 157.775390625 1418.5 c 128,-1,7
 229.599609375 1466 229.599609375 1466 334.150390625 1466 c 2,8,-1
 774.450195312 1466 l 1,9,-1
 774.450195312 1293 l 1,10,-1
 675 1293 l 1,11,-1
 675 -407 l 1,12,-1
 556 -407 l 1,13,-1
 556 1293 l 1,14,-1
 401.299804688 1293 l 1,15,-1
 401.299804688 -407 l 1,16,-1
 286.549804688 -407 l 1,0,-1
EndSplineSet
EndChar

StartChar: middot
Encoding: 183 183 119
Width: 475
GlyphClass: 2
Flags: W
LayerCount: 2
Fore
SplineSet
346.900390625 637 m 1,0,-1
 346.900390625 842 l 1,1,-1
 489.700195312 842 l 1,2,-1
 489.700195312 637 l 1,3,-1
 346.900390625 637 l 1,0,-1
EndSplineSet
EndChar

StartChar: cedilla
Encoding: 184 184 120
Width: 475
GlyphClass: 2
Flags: W
LayerCount: 2
Fore
SplineSet
150.549804688 -154 m 1,0,-1
 187.099609375 23 l 1,1,-1
 280.599609375 23 l 1,2,-1
 256.799804688 -84 l 1,3,4
 314.599609375 -94 314.599609375 -94 345.625 -135 c 128,-1,5
 376.650390625 -176 376.650390625 -176 376.650390625 -234 c 0,6,7
 376.650390625 -312 376.650390625 -312 323.525390625 -366.5 c 128,-1,8
 270.400390625 -421 270.400390625 -421 178.599609375 -421 c 0,9,10
 118.25 -421 118.25 -421 74.900390625 -409 c 1,11,-1
 82.5498046875 -292 l 1,12,13
 127.599609375 -296 127.599609375 -296 151.400390625 -296 c 0,14,15
 208.349609375 -296 208.349609375 -296 234.275390625 -275 c 128,-1,16
 260.200195312 -254 260.200195312 -254 260.200195312 -221 c 0,17,18
 260.200195312 -190 260.200195312 -190 236.825195312 -172.5 c 128,-1,19
 213.450195312 -155 213.450195312 -155 150.549804688 -154 c 1,0,-1
EndSplineSet
EndChar

StartChar: onesuperior
Encoding: 185 185 121
Width: 475
GlyphClass: 2
Flags: W
LayerCount: 2
Fore
SplineSet
229.599609375 733 m 1,0,-1
 229.599609375 1287 l 1,1,2
 158.200195312 1206 158.200195312 1206 73.2001953125 1174 c 1,3,-1
 73.2001953125 1297 l 1,4,5
 116.549804688 1317 116.549804688 1317 169.674804688 1370.5 c 128,-1,6
 222.799804688 1424 222.799804688 1424 255.099609375 1484 c 1,7,-1
 330.75 1484 l 1,8,-1
 330.75 733 l 1,9,-1
 229.599609375 733 l 1,0,-1
EndSplineSet
EndChar

StartChar: ordmasculine
Encoding: 186 186 122
Width: 520
GlyphClass: 2
Flags: W
LayerCount: 2
Fore
SplineSet
260.200195312 1491 m 0,0,1
 357.950195312 1491 357.950195312 1491 418.299804688 1401 c 0,2,3
 488.849609375 1295 488.849609375 1295 488.849609375 1115 c 0,4,5
 488.849609375 936 488.849609375 936 418.299804688 829 c 0,6,7
 358.799804688 740 358.799804688 740 260.200195312 740 c 0,8,9
 162.450195312 740 162.450195312 740 97 836 c 128,-1,10
 31.5498046875 932 31.5498046875 932 31.5498046875 1111 c 0,11,12
 31.5498046875 1295 31.5498046875 1295 102.099609375 1401 c 0,13,14
 161.599609375 1491 161.599609375 1491 260.200195312 1491 c 0,0,1
260.200195312 1358 m 0,15,16
 204.099609375 1358 204.099609375 1358 169.674804688 1301 c 128,-1,17
 135.25 1244 135.25 1244 135.25 1114 c 0,18,19
 135.25 988 135.25 988 170.525390625 930 c 128,-1,20
 205.799804688 872 205.799804688 872 261.049804688 872 c 0,21,22
 315.450195312 872 315.450195312 872 350.724609375 930 c 128,-1,23
 386 988 386 988 386 1116 c 0,24,25
 386 1242 386 1242 350.299804688 1300 c 128,-1,26
 314.599609375 1358 314.599609375 1358 260.200195312 1358 c 0,15,16
EndSplineSet
EndChar

StartChar: guillemotright
Encoding: 187 187 123
Width: 794
GlyphClass: 2
Flags: W
LayerCount: 2
Fore
SplineSet
549.200195312 528 m 1,0,-1
 367.299804688 984 l 1,1,-1
 470.150390625 984 l 1,2,-1
 692 528 l 1,3,-1
 470.150390625 72 l 1,4,-1
 368.150390625 72 l 1,5,-1
 549.200195312 528 l 1,0,-1
278.900390625 528 m 1,6,-1
 95.2998046875 984 l 1,7,-1
 200.700195312 984 l 1,8,-1
 419.150390625 528 l 1,9,-1
 200.700195312 72 l 1,10,-1
 95.2998046875 72 l 1,11,-1
 278.900390625 528 l 1,6,-1
EndSplineSet
EndChar

StartChar: questiondown
Encoding: 191 191 127
Width: 872
GlyphClass: 2
Flags: W
LayerCount: 2
Fore
SplineSet
513.5 1062 m 1,0,-1
 513.5 857 l 1,1,-1
 370.700195312 857 l 1,2,-1
 370.700195312 1062 l 1,3,-1
 513.5 1062 l 1,0,-1
505.849609375 701 m 1,4,-1
 506.700195312 650 l 2,5,6
 506.700195312 505 506.700195312 505 466.75 408 c 0,7,8
 437.849609375 337 437.849609375 337 344.349609375 219 c 0,9,10
 280.599609375 139 280.599609375 139 261.049804688 90 c 128,-1,11
 241.5 41 241.5 41 241.5 -17 c 0,12,13
 241.5 -128 241.5 -128 301 -204.5 c 128,-1,14
 360.5 -281 360.5 -281 438.700195312 -281 c 256,15,16
 516.900390625 -281 516.900390625 -281 571.724609375 -210 c 128,-1,17
 626.549804688 -139 626.549804688 -139 643.549804688 15 c 1,18,-1
 771.900390625 -6 l 1,19,20
 754.049804688 -217 754.049804688 -217 665.650390625 -323 c 128,-1,21
 577.25 -429 577.25 -429 439.549804688 -429 c 0,22,23
 300.150390625 -429 300.150390625 -429 206.650390625 -317 c 128,-1,24
 113.150390625 -205 113.150390625 -205 113.150390625 -30 c 0,25,26
 113.150390625 67 113.150390625 67 143.75 147 c 128,-1,27
 174.349609375 227 174.349609375 227 267 344 c 0,28,29
 344.349609375 443 344.349609375 443 363.900390625 501 c 128,-1,30
 383.450195312 559 383.450195312 559 385.150390625 701 c 1,31,-1
 505.849609375 701 l 1,4,-1
EndSplineSet
EndChar

StartChar: AE
Encoding: 198 198 134
Width: 1427
GlyphClass: 2
Flags: W
LayerCount: 2
Fore
SplineSet
0.9501953125 0 m 1,0,-1
 492.25 1466 l 1,1,-1
 1331.20019531 1466 l 1,2,-1
 1331.20019531 1293 l 1,3,-1
 816.950195312 1293 l 1,4,-1
 816.950195312 842 l 1,5,-1
 1294.65039062 842 l 1,6,-1
 1294.65039062 670 l 1,7,-1
 816.950195312 670 l 1,8,-1
 816.950195312 173 l 1,9,-1
 1349.90039062 173 l 1,10,-1
 1349.90039062 0 l 1,11,-1
 681.799804688 0 l 1,12,-1
 681.799804688 423 l 1,13,-1
 286.549804688 423 l 1,14,-1
 147.150390625 0 l 1,15,-1
 0.9501953125 0 l 1,0,-1
344.349609375 595 m 1,16,-1
 681.799804688 595 l 1,17,-1
 681.799804688 1293 l 1,18,-1
 579.799804688 1293 l 1,19,-1
 344.349609375 595 l 1,16,-1
EndSplineSet
EndChar

StartChar: Eth
Encoding: 208 208 144
Width: 1030
GlyphClass: 2
Flags: W
LayerCount: 2
Fore
SplineSet
107.200195312 0 m 1,0,-1
 107.200195312 667 l 1,1,-1
 -5 667 l 1,2,-1
 -5 799 l 1,3,-1
 107.200195312 799 l 1,4,-1
 107.200195312 1466 l 1,5,-1
 459.950195312 1466 l 2,6,7
 591.700195312 1466 591.700195312 1466 658.849609375 1439 c 0,8,9
 748.099609375 1404 748.099609375 1404 813.549804688 1311 c 128,-1,10
 879 1218 879 1218 915.549804688 1076.5 c 128,-1,11
 952.099609375 935 952.099609375 935 952.099609375 740 c 0,12,13
 952.099609375 529 952.099609375 529 906.625 371 c 128,-1,14
 861.150390625 213 861.150390625 213 794.424804688 133.5 c 128,-1,15
 727.700195312 54 727.700195312 54 633.349609375 19 c 0,16,17
 580.650390625 0 580.650390625 0 476.099609375 0 c 2,18,-1
 107.200195312 0 l 1,0,-1
242.349609375 173 m 1,19,-1
 459.950195312 173 l 2,20,21
 591.700195312 173 591.700195312 173 659.700195312 223.5 c 128,-1,22
 727.700195312 274 727.700195312 274 763.400390625 385 c 0,23,24
 812.700195312 535 812.700195312 535 812.700195312 741 c 0,25,26
 812.700195312 968 812.700195312 968 760.849609375 1095 c 128,-1,27
 709 1222 709 1222 628.25 1265 c 0,28,29
 573.849609375 1293 573.849609375 1293 456.549804688 1293 c 2,30,-1
 242.349609375 1293 l 1,31,-1
 242.349609375 799 l 1,32,-1
 524.549804688 799 l 1,33,-1
 524.549804688 667 l 1,34,-1
 242.349609375 667 l 1,35,-1
 242.349609375 173 l 1,19,-1
EndSplineSet
EndChar

StartChar: multiply
Encoding: 215 215 151
Width: 833
GlyphClass: 2
Flags: W
LayerCount: 2
Fore
SplineSet
110.599609375 409 m 1,0,-1
 330.75 724 l 1,1,-1
 111.450195312 1038 l 1,2,-1
 196.450195312 1160 l 1,3,-1
 415.75 846 l 1,4,-1
 633.349609375 1159 l 1,5,-1
 717.5 1038 l 1,6,-1
 499.049804688 725 l 1,7,-1
 718.349609375 411 l 1,8,-1
 633.349609375 289 l 1,9,-1
 414.049804688 603 l 1,10,-1
 194.75 288 l 1,11,-1
 110.599609375 409 l 1,0,-1
EndSplineSet
EndChar

StartChar: Oslash
Encoding: 216 216 152
Width: 1111
GlyphClass: 2
Flags: W
LayerCount: 2
Fore
SplineSet
874.75 1332 m 1,0,-1
 991.200195312 1520 l 1,1,-1
 1060.90039062 1436 l 1,2,-1
 937.650390625 1238 l 1,3,4
 1000.54980469 1104 1000.54980469 1104 1023.92480469 994 c 128,-1,5
 1047.29980469 884 1047.29980469 884 1047.29980469 734 c 0,6,7
 1047.29980469 494 1047.29980469 494 981 322.5 c 128,-1,8
 914.700195312 151 914.700195312 151 802.924804688 63 c 128,-1,9
 691.150390625 -25 691.150390625 -25 556.849609375 -25 c 0,10,11
 470.150390625 -25 470.150390625 -25 399.174804688 8.5 c 128,-1,12
 328.200195312 42 328.200195312 42 247.450195312 129 c 1,13,-1
 130.150390625 -59 l 1,14,-1
 61.2998046875 25 l 1,15,-1
 183.700195312 222 l 1,16,17
 114.849609375 375 114.849609375 375 92.3251953125 479 c 128,-1,18
 69.7998046875 583 69.7998046875 583 69.7998046875 727 c 0,19,20
 69.7998046875 970 69.7998046875 970 136.525390625 1144 c 128,-1,21
 203.25 1318 203.25 1318 312.900390625 1404.5 c 128,-1,22
 422.549804688 1491 422.549804688 1491 561.099609375 1491 c 0,23,24
 648.650390625 1491 648.650390625 1491 720.474609375 1456.5 c 128,-1,25
 792.299804688 1422 792.299804688 1422 874.75 1332 c 1,0,-1
790.599609375 1197 m 1,26,27
 725.150390625 1273 725.150390625 1273 675.424804688 1299 c 128,-1,28
 625.700195312 1325 625.700195312 1325 561.099609375 1325 c 0,29,30
 408.950195312 1325 408.950195312 1325 309.075195312 1175.5 c 128,-1,31
 209.200195312 1026 209.200195312 1026 209.200195312 730 c 0,32,33
 209.200195312 619 209.200195312 619 221.950195312 541.5 c 128,-1,34
 234.700195312 464 234.700195312 464 271.25 362 c 1,35,-1
 790.599609375 1197 l 1,26,27
848.400390625 1094 m 1,36,-1
 329.900390625 262 l 1,37,38
 385.150390625 196 385.150390625 196 439.125 168.5 c 128,-1,39
 493.099609375 141 493.099609375 141 556.849609375 141 c 0,40,41
 705.599609375 141 705.599609375 141 806.325195312 292 c 128,-1,42
 907.049804688 443 907.049804688 443 907.049804688 729 c 0,43,44
 907.049804688 935 907.049804688 935 848.400390625 1094 c 1,36,-1
EndSplineSet
EndChar

StartChar: Thorn
Encoding: 222 222 158
Width: 952
GlyphClass: 2
Flags: W
LayerCount: 2
Fore
SplineSet
110.599609375 0 m 1,0,-1
 110.599609375 1466 l 1,1,-1
 245.75 1466 l 1,2,-1
 245.75 1168 l 1,3,-1
 495.650390625 1168 l 2,4,5
 632.5 1168 632.5 1168 697.099609375 1139 c 0,6,7
 785.5 1101 785.5 1101 838.200195312 998 c 128,-1,8
 890.900390625 895 890.900390625 895 890.900390625 746 c 0,9,10
 890.900390625 549 890.900390625 549 805.049804688 423.5 c 128,-1,11
 719.200195312 298 719.200195312 298 507.549804688 298 c 2,12,-1
 245.75 298 l 1,13,-1
 245.75 0 l 1,14,-1
 110.599609375 0 l 1,0,-1
245.75 471 m 1,15,-1
 510.099609375 471 l 2,16,17
 635.049804688 471 635.049804688 471 692.849609375 537.5 c 128,-1,18
 750.650390625 604 750.650390625 604 750.650390625 738 c 0,19,20
 750.650390625 825 750.650390625 825 722.174804688 886.5 c 128,-1,21
 693.700195312 948 693.700195312 948 653.325195312 971.5 c 128,-1,22
 612.950195312 995 612.950195312 995 507.549804688 995 c 2,23,-1
 245.75 995 l 1,24,-1
 245.75 471 l 1,15,-1
EndSplineSet
EndChar

StartChar: germandbls
Encoding: 223 223 159
Width: 872
GlyphClass: 2
Flags: W
LayerCount: 2
Fore
SplineSet
108.900390625 0 m 1,0,-1
 108.900390625 999 l 2,1,2
 108.900390625 1190 108.900390625 1190 141.625 1286.5 c 128,-1,3
 174.349609375 1383 174.349609375 1383 245.325195312 1437 c 128,-1,4
 316.299804688 1491 316.299804688 1491 407.25 1491 c 0,5,6
 520.299804688 1491 520.299804688 1491 592.549804688 1408.5 c 128,-1,7
 664.799804688 1326 664.799804688 1326 664.799804688 1206 c 0,8,9
 664.799804688 1156 664.799804688 1156 653.325195312 1102.5 c 128,-1,10
 641.849609375 1049 641.849609375 1049 608.700195312 966 c 0,11,12
 559.400390625 842 559.400390625 842 559.400390625 799 c 0,13,14
 559.400390625 762 559.400390625 762 578.099609375 726 c 0,15,16
 590.849609375 700 590.849609375 700 658.849609375 637 c 0,17,18
 765.099609375 537 765.099609375 537 797.400390625 470 c 128,-1,19
 829.700195312 403 829.700195312 403 829.700195312 313 c 0,20,21
 829.700195312 166 829.700195312 166 755.75 70.5 c 128,-1,22
 681.799804688 -25 681.799804688 -25 575.549804688 -25 c 0,23,24
 493.099609375 -25 493.099609375 -25 425.525390625 38 c 128,-1,25
 357.950195312 101 357.950195312 101 322.25 216 c 1,26,-1
 430.200195312 288 l 1,27,28
 492.25 123 492.25 123 571.299804688 123 c 0,29,30
 623.150390625 123 623.150390625 123 662.25 173.5 c 128,-1,31
 701.349609375 224 701.349609375 224 701.349609375 297 c 0,32,33
 701.349609375 347 701.349609375 347 685.200195312 381 c 128,-1,34
 669.049804688 415 669.049804688 415 601.049804688 481 c 0,35,36
 492.25 588 492.25 588 461.224609375 646 c 128,-1,37
 430.200195312 704 430.200195312 704 430.200195312 769 c 0,38,39
 430.200195312 808 430.200195312 808 439.549804688 847 c 128,-1,40
 448.900390625 886 448.900390625 886 482.049804688 968 c 0,41,42
 542.400390625 1119 542.400390625 1119 542.400390625 1187 c 0,43,44
 542.400390625 1252 542.400390625 1252 502.875 1297.5 c 128,-1,45
 463.349609375 1343 463.349609375 1343 403.849609375 1343 c 0,46,47
 321.400390625 1343 321.400390625 1343 277.625 1271 c 128,-1,48
 233.849609375 1199 233.849609375 1199 233.849609375 991 c 2,49,-1
 233.849609375 0 l 1,50,-1
 108.900390625 0 l 1,0,-1
EndSplineSet
EndChar

StartChar: ae
Encoding: 230 230 166
Width: 1269
GlyphClass: 2
Flags: W
LayerCount: 2
Fore
SplineSet
1206.25 325 m 1,0,1
 1170.54980469 152 1170.54980469 152 1085.97460938 64 c 128,-1,2
 1001.40039062 -24 1001.40039062 -24 879.849609375 -24 c 0,3,4
 794 -24 794 -24 726.849609375 23 c 128,-1,5
 659.700195312 70 659.700195312 70 604.450195312 174 c 1,6,7
 465.049804688 -24 465.049804688 -24 296.75 -24 c 0,8,9
 183.700195312 -24 183.700195312 -24 114.424804688 61 c 128,-1,10
 45.150390625 146 45.150390625 146 45.150390625 279 c 0,11,12
 45.150390625 369 45.150390625 369 80 442.5 c 128,-1,13
 114.849609375 516 114.849609375 516 173.924804688 555 c 128,-1,14
 233 594 233 594 372.400390625 620 c 0,15,16
 476.950195312 640 476.950195312 640 548.349609375 669 c 1,17,-1
 549.200195312 710 l 2,18,19
 549.200195312 839 549.200195312 839 511.375 888 c 128,-1,20
 473.549804688 937 473.549804688 937 385.150390625 937 c 0,21,22
 292.5 937 292.5 937 249.575195312 895 c 128,-1,23
 206.650390625 853 206.650390625 853 187.099609375 733 c 1,24,-1
 65.5498046875 754 l 1,25,26
 94.4501953125 932 94.4501953125 932 172.224609375 1009 c 128,-1,27
 250 1086 250 1086 388.549804688 1086 c 0,28,29
 491.400390625 1086 491.400390625 1086 551.75 1050 c 128,-1,30
 612.099609375 1014 612.099609375 1014 641.849609375 943 c 1,31,32
 733.650390625 1086 733.650390625 1086 879 1086 c 0,33,34
 974.200195312 1086 974.200195312 1086 1045.59960938 1027 c 128,-1,35
 1117 968 1117 968 1162.90039062 839 c 128,-1,36
 1208.79980469 710 1208.79980469 710 1208.79980469 545 c 2,37,-1
 1207.95019531 485 l 1,38,-1
 673.299804688 485 l 1,39,40
 674.150390625 337 674.150390625 337 698.375 272 c 128,-1,41
 722.599609375 207 722.599609375 207 774.875 165.5 c 128,-1,42
 827.150390625 124 827.150390625 124 887.5 124 c 0,43,44
 955.5 124 955.5 124 1006.07519531 182 c 128,-1,45
 1056.65039062 240 1056.65039062 240 1075.34960938 349 c 1,46,-1
 1206.25 325 l 1,0,1
673.299804688 633 m 1,47,-1
 1080.45019531 633 l 1,48,49
 1070.25 793 1070.25 793 1015.84960938 865 c 128,-1,50
 961.450195312 937 961.450195312 937 880.700195312 937 c 0,51,52
 794 937 794 937 737.049804688 859 c 128,-1,53
 680.099609375 781 680.099609375 781 673.299804688 633 c 1,47,-1
550.049804688 533 m 1,54,55
 494.799804688 498 494.799804688 498 326.5 460 c 0,56,57
 250 443 250 443 220.25 410 c 0,58,59
 177.75 362 177.75 362 177.75 286 c 0,60,61
 177.75 211 177.75 211 216.424804688 164.5 c 128,-1,62
 255.099609375 118 255.099609375 118 321.400390625 118 c 0,63,64
 402.150390625 118 402.150390625 118 462.5 175 c 128,-1,65
 522.849609375 232 522.849609375 232 540.700195312 321 c 0,66,67
 550.900390625 371 550.900390625 371 550.049804688 533 c 1,54,55
EndSplineSet
EndChar

StartChar: eth
Encoding: 240 240 176
Width: 794
GlyphClass: 2
Flags: W
LayerCount: 2
Fore
SplineSet
212.599609375 1466 m 1,0,-1
 363.049804688 1466 l 1,1,2
 414.049804688 1412 414.049804688 1412 450.599609375 1364 c 1,3,-1
 599.349609375 1466 l 1,4,-1
 631.650390625 1364 l 1,5,-1
 510.950195312 1281 l 1,6,7
 733.650390625 913 733.650390625 913 733.650390625 523 c 0,8,9
 733.650390625 262 733.650390625 262 635.474609375 118.5 c 128,-1,10
 537.299804688 -25 537.299804688 -25 391.099609375 -25 c 0,11,12
 293.349609375 -25 293.349609375 -25 215.575195312 37 c 128,-1,13
 137.799804688 99 137.799804688 99 93.1748046875 214 c 128,-1,14
 48.5498046875 329 48.5498046875 329 48.5498046875 516 c 0,15,16
 48.5498046875 783 48.5498046875 783 139.924804688 922.5 c 128,-1,17
 231.299804688 1062 231.299804688 1062 363.049804688 1062 c 0,18,19
 403 1062 403 1062 434.025390625 1050 c 128,-1,20
 465.049804688 1038 465.049804688 1038 510.950195312 1003 c 1,21,22
 471 1119 471 1119 412.349609375 1216 c 1,23,-1
 220.25 1089 l 1,24,-1
 189.650390625 1192 l 1,25,-1
 357.099609375 1301 l 1,26,27
 289.099609375 1391 289.099609375 1391 212.599609375 1466 c 1,0,-1
604.450195312 529 m 0,28,29
 604.450195312 721 604.450195312 721 541.125 822.5 c 128,-1,30
 477.799804688 924 477.799804688 924 386 924 c 0,31,32
 295.900390625 924 295.900390625 924 236.400390625 823.5 c 128,-1,33
 176.900390625 723 176.900390625 723 176.900390625 512 c 0,34,35
 176.900390625 315 176.900390625 315 238.525390625 218.5 c 128,-1,36
 300.150390625 122 300.150390625 122 390.25 122 c 0,37,38
 479.5 122 479.5 122 541.974609375 225 c 128,-1,39
 604.450195312 328 604.450195312 328 604.450195312 529 c 0,28,29
EndSplineSet
EndChar

StartChar: divide
Encoding: 247 247 183
Width: 955
GlyphClass: 2
Flags: W
LayerCount: 2
Fore
SplineSet
390.25 922 m 1,0,-1
 390.25 1127 l 1,1,-1
 564.5 1127 l 1,2,-1
 564.5 922 l 1,3,-1
 390.25 922 l 1,0,-1
889.200195312 639 m 1,4,-1
 66.400390625 639 l 1,5,-1
 66.400390625 807 l 1,6,-1
 889.200195312 807 l 1,7,-1
 889.200195312 639 l 1,4,-1
390.25 319 m 1,8,-1
 390.25 524 l 1,9,-1
 564.5 524 l 1,10,-1
 564.5 319 l 1,11,-1
 390.25 319 l 1,8,-1
EndSplineSet
EndChar

StartChar: oslash
Encoding: 248 248 184
Width: 872
GlyphClass: 2
Flags: W
LayerCount: 2
Fore
SplineSet
646.950195312 999 m 1,0,-1
 715.799804688 1127 l 1,1,-1
 782.950195312 1057 l 1,2,-1
 708.150390625 919 l 1,3,4
 753.200195312 830 753.200195312 830 769.349609375 756 c 0,5,6
 789.75 659 789.75 659 789.75 531 c 0,7,8
 789.75 254 789.75 254 691.150390625 115 c 128,-1,9
 592.549804688 -24 592.549804688 -24 437 -24 c 0,10,11
 330.75 -24 330.75 -24 245.75 56 c 1,12,-1
 172.650390625 -79 l 1,13,-1
 107.200195312 -8 l 1,14,-1
 182.849609375 133 l 1,15,16
 137.799804688 207 137.799804688 207 121.650390625 281 c 0,17,18
 96.150390625 392 96.150390625 392 96.150390625 516 c 0,19,20
 96.150390625 802 96.150390625 802 193.900390625 944 c 128,-1,21
 291.650390625 1086 291.650390625 1086 440.400390625 1086 c 0,22,23
 493.950195312 1086 493.950195312 1086 541.549804688 1066.5 c 128,-1,24
 589.150390625 1047 589.150390625 1047 646.950195312 999 c 1,0,-1
576.400390625 867 m 1,25,26
 512.650390625 937 512.650390625 937 442.950195312 937 c 0,27,28
 352.849609375 937 352.849609375 937 288.674804688 836 c 128,-1,29
 224.5 735 224.5 735 224.5 535 c 0,30,31
 224.5 382 224.5 382 261.049804688 280 c 1,32,-1
 576.400390625 867 l 1,25,26
628.25 770 m 1,33,-1
 316.299804688 187 l 1,34,35
 369.849609375 124 369.849609375 124 438.700195312 124 c 0,36,37
 533.900390625 124 533.900390625 124 597.650390625 224.5 c 128,-1,38
 661.400390625 325 661.400390625 325 661.400390625 534 c 0,39,40
 661.400390625 607 661.400390625 607 654.599609375 656 c 128,-1,41
 647.799804688 705 647.799804688 705 628.25 770 c 1,33,-1
EndSplineSet
EndChar

StartChar: thorn
Encoding: 254 254 190
Width: 794
GlyphClass: 2
Flags: W
LayerCount: 2
Fore
SplineSet
91.900390625 -407 m 1,0,-1
 91.900390625 1466 l 1,1,-1
 216.849609375 1466 l 1,2,-1
 216.849609375 950 l 1,3,4
 269.549804688 1029 269.549804688 1029 315.025390625 1057.5 c 128,-1,5
 360.5 1086 360.5 1086 420 1086 c 0,6,7
 507.549804688 1086 507.549804688 1086 578.099609375 1025 c 128,-1,8
 648.650390625 964 648.650390625 964 691.575195312 839.5 c 128,-1,9
 734.5 715 734.5 715 734.5 540 c 0,10,11
 734.5 270 734.5 270 638.025390625 123 c 128,-1,12
 541.549804688 -24 541.549804688 -24 412.349609375 -24 c 0,13,14
 357.099609375 -24 357.099609375 -24 312.900390625 4 c 128,-1,15
 268.700195312 32 268.700195312 32 216.849609375 110 c 1,16,-1
 216.849609375 -407 l 1,17,-1
 91.900390625 -407 l 1,0,-1
204.950195312 525 m 0,18,19
 204.950195312 319 204.950195312 319 263.599609375 221.5 c 128,-1,20
 322.25 124 322.25 124 405.549804688 124 c 0,21,22
 485.450195312 124 485.450195312 124 545.799804688 225 c 128,-1,23
 606.150390625 326 606.150390625 326 606.150390625 537 c 0,24,25
 606.150390625 745 606.150390625 745 547.5 845 c 128,-1,26
 488.849609375 945 488.849609375 945 405.549804688 945 c 0,27,28
 329.049804688 945 329.049804688 945 267 837.5 c 128,-1,29
 204.950195312 730 204.950195312 730 204.950195312 525 c 0,18,19
EndSplineSet
EndChar

StartChar: dmacron
Encoding: 273 273 209
Width: 788
GlyphClass: 2
Flags: W
LayerCount: 2
Fore
SplineSet
566.200195312 1224 m 1,0,-1
 325.650390625 1224 l 1,1,-1
 325.650390625 1328 l 1,2,-1
 566.200195312 1328 l 1,3,-1
 566.200195312 1466 l 1,4,-1
 692 1466 l 1,5,-1
 692 1328 l 1,6,-1
 792.299804688 1328 l 1,7,-1
 792.299804688 1224 l 1,8,-1
 692 1224 l 1,9,-1
 692 0 l 1,10,-1
 574.700195312 0 l 1,11,-1
 574.700195312 134 l 1,12,13
 540.700195312 57 540.700195312 57 487.150390625 16.5 c 128,-1,14
 433.599609375 -24 433.599609375 -24 371.549804688 -24 c 0,15,16
 240.650390625 -24 240.650390625 -24 145.025390625 121.5 c 128,-1,17
 49.400390625 267 49.400390625 267 49.400390625 531 c 0,18,19
 49.400390625 712 49.400390625 712 91.900390625 838 c 128,-1,20
 134.400390625 964 134.400390625 964 205.375 1025 c 128,-1,21
 276.349609375 1086 276.349609375 1086 363.049804688 1086 c 0,22,23
 425.099609375 1086 425.099609375 1086 478.224609375 1047.5 c 128,-1,24
 531.349609375 1009 531.349609375 1009 566.200195312 940 c 1,25,-1
 566.200195312 1224 l 1,0,-1
177.75 530 m 0,26,27
 177.75 324 177.75 324 238.525390625 224 c 128,-1,28
 299.299804688 124 299.299804688 124 380.049804688 124 c 0,29,30
 459.950195312 124 459.950195312 124 518.599609375 220 c 128,-1,31
 577.25 316 577.25 316 577.25 510 c 0,32,33
 577.25 733 577.25 733 518.599609375 835.5 c 128,-1,34
 459.950195312 938 459.950195312 938 370.700195312 938 c 0,35,36
 291.650390625 938 291.650390625 938 234.700195312 839.5 c 128,-1,37
 177.75 741 177.75 741 177.75 530 c 0,26,27
EndSplineSet
EndChar

StartChar: Hbar
Encoding: 294 294 230
Width: 1030
GlyphClass: 2
Flags: W
LayerCount: 2
Fore
SplineSet
917.25 1127 m 1,0,-1
 917.25 0 l 1,1,-1
 782.099609375 0 l 1,2,-1
 782.099609375 692 l 1,3,-1
 250.849609375 692 l 1,4,-1
 250.849609375 0 l 1,5,-1
 114.849609375 0 l 1,6,-1
 114.849609375 1127 l 1,7,-1
 20.5 1127 l 1,8,-1
 20.5 1275 l 1,9,-1
 114.849609375 1275 l 1,10,-1
 114.849609375 1466 l 1,11,-1
 250.849609375 1466 l 1,12,-1
 250.849609375 1275 l 1,13,-1
 782.099609375 1275 l 1,14,-1
 782.099609375 1466 l 1,15,-1
 917.25 1466 l 1,16,-1
 917.25 1275 l 1,17,-1
 1013.29980469 1275 l 1,18,-1
 1013.29980469 1127 l 1,19,-1
 917.25 1127 l 1,0,-1
782.099609375 1127 m 1,20,-1
 250.849609375 1127 l 1,21,-1
 250.849609375 864 l 1,22,-1
 782.099609375 864 l 1,23,-1
 782.099609375 1127 l 1,20,-1
EndSplineSet
EndChar

StartChar: hbar
Encoding: 295 295 231
Width: 794
GlyphClass: 2
Flags: W
LayerCount: 2
Fore
SplineSet
91.900390625 0 m 1,0,-1
 91.900390625 1187 l 1,1,-1
 -44.099609375 1187 l 1,2,-1
 -44.099609375 1335 l 1,3,-1
 91.900390625 1335 l 1,4,-1
 91.900390625 1466 l 1,5,-1
 216.849609375 1466 l 1,6,-1
 216.849609375 1335 l 1,7,-1
 391.099609375 1335 l 1,8,-1
 391.099609375 1187 l 1,9,-1
 216.849609375 1187 l 1,10,-1
 216.849609375 940 l 1,11,12
 261.049804688 1013 261.049804688 1013 316.724609375 1049.5 c 128,-1,13
 372.400390625 1086 372.400390625 1086 439.549804688 1086 c 0,14,15
 557.700195312 1086 557.700195312 1086 626.125 997.5 c 128,-1,16
 694.549804688 909 694.549804688 909 694.549804688 673 c 2,17,-1
 694.549804688 0 l 1,18,-1
 569.599609375 0 l 1,19,-1
 569.599609375 673 l 2,20,21
 569.599609375 811 569.599609375 811 527.950195312 871 c 128,-1,22
 486.299804688 931 486.299804688 931 413.200195312 931 c 0,23,24
 331.599609375 931 331.599609375 931 274.224609375 854 c 128,-1,25
 216.849609375 777 216.849609375 777 216.849609375 581 c 2,26,-1
 216.849609375 0 l 1,27,-1
 91.900390625 0 l 1,0,-1
EndSplineSet
EndChar

StartChar: dotlessi
Encoding: 305 305 241
Width: 397
GlyphClass: 2
Flags: W
LayerCount: 2
Fore
SplineSet
141.200195312 0 m 1,0,-1
 141.200195312 1062 l 1,1,-1
 266.150390625 1062 l 1,2,-1
 266.150390625 0 l 1,3,-1
 141.200195312 0 l 1,0,-1
EndSplineSet
EndChar

StartChar: jcircumflex
Encoding: 309 309 245
Width: 317
GlyphClass: 2
Flags: W
LayerCount: 2
Fore
SplineSet
-67.900390625 -412 m 1,0,-1
 -44.099609375 -259 l 1,1,2
 -6.7001953125 -273 -6.7001953125 -273 14.5498046875 -273 c 0,3,4
 54.5 -273 54.5 -273 72.775390625 -236 c 128,-1,5
 91.0498046875 -199 91.0498046875 -199 91.0498046875 -54 c 2,6,-1
 91.0498046875 1062 l 1,7,-1
 216 1062 l 1,8,-1
 216 -58 l 2,9,10
 216 -275 216 -275 168.825195312 -353 c 128,-1,11
 121.650390625 -431 121.650390625 -431 30.7001953125 -431 c 0,12,13
 -20.2998046875 -431 -20.2998046875 -431 -67.900390625 -412 c 1,0,-1
160.75 1364 m 1,14,-1
 82.5498046875 1194 l 1,15,-1
 -61.099609375 1194 l 1,16,-1
 89.349609375 1474 l 1,17,-1
 223.650390625 1474 l 1,18,-1
 380.049804688 1194 l 1,19,-1
 238.099609375 1194 l 1,20,-1
 160.75 1364 l 1,14,-1
EndSplineSet
EndChar

StartChar: kgreenlandic
Encoding: 312 312 248
Width: 710
GlyphClass: 2
Flags: W
LayerCount: 2
Fore
SplineSet
92.75 0 m 1,0,-1
 92.75 1061 l 1,1,-1
 217.700195312 1061 l 1,2,-1
 217.700195312 645 l 1,3,-1
 516.900390625 1061 l 1,4,-1
 684.349609375 1061 l 1,5,-1
 352 621 l 1,6,-1
 712.400390625 0 l 1,7,-1
 551.75 0 l 1,8,-1
 262.75 500 l 1,9,-1
 217.700195312 438 l 1,10,-1
 217.700195312 0 l 1,11,-1
 92.75 0 l 1,0,-1
EndSplineSet
EndChar

StartChar: Lslash
Encoding: 321 321 257
Width: 794
GlyphClass: 2
Flags: W
LayerCount: 2
Fore
SplineSet
98.7001953125 565 m 1,0,-1
 -2.4501953125 442 l 1,1,-1
 -2.4501953125 609 l 1,2,-1
 98.7001953125 733 l 1,3,-1
 98.7001953125 1466 l 1,4,-1
 233.849609375 1466 l 1,5,-1
 233.849609375 898 l 1,6,-1
 372.400390625 1064 l 1,7,-1
 372.400390625 897 l 1,8,-1
 233.849609375 731 l 1,9,-1
 233.849609375 173 l 1,10,-1
 741.299804688 173 l 1,11,-1
 741.299804688 0 l 1,12,-1
 98.7001953125 0 l 1,13,-1
 98.7001953125 565 l 1,0,-1
EndSplineSet
EndChar

StartChar: lslash
Encoding: 322 322 258
Width: 317
GlyphClass: 2
Flags: W
LayerCount: 2
Fore
SplineSet
89.349609375 574 m 1,0,-1
 -0.75 464 l 1,1,-1
 -0.75 622 l 1,2,-1
 89.349609375 732 l 1,3,-1
 89.349609375 1466 l 1,4,-1
 215.150390625 1466 l 1,5,-1
 215.150390625 884 l 1,6,-1
 308.650390625 999 l 1,7,-1
 308.650390625 842 l 1,8,-1
 215.150390625 727 l 1,9,-1
 215.150390625 0 l 1,10,-1
 89.349609375 0 l 1,11,-1
 89.349609375 574 l 1,0,-1
EndSplineSet
EndChar

StartChar: Eng
Encoding: 330 330 266
Width: 1030
GlyphClass: 2
Flags: W
LayerCount: 2
Fore
SplineSet
113.150390625 0 m 1,0,-1
 113.150390625 1466 l 1,1,-1
 249.150390625 1466 l 1,2,-1
 249.150390625 1378 l 1,3,4
 325.650390625 1466 325.650390625 1466 465.049804688 1466 c 0,5,6
 714.950195312 1466 714.950195312 1466 836.075195312 1293 c 128,-1,7
 957.200195312 1120 957.200195312 1120 957.200195312 743 c 0,8,9
 957.200195312 384 957.200195312 384 849.25 184.5 c 128,-1,10
 741.299804688 -15 741.299804688 -15 550.049804688 -15 c 0,11,12
 513.5 -15 513.5 -15 414.049804688 8 c 1,13,-1
 414.049804688 174 l 1,14,15
 471.849609375 166 471.849609375 166 545.799804688 151 c 1,16,17
 691.150390625 166 691.150390625 166 754.900390625 301.5 c 128,-1,18
 818.650390625 437 818.650390625 437 818.650390625 745 c 0,19,20
 818.650390625 1055 818.650390625 1055 730.674804688 1174.5 c 128,-1,21
 642.700195312 1294 642.700195312 1294 463.349609375 1294 c 0,22,23
 331.599609375 1294 331.599609375 1294 249.150390625 1194 c 1,24,-1
 249.150390625 0 l 1,25,-1
 113.150390625 0 l 1,0,-1
EndSplineSet
EndChar

StartChar: eng
Encoding: 331 331 267
Width: 794
GlyphClass: 2
Flags: W
LayerCount: 2
Fore
SplineSet
418.299804688 -412 m 1,0,-1
 442.099609375 -258 l 1,1,2
 486.299804688 -272 486.299804688 -272 503.299804688 -272 c 0,3,4
 541.549804688 -272 541.549804688 -272 558.549804688 -236 c 128,-1,5
 575.549804688 -200 575.549804688 -200 573.849609375 -91 c 2,6,-1
 573.849609375 524 l 2,7,8
 574.700195312 732 574.700195312 732 561.099609375 796 c 128,-1,9
 547.5 860 547.5 860 512.650390625 895 c 128,-1,10
 477.799804688 930 477.799804688 930 418.299804688 930 c 0,11,12
 347.75 930 347.75 930 285.275390625 862 c 128,-1,13
 222.799804688 794 222.799804688 794 222.799804688 580 c 2,14,-1
 222.799804688 0 l 1,15,-1
 97.849609375 0 l 1,16,-1
 97.849609375 1061 l 1,17,-1
 210.900390625 1061 l 1,18,-1
 210.900390625 911 l 1,19,20
 293.349609375 1085 293.349609375 1085 445.5 1085 c 0,21,22
 536.450195312 1085 536.450195312 1085 600.625 1026.5 c 128,-1,23
 664.799804688 968 664.799804688 968 682.224609375 884.5 c 128,-1,24
 699.650390625 801 699.650390625 801 699.650390625 653 c 2,25,-1
 699.650390625 -54 l 2,26,27
 701.349609375 -260 701.349609375 -260 658.424804688 -344 c 128,-1,28
 615.5 -428 615.5 -428 520.299804688 -428 c 0,29,30
 456.549804688 -428 456.549804688 -428 418.299804688 -412 c 1,0,-1
EndSplineSet
EndChar

StartChar: OE
Encoding: 338 338 274
Width: 1427
GlyphClass: 2
Flags: W
LayerCount: 2
Fore
SplineSet
1382.20019531 173 m 1,0,-1
 1382.20019531 0 l 1,1,-1
 781.25 0 l 1,2,-1
 781.25 212 l 1,3,4
 734.5 94 734.5 94 665.224609375 34.5 c 128,-1,5
 595.950195312 -25 595.950195312 -25 504.150390625 -25 c 0,6,7
 324.799804688 -25 324.799804688 -25 217.700195312 147 c 0,8,9
 90.2001953125 353 90.2001953125 353 90.2001953125 736 c 0,10,11
 90.2001953125 992 90.2001953125 992 147.150390625 1166 c 128,-1,12
 204.099609375 1340 204.099609375 1340 292.5 1415.5 c 128,-1,13
 380.900390625 1491 380.900390625 1491 504.150390625 1491 c 0,14,15
 595.950195312 1491 595.950195312 1491 665.224609375 1435.5 c 128,-1,16
 734.5 1380 734.5 1380 781.25 1268 c 1,17,-1
 781.25 1466 l 1,18,-1
 1360.95019531 1466 l 1,19,-1
 1360.95019531 1293 l 1,20,-1
 907.900390625 1293 l 1,21,-1
 907.900390625 845 l 1,22,-1
 1325.25 845 l 1,23,-1
 1325.25 673 l 1,24,-1
 907.900390625 673 l 1,25,-1
 907.900390625 173 l 1,26,-1
 1382.20019531 173 l 1,0,-1
501.599609375 1334 m 256,27,28
 390.25 1334 390.25 1334 309.924804688 1192.5 c 128,-1,29
 229.599609375 1051 229.599609375 1051 229.599609375 733 c 0,30,31
 229.599609375 416 229.599609375 416 310.349609375 273.5 c 128,-1,32
 391.099609375 131 391.099609375 131 505 131 c 0,33,34
 613.799804688 131 613.799804688 131 693.700195312 273.5 c 128,-1,35
 773.599609375 416 773.599609375 416 773.599609375 733 c 0,36,37
 773.599609375 1049 773.599609375 1049 693.275390625 1191.5 c 128,-1,38
 612.950195312 1334 612.950195312 1334 501.599609375 1334 c 256,27,28
EndSplineSet
EndChar

StartChar: oe
Encoding: 339 339 275
Width: 1347
GlyphClass: 2
Flags: W
LayerCount: 2
Fore
SplineSet
684.349609375 175 m 1,0,1
 631.650390625 76 631.650390625 76 562.375 26 c 128,-1,2
 493.099609375 -24 493.099609375 -24 407.25 -24 c 0,3,4
 255.950195312 -24 255.950195312 -24 157.775390625 116 c 128,-1,5
 59.599609375 256 59.599609375 256 59.599609375 520 c 0,6,7
 59.599609375 708 59.599609375 708 104.650390625 834.5 c 128,-1,8
 149.700195312 961 149.700195312 961 228.75 1023.5 c 128,-1,9
 307.799804688 1086 307.799804688 1086 410.650390625 1086 c 0,10,11
 501.599609375 1086 501.599609375 1086 574.700195312 1031 c 128,-1,12
 647.799804688 976 647.799804688 976 684.349609375 883 c 1,13,14
 731.099609375 981 731.099609375 981 801.650390625 1033.5 c 128,-1,15
 872.200195312 1086 872.200195312 1086 954.650390625 1086 c 0,16,17
 1105.09960938 1086 1105.09960938 1086 1202 937.5 c 128,-1,18
 1298.90039062 789 1298.90039062 789 1296.34960938 483 c 1,19,-1
 750.650390625 483 l 1,20,21
 753.200195312 312 753.200195312 312 816.950195312 218 c 128,-1,22
 880.700195312 124 880.700195312 124 970.799804688 124 c 0,23,24
 1037.95019531 124 1037.95019531 124 1088.95019531 179 c 128,-1,25
 1139.95019531 234 1139.95019531 234 1162.04980469 346 c 1,26,-1
 1287 320 l 1,27,28
 1255.54980469 149 1255.54980469 149 1171.82519531 62.5 c 128,-1,29
 1088.09960938 -24 1088.09960938 -24 967.400390625 -24 c 0,30,31
 876.450195312 -24 876.450195312 -24 802.075195312 28 c 128,-1,32
 727.700195312 80 727.700195312 80 684.349609375 175 c 1,0,1
187.950195312 533 m 0,33,34
 187.950195312 340 187.950195312 340 243.200195312 240 c 0,35,36
 306.950195312 124 306.950195312 124 408.950195312 124 c 0,37,38
 493.950195312 124 493.950195312 124 558.549804688 229.5 c 128,-1,39
 623.150390625 335 623.150390625 335 623.150390625 536 c 0,40,41
 623.150390625 735 623.150390625 735 558.549804688 836.5 c 128,-1,42
 493.950195312 938 493.950195312 938 402.150390625 938 c 0,43,44
 304.400390625 938 304.400390625 938 246.174804688 825 c 128,-1,45
 187.950195312 712 187.950195312 712 187.950195312 533 c 0,33,34
754.900390625 631 m 1,46,-1
 1164.59960938 631 l 1,47,48
 1156.09960938 785 1156.09960938 785 1100 861.5 c 128,-1,49
 1043.90039062 938 1043.90039062 938 963.150390625 938 c 0,50,51
 881.549804688 938 881.549804688 938 822.049804688 858 c 128,-1,52
 762.549804688 778 762.549804688 778 754.900390625 631 c 1,46,-1
EndSplineSet
EndChar

StartChar: Tbar
Encoding: 358 358 294
Width: 872
GlyphClass: 2
Flags: W
LayerCount: 2
Fore
SplineSet
372.400390625 0 m 1,0,-1
 372.400390625 803 l 1,1,-1
 221.099609375 803 l 1,2,-1
 221.099609375 951 l 1,3,-1
 372.400390625 951 l 1,4,-1
 372.400390625 1293 l 1,5,-1
 35.7998046875 1293 l 1,6,-1
 35.7998046875 1466 l 1,7,-1
 845.849609375 1466 l 1,8,-1
 845.849609375 1293 l 1,9,-1
 507.549804688 1293 l 1,10,-1
 507.549804688 951 l 1,11,-1
 656.299804688 951 l 1,12,-1
 656.299804688 803 l 1,13,-1
 507.549804688 803 l 1,14,-1
 507.549804688 0 l 1,15,-1
 372.400390625 0 l 1,0,-1
EndSplineSet
EndChar

StartChar: tbar
Encoding: 359 359 295
Width: 397
GlyphClass: 2
Flags: W
LayerCount: 2
Fore
SplineSet
40.900390625 1062 m 1,0,-1
 132.700195312 1062 l 1,1,-1
 132.700195312 1325 l 1,2,-1
 257.650390625 1433 l 1,3,-1
 257.650390625 1062 l 1,4,-1
 384.299804688 1062 l 1,5,-1
 384.299804688 922 l 1,6,-1
 257.650390625 922 l 1,7,-1
 257.650390625 751 l 1,8,-1
 421.700195312 751 l 1,9,-1
 421.700195312 603 l 1,10,-1
 257.650390625 603 l 1,11,-1
 257.650390625 301 l 2,12,13
 257.650390625 215 257.650390625 215 268.700195312 190 c 0,14,15
 284.849609375 154 284.849609375 154 329.049804688 154 c 0,16,17
 350.299804688 154 350.299804688 154 384.299804688 161 c 1,18,-1
 401.299804688 2 l 1,19,20
 349.450195312 -14 349.450195312 -14 307.799804688 -14 c 0,21,22
 242.349609375 -14 242.349609375 -14 202.400390625 16.5 c 128,-1,23
 162.450195312 47 162.450195312 47 147.575195312 100 c 128,-1,24
 132.700195312 153 132.700195312 153 132.700195312 311 c 2,25,-1
 132.700195312 603 l 1,26,-1
 -13.5 603 l 1,27,-1
 -13.5 751 l 1,28,-1
 132.700195312 751 l 1,29,-1
 132.700195312 922 l 1,30,-1
 40.900390625 922 l 1,31,-1
 40.900390625 1062 l 1,0,-1
EndSplineSet
EndChar

StartChar: longs
Encoding: 383 383 319
Width: 317
GlyphClass: 2
Flags: W
LayerCount: 2
Fore
SplineSet
95.2998046875 0 m 1,0,-1
 95.2998046875 1175 l 2,1,2
 95.2998046875 1362 95.2998046875 1362 151.825195312 1426.5 c 128,-1,3
 208.349609375 1491 208.349609375 1491 302.700195312 1491 c 0,4,5
 354.549804688 1491 354.549804688 1491 416.599609375 1473 c 1,6,-1
 397.900390625 1316 l 1,7,8
 363.049804688 1326 363.049804688 1326 326.5 1326 c 0,9,10
 268.700195312 1326 268.700195312 1326 244.049804688 1290.5 c 128,-1,11
 219.400390625 1255 219.400390625 1255 219.400390625 1160 c 2,12,-1
 219.400390625 0 l 1,13,-1
 95.2998046875 0 l 1,0,-1
EndSplineSet
EndChar

StartChar: florin
Encoding: 402 402 320
Width: 794
GlyphClass: 2
Flags: W
LayerCount: 2
Fore
SplineSet
29.849609375 -405 m 1,0,-1
 53.650390625 -250 l 1,1,2
 124.200195312 -272 124.200195312 -272 159.900390625 -272 c 0,3,4
 197.299804688 -272 197.299804688 -272 217.700195312 -244 c 128,-1,5
 238.099609375 -216 238.099609375 -216 249.150390625 -120 c 2,6,-1
 372.400390625 922 l 1,7,-1
 233 922 l 1,8,-1
 249.150390625 1062 l 1,9,-1
 389.400390625 1062 l 1,10,-1
 406.400390625 1195 l 2,11,12
 423.400390625 1330 423.400390625 1330 446.775390625 1383.5 c 128,-1,13
 470.150390625 1437 470.150390625 1437 509.674804688 1464.5 c 128,-1,14
 549.200195312 1492 549.200195312 1492 604.450195312 1492 c 256,15,16
 659.700195312 1492 659.700195312 1492 754.049804688 1454 c 1,17,-1
 729.400390625 1301 l 1,18,19
 658 1325 658 1325 623.150390625 1325 c 0,20,21
 583.200195312 1325 583.200195312 1325 563.650390625 1297 c 128,-1,22
 544.099609375 1269 544.099609375 1269 531.349609375 1165 c 2,23,-1
 517.75 1062 l 1,24,-1
 659.700195312 1062 l 1,25,-1
 642.700195312 922 l 1,26,-1
 499.900390625 922 l 1,27,-1
 367.299804688 -170 l 2,28,29
 348.599609375 -320 348.599609375 -320 305.674804688 -375.5 c 128,-1,30
 262.75 -431 262.75 -431 186.25 -431 c 0,31,32
 119.950195312 -431 119.950195312 -431 29.849609375 -405 c 1,0,-1
EndSplineSet
EndChar

StartChar: circumflex
Encoding: 710 710 327
Width: 475
GlyphClass: 2
Flags: W
LayerCount: 2
Fore
SplineSet
238.950195312 1364 m 1,0,-1
 160.75 1194 l 1,1,-1
 17.099609375 1194 l 1,2,-1
 167.549804688 1474 l 1,3,-1
 301.849609375 1474 l 1,4,-1
 458.25 1194 l 1,5,-1
 316.299804688 1194 l 1,6,-1
 238.950195312 1364 l 1,0,-1
EndSplineSet
EndChar

StartChar: caron
Encoding: 711 711 328
Width: 475
GlyphClass: 2
Flags: W
LayerCount: 2
Fore
SplineSet
250 1304 m 1,0,-1
 327.349609375 1474 l 1,1,-1
 469.299804688 1474 l 1,2,-1
 312.900390625 1194 l 1,3,-1
 178.599609375 1194 l 1,4,-1
 28.150390625 1474 l 1,5,-1
 171.799804688 1474 l 1,6,-1
 250 1304 l 1,0,-1
EndSplineSet
EndChar

StartChar: macron
Encoding: 713 713 329
Width: 475
GlyphClass: 2
Flags: W
LayerCount: 2
Fore
SplineSet
20.5 1227 m 1,0,-1
 20.5 1375 l 1,1,-1
 455.700195312 1375 l 1,2,-1
 455.700195312 1227 l 1,3,-1
 20.5 1227 l 1,0,-1
EndSplineSet
EndChar

StartChar: breve
Encoding: 728 728 330
Width: 475
GlyphClass: 2
Flags: W
LayerCount: 2
Fore
SplineSet
357.950195312 1464 m 1,0,-1
 443.799804688 1464 l 1,1,2
 432.75 1335 432.75 1335 377.5 1270 c 128,-1,3
 322.25 1205 322.25 1205 237.25 1205 c 256,4,5
 152.25 1205 152.25 1205 97.4248046875 1270 c 128,-1,6
 42.599609375 1335 42.599609375 1335 31.5498046875 1464 c 1,7,-1
 117.400390625 1464 l 1,8,9
 136.950195312 1329 136.950195312 1329 233.849609375 1329 c 0,10,11
 288.25 1329 288.25 1329 318 1361 c 128,-1,12
 347.75 1393 347.75 1393 357.950195312 1464 c 1,0,-1
EndSplineSet
EndChar

StartChar: dotaccent
Encoding: 729 729 331
Width: 475
GlyphClass: 2
Flags: W
LayerCount: 2
Fore
SplineSet
159.900390625 1194 m 1,0,-1
 159.900390625 1418 l 1,1,-1
 315.450195312 1418 l 1,2,-1
 315.450195312 1194 l 1,3,-1
 159.900390625 1194 l 1,0,-1
EndSplineSet
EndChar

StartChar: ring
Encoding: 730 730 332
Width: 475
GlyphClass: 2
Flags: W
LayerCount: 2
Fore
SplineSet
113.150390625 1338 m 0,0,1
 113.150390625 1413 113.150390625 1413 150.974609375 1465 c 128,-1,2
 188.799804688 1517 188.799804688 1517 238.950195312 1517 c 0,3,4
 288.25 1517 288.25 1517 326.075195312 1465 c 128,-1,5
 363.900390625 1413 363.900390625 1413 363.900390625 1334 c 0,6,7
 363.900390625 1254 363.900390625 1254 326.5 1202.5 c 128,-1,8
 289.099609375 1151 289.099609375 1151 238.950195312 1151 c 256,9,10
 188.799804688 1151 188.799804688 1151 150.974609375 1203 c 128,-1,11
 113.150390625 1255 113.150390625 1255 113.150390625 1338 c 0,0,1
166.700195312 1337 m 0,12,13
 166.700195312 1288 166.700195312 1288 188.799804688 1257 c 128,-1,14
 210.900390625 1226 210.900390625 1226 239.799804688 1226 c 256,15,16
 268.700195312 1226 268.700195312 1226 291.224609375 1257 c 128,-1,17
 313.75 1288 313.75 1288 313.75 1335 c 256,18,19
 313.75 1382 313.75 1382 291.650390625 1413 c 128,-1,20
 269.549804688 1444 269.549804688 1444 240.650390625 1444 c 0,21,22
 210.900390625 1444 210.900390625 1444 188.799804688 1413 c 128,-1,23
 166.700195312 1382 166.700195312 1382 166.700195312 1337 c 0,12,13
EndSplineSet
EndChar

StartChar: ogonek
Encoding: 731 731 333
Width: 475
GlyphClass: 2
Flags: W
LayerCount: 2
Fore
SplineSet
156.5 24 m 1,0,-1
 242.349609375 24 l 1,1,2
 216 -65 216 -65 216 -141 c 0,3,4
 216 -210 216 -210 244.900390625 -251 c 128,-1,5
 273.799804688 -292 273.799804688 -292 316.299804688 -292 c 0,6,7
 369 -292 369 -292 432.75 -246 c 1,8,-1
 432.75 -365 l 1,9,10
 351.150390625 -425 351.150390625 -425 280.599609375 -425 c 0,11,12
 213.450195312 -425 213.450195312 -425 170.525390625 -367 c 128,-1,13
 127.599609375 -309 127.599609375 -309 127.599609375 -202 c 0,14,15
 127.599609375 -117 127.599609375 -117 156.5 24 c 1,0,-1
EndSplineSet
EndChar

StartChar: tilde
Encoding: 732 732 334
Width: 475
GlyphClass: 2
Flags: W
LayerCount: 2
Fore
SplineSet
5.2001953125 1219 m 1,0,1
 4.349609375 1326 4.349609375 1326 46 1387 c 0,2,3
 86.7998046875 1447 86.7998046875 1447 146.299804688 1447 c 0,4,5
 190.5 1447 190.5 1447 264.450195312 1393 c 0,6,7
 305.25 1363 305.25 1363 329.900390625 1363 c 0,8,9
 352.849609375 1363 352.849609375 1363 364.325195312 1380.5 c 128,-1,10
 375.799804688 1398 375.799804688 1398 380.900390625 1450 c 1,11,-1
 471.849609375 1450 l 1,12,13
 469.299804688 1335 469.299804688 1335 430.625 1278.5 c 128,-1,14
 391.950195312 1222 391.950195312 1222 334.150390625 1222 c 0,15,16
 291.650390625 1222 291.650390625 1222 219.400390625 1278 c 0,17,18
 172.650390625 1314 172.650390625 1314 151.400390625 1314 c 0,19,20
 128.450195312 1314 128.450195312 1314 113.150390625 1290.5 c 128,-1,21
 97.849609375 1267 97.849609375 1267 97.849609375 1219 c 1,22,-1
 5.2001953125 1219 l 1,0,1
EndSplineSet
EndChar

StartChar: hungarumlaut
Encoding: 733 733 335
Width: 475
GlyphClass: 2
Flags: W
LayerCount: 2
Fore
SplineSet
40.900390625 1194 m 1,0,-1
 125.049804688 1474 l 1,1,-1
 288.25 1474 l 1,2,-1
 141.200195312 1194 l 1,3,-1
 40.900390625 1194 l 1,0,-1
282.299804688 1194 m 1,4,-1
 370.700195312 1474 l 1,5,-1
 532.200195312 1474 l 1,6,-1
 387.700195312 1194 l 1,7,-1
 282.299804688 1194 l 1,4,-1
EndSplineSet
EndChar

StartChar: tonos
Encoding: 900 900 336
Width: 475
GlyphClass: 2
Flags: W
LayerCount: 2
Fore
SplineSet
154.799804688 1194 m 1,0,-1
 247.450195312 1474 l 1,1,-1
 411.5 1474 l 1,2,-1
 258.5 1194 l 1,3,-1
 154.799804688 1194 l 1,0,-1
EndSplineSet
EndChar

StartChar: dieresistonos
Encoding: 901 901 337
Width: 475
GlyphClass: 2
Flags: W
LayerCount: 2
Fore
SplineSet
149.700195312 1198 m 1,0,-1
 242.349609375 1475 l 1,1,-1
 370.700195312 1475 l 1,2,-1
 231.299804688 1198 l 1,3,-1
 149.700195312 1198 l 1,0,-1
370.700195312 1198 m 1,4,-1
 370.700195312 1389 l 1,5,-1
 491.400390625 1389 l 1,6,-1
 491.400390625 1198 l 1,7,-1
 370.700195312 1198 l 1,4,-1
-15.2001953125 1198 m 1,8,-1
 -15.2001953125 1389 l 1,9,-1
 104.650390625 1389 l 1,10,-1
 104.650390625 1198 l 1,11,-1
 -15.2001953125 1198 l 1,8,-1
EndSplineSet
EndChar

StartChar: anoteleia
Encoding: 903 903 339
Width: 579
GlyphClass: 2
Flags: W
LayerCount: 2
Fore
SplineSet
295.900390625 637 m 1,0,-1
 295.900390625 842 l 1,1,-1
 438.700195312 842 l 1,2,-1
 438.700195312 637 l 1,3,-1
 295.900390625 637 l 1,0,-1
EndSplineSet
EndChar

StartChar: Gamma
Encoding: 915 915 349
Width: 762
GlyphClass: 2
Flags: W
LayerCount: 2
Fore
SplineSet
112.299804688 1467 m 1,0,-1
 731.950195312 1467 l 1,1,-1
 731.950195312 1293 l 1,2,-1
 247.450195312 1293 l 1,3,-1
 247.450195312 0 l 1,4,-1
 112.299804688 0 l 1,5,-1
 112.299804688 1467 l 1,0,-1
EndSplineSet
EndChar

StartChar: Delta
Encoding: 916 916 350
Width: 973
GlyphClass: 2
Flags: W
LayerCount: 2
Fore
SplineSet
964.849609375 0 m 1,0,-1
 8.599609375 0 l 1,1,-1
 402.150390625 1466 l 1,2,-1
 546.650390625 1466 l 1,3,-1
 964.849609375 0 l 1,0,-1
415.75 1032 m 2,4,-1
 196.450195312 172 l 1,5,-1
 764.25 172 l 1,6,-1
 543.25 1008 l 2,7,8
 497.349609375 1185 497.349609375 1185 471.849609375 1313 c 1,9,10
 454 1180 454 1180 415.75 1032 c 2,4,-1
EndSplineSet
EndChar

StartChar: Theta
Encoding: 920 920 354
Width: 1044
GlyphClass: 2
Flags: W
LayerCount: 2
Fore
SplineSet
528.799804688 1503 m 0,0,1
 653.75 1503 653.75 1503 750.650390625 1425 c 128,-1,2
 847.549804688 1347 847.549804688 1347 911.724609375 1176 c 128,-1,3
 975.900390625 1005 975.900390625 1005 975.900390625 731 c 0,4,5
 975.900390625 526 975.900390625 526 930 346.5 c 128,-1,6
 884.099609375 167 884.099609375 167 779.974609375 63.5 c 128,-1,7
 675.849609375 -40 675.849609375 -40 525.400390625 -40 c 0,8,9
 305.25 -40 305.25 -40 187.525390625 170.5 c 128,-1,10
 69.7998046875 381 69.7998046875 381 69.7998046875 734 c 0,11,12
 69.7998046875 1071 69.7998046875 1071 183.275390625 1287 c 128,-1,13
 296.75 1503 296.75 1503 528.799804688 1503 c 0,0,1
528.799804688 1345 m 0,14,15
 374.950195312 1345 374.950195312 1345 294.200195312 1188.5 c 128,-1,16
 213.450195312 1032 213.450195312 1032 213.450195312 737 c 0,17,18
 213.450195312 432 213.450195312 432 293.775390625 275 c 128,-1,19
 374.099609375 118 374.099609375 118 520.299804688 118 c 0,20,21
 833.099609375 118 833.099609375 118 833.099609375 745 c 0,22,23
 833.099609375 1028 833.099609375 1028 752.349609375 1186.5 c 128,-1,24
 671.599609375 1345 671.599609375 1345 528.799804688 1345 c 0,14,15
332.450195312 829 m 1,25,-1
 714.099609375 829 l 1,26,-1
 714.099609375 662 l 1,27,-1
 332.450195312 662 l 1,28,-1
 332.450195312 829 l 1,25,-1
EndSplineSet
EndChar

StartChar: Lambda
Encoding: 923 923 357
Width: 952
GlyphClass: 2
Flags: W
LayerCount: 2
Fore
SplineSet
408.950195312 1466 m 1,0,-1
 546.650390625 1466 l 1,1,-1
 943.599609375 0 l 1,2,-1
 797.400390625 0 l 1,3,-1
 531.349609375 1065 l 2,4,5
 501.599609375 1177 501.599609375 1177 476.950195312 1305 c 1,6,7
 451.450195312 1175 451.450195312 1175 423.400390625 1065 c 2,8,-1
 146.299804688 0 l 1,9,-1
 8.599609375 0 l 1,10,-1
 408.950195312 1466 l 1,0,-1
EndSplineSet
EndChar

StartChar: Xi
Encoding: 926 926 360
Width: 928
GlyphClass: 2
Flags: W
LayerCount: 2
Fore
SplineSet
96.150390625 1294 m 1,0,-1
 96.150390625 1466 l 1,1,-1
 833.950195312 1466 l 1,2,-1
 833.950195312 1294 l 1,3,-1
 96.150390625 1294 l 1,0,-1
159.900390625 647 m 1,4,-1
 159.900390625 819 l 1,5,-1
 767.650390625 819 l 1,6,-1
 767.650390625 647 l 1,7,-1
 159.900390625 647 l 1,4,-1
76.599609375 0 m 1,8,-1
 76.599609375 172 l 1,9,-1
 853.5 172 l 1,10,-1
 853.5 0 l 1,11,-1
 76.599609375 0 l 1,8,-1
EndSplineSet
EndChar

StartChar: Pi
Encoding: 928 928 362
Width: 1030
GlyphClass: 2
Flags: W
LayerCount: 2
Fore
SplineSet
250.849609375 0 m 1,0,-1
 114.849609375 0 l 1,1,-1
 114.849609375 1466 l 1,2,-1
 917.25 1466 l 1,3,-1
 917.25 0 l 1,4,-1
 782.099609375 0 l 1,5,-1
 782.099609375 1294 l 1,6,-1
 250.849609375 1294 l 1,7,-1
 250.849609375 0 l 1,0,-1
EndSplineSet
EndChar

StartChar: Sigma
Encoding: 931 931 364
Width: 860
GlyphClass: 2
Flags: W
LayerCount: 2
Fore
SplineSet
68.099609375 1466 m 1,0,-1
 762.549804688 1466 l 1,1,-1
 762.549804688 1294 l 1,2,-1
 214.299804688 1294 l 1,3,-1
 562.799804688 762 l 1,4,-1
 214.299804688 172 l 1,5,-1
 792.299804688 172 l 1,6,-1
 792.299804688 0 l 1,7,-1
 68.099609375 0 l 1,8,-1
 68.099609375 201 l 1,9,-1
 402.150390625 762 l 1,10,-1
 68.099609375 1272 l 1,11,-1
 68.099609375 1466 l 1,0,-1
EndSplineSet
EndChar

StartChar: Phi
Encoding: 934 934 367
Width: 1153
GlyphClass: 2
Flags: W
LayerCount: 2
Fore
SplineSet
510.950195312 1503 m 1,0,-1
 646.099609375 1503 l 1,1,-1
 646.099609375 1309 l 1,2,3
 1094.04980469 1286 1094.04980469 1286 1094.04980469 724 c 0,4,5
 1094.04980469 159 1094.04980469 159 646.099609375 137 c 1,6,-1
 646.099609375 -175 l 1,7,-1
 510.950195312 -175 l 1,8,-1
 510.950195312 137 l 1,9,10
 60.4501953125 160 60.4501953125 160 60.4501953125 724 c 0,11,12
 60.4501953125 1287 60.4501953125 1287 510.950195312 1309 c 1,13,-1
 510.950195312 1503 l 1,0,-1
510.950195312 1155 m 1,14,15
 206.650390625 1151 206.650390625 1151 206.650390625 723 c 0,16,17
 206.650390625 314 206.650390625 314 510.950195312 289 c 1,18,-1
 510.950195312 1155 l 1,14,15
646.099609375 1155 m 1,19,-1
 646.099609375 289 l 1,20,21
 801.650390625 293 801.650390625 293 875.174804688 406.5 c 128,-1,22
 948.700195312 520 948.700195312 520 948.700195312 724 c 0,23,24
 948.700195312 1147 948.700195312 1147 646.099609375 1155 c 1,19,-1
EndSplineSet
EndChar

StartChar: Psi
Encoding: 936 936 369
Width: 1149
GlyphClass: 2
Flags: W
LayerCount: 2
Fore
SplineSet
66.400390625 1016 m 2,0,-1
 66.400390625 1466 l 1,1,-1
 202.400390625 1466 l 1,2,-1
 202.400390625 1053 l 2,3,4
 202.400390625 848 202.400390625 848 287.400390625 734.5 c 128,-1,5
 372.400390625 621 372.400390625 621 506.700195312 621 c 1,6,-1
 506.700195312 1466 l 1,7,-1
 642.700195312 1466 l 1,8,-1
 642.700195312 621 l 1,9,10
 945.299804688 621 945.299804688 621 945.299804688 1073 c 2,11,-1
 945.299804688 1466 l 1,12,-1
 1081.29980469 1466 l 1,13,-1
 1081.29980469 1032 l 2,14,15
 1081.29980469 757 1081.29980469 757 969.099609375 605 c 128,-1,16
 856.900390625 453 856.900390625 453 642.700195312 453 c 1,17,-1
 642.700195312 0 l 1,18,-1
 506.700195312 0 l 1,19,-1
 506.700195312 453 l 1,20,21
 307.799804688 453 307.799804688 453 187.099609375 608.5 c 128,-1,22
 66.400390625 764 66.400390625 764 66.400390625 1016 c 2,0,-1
EndSplineSet
EndChar

StartChar: Ohm
Encoding: 937 937 370
Width: 1083
GlyphClass: 2
Flags: W
LayerCount: 2
Fore
SplineSet
74.900390625 0 m 1,0,-1
 74.900390625 172 l 1,1,-1
 297.599609375 172 l 1,2,3
 86.7998046875 426 86.7998046875 426 86.7998046875 793 c 0,4,5
 86.7998046875 1103 86.7998046875 1103 213.025390625 1297 c 128,-1,6
 339.25 1491 339.25 1491 543.25 1491 c 0,7,8
 757.450195312 1491 757.450195312 1491 877.724609375 1286.5 c 128,-1,9
 998 1082 998 1082 998 793 c 0,10,11
 998 428 998 428 785.5 172 c 1,12,-1
 1008.20019531 172 l 1,13,-1
 1008.20019531 0 l 1,14,-1
 609.549804688 0 l 1,15,-1
 609.549804688 162 l 1,16,17
 858.599609375 329 858.599609375 329 858.599609375 762 c 0,18,19
 858.599609375 1012 858.599609375 1012 769.349609375 1168.5 c 128,-1,20
 680.099609375 1325 680.099609375 1325 543.25 1325 c 0,21,22
 403.849609375 1325 403.849609375 1325 315.025390625 1171 c 128,-1,23
 226.200195312 1017 226.200195312 1017 226.200195312 772 c 0,24,25
 226.200195312 334 226.200195312 334 471.849609375 162 c 1,26,-1
 471.849609375 0 l 1,27,-1
 74.900390625 0 l 1,0,-1
EndSplineSet
EndChar

StartChar: alpha
Encoding: 945 945 378
Width: 861
GlyphClass: 2
Flags: W
LayerCount: 2
Fore
SplineSet
638.450195312 192 m 1,0,1
 543.25 -28 543.25 -28 379.200195312 -28 c 0,2,3
 273.799804688 -28 273.799804688 -28 196.025390625 47 c 128,-1,4
 118.25 122 118.25 122 82.974609375 248 c 128,-1,5
 47.7001953125 374 47.7001953125 374 47.7001953125 510 c 0,6,7
 47.7001953125 770 47.7001953125 770 138.224609375 925 c 128,-1,8
 228.75 1080 228.75 1080 383.450195312 1080 c 0,9,10
 554.299804688 1080 554.299804688 1080 635.049804688 883 c 1,11,-1
 665.650390625 1063 l 1,12,-1
 801.650390625 1063 l 1,13,14
 752.349609375 805 752.349609375 805 752.349609375 549 c 0,15,16
 752.349609375 248 752.349609375 248 811 0 c 1,17,-1
 670.75 0 l 1,18,19
 648.650390625 112 648.650390625 112 638.450195312 192 c 1,0,1
407.25 942 m 0,20,21
 300.150390625 942 300.150390625 942 247.025390625 828.5 c 128,-1,22
 193.900390625 715 193.900390625 715 193.900390625 531 c 0,23,24
 193.900390625 334 193.900390625 334 249.575195312 222 c 128,-1,25
 305.25 110 305.25 110 407.25 110 c 0,26,27
 621.450195312 110 621.450195312 110 621.450195312 532 c 0,28,29
 621.450195312 735 621.450195312 735 564.075195312 838.5 c 128,-1,30
 506.700195312 942 506.700195312 942 407.25 942 c 0,20,21
EndSplineSet
EndChar

StartChar: beta
Encoding: 946 946 379
Width: 802
GlyphClass: 2
Flags: W
LayerCount: 2
Fore
SplineSet
499.900390625 805 m 1,0,1
 622.299804688 783 622.299804688 783 688.174804688 680.5 c 128,-1,2
 754.049804688 578 754.049804688 578 754.049804688 420 c 0,3,4
 754.049804688 230 754.049804688 230 671.599609375 102.5 c 128,-1,5
 589.150390625 -25 589.150390625 -25 459.950195312 -25 c 0,6,7
 299.299804688 -25 299.299804688 -25 219.400390625 135 c 1,8,-1
 219.400390625 -408 l 1,9,-1
 94.4501953125 -408 l 1,10,-1
 94.4501953125 1032 l 2,11,12
 94.4501953125 1250 94.4501953125 1250 179.875 1370.5 c 128,-1,13
 265.299804688 1491 265.299804688 1491 407.25 1491 c 0,14,15
 533.900390625 1491 533.900390625 1491 613.375 1383.5 c 128,-1,16
 692.849609375 1276 692.849609375 1276 692.849609375 1130 c 0,17,18
 692.849609375 1008 692.849609375 1008 641.849609375 919.5 c 128,-1,19
 590.849609375 831 590.849609375 831 499.900390625 805 c 1,0,1
363.900390625 733 m 2,20,-1
 329.049804688 733 l 1,21,-1
 329.049804688 864 l 1,22,23
 573 864 573 864 573 1112 c 0,24,25
 573 1212 573 1212 523.700195312 1277.5 c 128,-1,26
 474.400390625 1343 474.400390625 1343 400.450195312 1343 c 0,27,28
 344.349609375 1343 344.349609375 1343 298.450195312 1303.5 c 128,-1,29
 252.549804688 1264 252.549804688 1264 235.974609375 1206 c 128,-1,30
 219.400390625 1148 219.400390625 1148 219.400390625 999 c 2,31,-1
 219.400390625 547 l 2,32,33
 219.400390625 399 219.400390625 399 236.400390625 317 c 128,-1,34
 253.400390625 235 253.400390625 235 309.075195312 172 c 128,-1,35
 364.75 109 364.75 109 433.599609375 109 c 0,36,37
 516.900390625 109 516.900390625 109 570.875 191.5 c 128,-1,38
 624.849609375 274 624.849609375 274 624.849609375 410 c 0,39,40
 624.849609375 556 624.849609375 556 556 644.5 c 128,-1,41
 487.150390625 733 487.150390625 733 363.900390625 733 c 2,20,-1
EndSplineSet
EndChar

StartChar: gamma
Encoding: 947 947 380
Width: 714
GlyphClass: 2
Flags: W
LayerCount: 2
Fore
SplineSet
294.200195312 0 m 1,0,-1
 17.099609375 1061 l 1,1,-1
 149.700195312 1061 l 1,2,-1
 357.099609375 225 l 1,3,-1
 567.900390625 1061 l 1,4,-1
 696.25 1061 l 1,5,-1
 420 0 l 1,6,-1
 420 -408 l 1,7,-1
 294.200195312 -408 l 1,8,-1
 294.200195312 0 l 1,0,-1
EndSplineSet
EndChar

StartChar: delta
Encoding: 948 948 381
Width: 794
GlyphClass: 2
Flags: W
LayerCount: 2
Fore
SplineSet
121.650390625 1337 m 1,0,-1
 121.650390625 1466 l 1,1,-1
 680.950195312 1466 l 1,2,-1
 680.950195312 1321 l 1,3,-1
 289.099609375 1321 l 1,4,5
 353.700195312 1229 353.700195312 1229 467.599609375 1112.5 c 128,-1,6
 581.5 996 581.5 996 631.224609375 930.5 c 128,-1,7
 680.950195312 865 680.950195312 865 713.25 767.5 c 128,-1,8
 745.549804688 670 745.549804688 670 745.549804688 528 c 0,9,10
 745.549804688 271 745.549804688 271 651.625 124 c 128,-1,11
 557.700195312 -23 557.700195312 -23 402.150390625 -23 c 0,12,13
 238.950195312 -23 238.950195312 -23 144.599609375 123.5 c 128,-1,14
 50.25 270 50.25 270 50.25 516 c 0,15,16
 50.25 751 50.25 751 134.400390625 895.5 c 128,-1,17
 218.549804688 1040 218.549804688 1040 360.5 1049 c 1,18,19
 278.900390625 1134 278.900390625 1134 121.650390625 1337 c 1,0,-1
397.049804688 909 m 0,20,21
 301.849609375 909 301.849609375 909 240.650390625 800.5 c 128,-1,22
 179.450195312 692 179.450195312 692 179.450195312 514 c 0,23,24
 179.450195312 340 179.450195312 340 242.775390625 232.5 c 128,-1,25
 306.099609375 125 306.099609375 125 400.450195312 125 c 0,26,27
 496.5 125 496.5 125 556.424804688 229.5 c 128,-1,28
 616.349609375 334 616.349609375 334 616.349609375 516 c 0,29,30
 616.349609375 699 616.349609375 699 555.575195312 804 c 128,-1,31
 494.799804688 909 494.799804688 909 397.049804688 909 c 0,20,21
EndSplineSet
EndChar

StartChar: epsilon
Encoding: 949 949 382
Width: 619
GlyphClass: 2
Flags: W
LayerCount: 2
Fore
SplineSet
357.099609375 618 m 2,0,-1
 383.450195312 618 l 1,1,-1
 383.450195312 473 l 1,2,-1
 360.5 473 l 2,3,4
 172.650390625 473 172.650390625 473 172.650390625 297 c 0,5,6
 172.650390625 222 172.650390625 222 211.325195312 173.5 c 128,-1,7
 250 125 250 125 306.099609375 125 c 0,8,9
 400.450195312 125 400.450195312 125 487.150390625 256 c 1,10,-1
 578.099609375 145 l 1,11,12
 516.900390625 56 516.900390625 56 453.150390625 16.5 c 128,-1,13
 389.400390625 -23 389.400390625 -23 294.200195312 -23 c 0,14,15
 180.299804688 -23 180.299804688 -23 111.875 66 c 128,-1,16
 43.4501953125 155 43.4501953125 155 43.4501953125 289 c 0,17,18
 43.4501953125 475 43.4501953125 475 165.849609375 549 c 1,19,20
 63 629 63 629 63 784 c 0,21,22
 63 912 63 912 128.875 998.5 c 128,-1,23
 194.75 1085 194.75 1085 307.799804688 1085 c 0,24,25
 450.599609375 1085 450.599609375 1085 551.75 942 c 1,26,-1
 461.650390625 838 l 1,27,28
 374.950195312 930 374.950195312 930 301 930 c 0,29,30
 246.599609375 930 246.599609375 930 214.724609375 887.5 c 128,-1,31
 182.849609375 845 182.849609375 845 182.849609375 784 c 0,32,33
 182.849609375 618 182.849609375 618 357.099609375 618 c 2,0,-1
EndSplineSet
EndChar

StartChar: zeta
Encoding: 950 950 383
Width: 626
GlyphClass: 2
Flags: W
LayerCount: 2
Fore
SplineSet
164.150390625 1321 m 1,0,-1
 164.150390625 1466 l 1,1,-1
 618.049804688 1466 l 1,2,-1
 618.049804688 1343 l 1,3,4
 411.5 1151 411.5 1151 294.625 892.5 c 128,-1,5
 177.75 634 177.75 634 177.75 412 c 0,6,7
 177.75 307 177.75 307 204.950195312 254.5 c 128,-1,8
 232.150390625 202 232.150390625 202 272.099609375 186 c 128,-1,9
 312.049804688 170 312.049804688 170 383.450195312 161 c 128,-1,10
 454.849609375 152 454.849609375 152 499.049804688 128 c 128,-1,11
 543.25 104 543.25 104 573.849609375 41 c 128,-1,12
 604.450195312 -22 604.450195312 -22 604.450195312 -100 c 0,13,14
 604.450195312 -221 604.450195312 -221 537.724609375 -325.5 c 128,-1,15
 471 -430 471 -430 332.450195312 -430 c 1,16,-1
 365.599609375 -264 l 1,17,18
 483.75 -241 483.75 -241 483.75 -125 c 0,19,20
 483.75 -71 483.75 -71 455.700195312 -37.5 c 128,-1,21
 427.650390625 -4 427.650390625 -4 325.224609375 2 c 128,-1,22
 222.799804688 8 222.799804688 8 167.549804688 53 c 128,-1,23
 112.299804688 98 112.299804688 98 80.4248046875 193 c 128,-1,24
 48.5498046875 288 48.5498046875 288 48.5498046875 420 c 0,25,26
 48.5498046875 641 48.5498046875 641 158.625 890.5 c 128,-1,27
 268.700195312 1140 268.700195312 1140 452.299804688 1321 c 1,28,-1
 164.150390625 1321 l 1,0,-1
EndSplineSet
EndChar

StartChar: eta
Encoding: 951 951 384
Width: 794
GlyphClass: 2
Flags: W
LayerCount: 2
Fore
SplineSet
210.900390625 1061 m 1,0,-1
 210.900390625 911 l 1,1,2
 293.349609375 1085 293.349609375 1085 445.5 1085 c 0,3,4
 537.299804688 1085 537.299804688 1085 601.049804688 1026 c 128,-1,5
 664.799804688 967 664.799804688 967 682.224609375 884 c 128,-1,6
 699.650390625 801 699.650390625 801 699.650390625 653 c 2,7,-1
 699.650390625 -408 l 1,8,-1
 574.700195312 -408 l 1,9,-1
 574.700195312 645 l 2,10,11
 574.700195312 829 574.700195312 829 525.825195312 879.5 c 128,-1,12
 476.950195312 930 476.950195312 930 418.299804688 930 c 0,13,14
 347.75 930 347.75 930 285.275390625 862 c 128,-1,15
 222.799804688 794 222.799804688 794 222.799804688 580 c 2,16,-1
 222.799804688 0 l 1,17,-1
 97.849609375 0 l 1,18,-1
 97.849609375 1061 l 1,19,-1
 210.900390625 1061 l 1,0,-1
EndSplineSet
EndChar

StartChar: theta
Encoding: 952 952 385
Width: 794
GlyphClass: 2
Flags: W
LayerCount: 2
Fore
SplineSet
397.049804688 -23 m 0,0,1
 64.7001953125 -23 64.7001953125 -23 64.7001953125 733 c 0,2,3
 64.7001953125 1491 64.7001953125 1491 397.049804688 1491 c 0,4,5
 731.099609375 1491 731.099609375 1491 731.099609375 733 c 0,6,7
 731.099609375 -23 731.099609375 -23 397.049804688 -23 c 0,0,1
193.049804688 807 m 1,8,-1
 601.049804688 807 l 1,9,10
 594.25 1084 594.25 1084 546.224609375 1213.5 c 128,-1,11
 498.200195312 1343 498.200195312 1343 397.049804688 1343 c 0,12,13
 296.75 1343 296.75 1343 248.299804688 1212.5 c 128,-1,14
 199.849609375 1082 199.849609375 1082 193.049804688 807 c 1,8,-1
601.049804688 662 m 1,15,-1
 193.049804688 662 l 1,16,17
 201.549804688 331 201.549804688 331 260.625 228 c 128,-1,18
 319.700195312 125 319.700195312 125 397.049804688 125 c 0,19,20
 590 125 590 125 601.049804688 662 c 1,15,-1
EndSplineSet
EndChar

StartChar: kappa
Encoding: 954 954 387
Width: 710
GlyphClass: 2
Flags: W
LayerCount: 2
Fore
SplineSet
92.75 0 m 1,0,-1
 92.75 1061 l 1,1,-1
 217.700195312 1061 l 1,2,-1
 217.700195312 645 l 1,3,-1
 516.900390625 1061 l 1,4,-1
 684.349609375 1061 l 1,5,-1
 352 621 l 1,6,-1
 712.400390625 0 l 1,7,-1
 551.75 0 l 1,8,-1
 262.75 500 l 1,9,-1
 217.700195312 438 l 1,10,-1
 217.700195312 0 l 1,11,-1
 92.75 0 l 1,0,-1
EndSplineSet
EndChar

StartChar: lambda
Encoding: 955 955 388
Width: 714
GlyphClass: 2
Flags: W
LayerCount: 2
Fore
SplineSet
564.5 0 m 1,0,-1
 357.099609375 795 l 1,1,-1
 149.700195312 0 l 1,2,-1
 17.099609375 0 l 1,3,-1
 292.5 1042 l 1,4,-1
 182.849609375 1466 l 1,5,-1
 315.450195312 1466 l 1,6,-1
 696.25 0 l 1,7,-1
 564.5 0 l 1,0,-1
EndSplineSet
EndChar

StartChar: mu
Encoding: 956 956 389
Width: 794
GlyphClass: 2
Flags: W
LayerCount: 2
Fore
SplineSet
583.200195312 0 m 1,0,-1
 583.200195312 125 l 1,1,2
 519.450195312 -27 519.450195312 -27 395.349609375 -27 c 0,3,4
 291.650390625 -27 291.650390625 -27 221.099609375 106 c 1,5,-1
 221.099609375 -408 l 1,6,-1
 96.150390625 -408 l 1,7,-1
 96.150390625 1061 l 1,8,-1
 221.099609375 1061 l 1,9,-1
 221.099609375 612 l 2,10,11
 221.099609375 514 221.099609375 514 227.900390625 402 c 128,-1,12
 234.700195312 290 234.700195312 290 255.950195312 244 c 128,-1,13
 277.200195312 198 277.200195312 198 312.474609375 168.5 c 128,-1,14
 347.75 139 347.75 139 390.25 139 c 0,15,16
 444.650390625 139 444.650390625 139 489.700195312 180 c 128,-1,17
 534.75 221 534.75 221 553.875 294 c 128,-1,18
 573 367 573 367 573 541 c 2,19,-1
 573 1061 l 1,20,-1
 697.950195312 1061 l 1,21,-1
 697.950195312 0 l 1,22,-1
 583.200195312 0 l 1,0,-1
EndSplineSet
EndChar

StartChar: xi
Encoding: 958 958 391
Width: 546
GlyphClass: 2
Flags: W
LayerCount: 2
Fore
SplineSet
397.049804688 983 m 2,0,-1
 516.900390625 983 l 1,1,-1
 516.900390625 834 l 1,2,3
 352.849609375 834 352.849609375 834 266.150390625 709 c 128,-1,4
 179.450195312 584 179.450195312 584 179.450195312 426 c 0,5,6
 179.450195312 229 179.450195312 229 318.849609375 182 c 0,7,8
 490.549804688 124 490.549804688 124 544.950195312 74.5 c 128,-1,9
 599.349609375 25 599.349609375 25 599.349609375 -113 c 0,10,11
 599.349609375 -237 599.349609375 -237 526.25 -333.5 c 128,-1,12
 453.150390625 -430 453.150390625 -430 318.849609375 -430 c 1,13,-1
 352 -264 l 1,14,15
 478.650390625 -246 478.650390625 -246 478.650390625 -127 c 0,16,17
 478.650390625 -64 478.650390625 -64 445.5 -40 c 128,-1,18
 412.349609375 -16 412.349609375 -16 335.849609375 4 c 0,19,20
 157.349609375 50 157.349609375 50 103.799804688 163.5 c 128,-1,21
 50.25 277 50.25 277 50.25 420 c 0,22,23
 50.25 566 50.25 566 109.325195312 687 c 128,-1,24
 168.400390625 808 168.400390625 808 277.200195312 879 c 1,25,26
 183.700195312 901 183.700195312 901 135.25 979 c 128,-1,27
 86.7998046875 1057 86.7998046875 1057 86.7998046875 1161 c 0,28,29
 86.7998046875 1305 86.7998046875 1305 172.650390625 1397 c 128,-1,30
 258.5 1489 258.5 1489 386.849609375 1489 c 2,31,-1
 523.700195312 1489 l 1,32,-1
 523.700195312 1343 l 1,33,-1
 402.150390625 1343 l 2,34,35
 308.650390625 1343 308.650390625 1343 258.075195312 1293 c 128,-1,36
 207.5 1243 207.5 1243 207.5 1159 c 0,37,38
 207.5 983 207.5 983 397.049804688 983 c 2,0,-1
EndSplineSet
EndChar

StartChar: pi
Encoding: 960 960 393
Width: 968
GlyphClass: 2
Flags: W
LayerCount: 2
Fore
SplineSet
651.200195312 915 m 1,0,-1
 342.650390625 915 l 1,1,-1
 342.650390625 0 l 1,2,-1
 217.700195312 0 l 1,3,-1
 217.700195312 915 l 1,4,-1
 23.0498046875 915 l 1,5,-1
 23.0498046875 1061 l 1,6,-1
 945.299804688 1061 l 1,7,-1
 945.299804688 915 l 1,8,-1
 776.150390625 915 l 1,9,-1
 776.150390625 0 l 1,10,-1
 651.200195312 0 l 1,11,-1
 651.200195312 915 l 1,0,-1
EndSplineSet
EndChar

StartChar: rho
Encoding: 961 961 394
Width: 814
GlyphClass: 2
Flags: W
LayerCount: 2
Fore
SplineSet
219.400390625 -408 m 1,0,-1
 94.4501953125 -408 l 1,1,-1
 94.4501953125 526 l 2,2,3
 94.4501953125 799 94.4501953125 799 179.025390625 942 c 128,-1,4
 263.599609375 1085 263.599609375 1085 421.700195312 1085 c 0,5,6
 573.849609375 1085 573.849609375 1085 669.049804688 934 c 128,-1,7
 764.25 783 764.25 783 764.25 532 c 0,8,9
 764.25 280 764.25 280 673.724609375 128.5 c 128,-1,10
 583.200195312 -23 583.200195312 -23 437 -23 c 0,11,12
 300.150390625 -23 300.150390625 -23 219.400390625 100 c 1,13,-1
 219.400390625 -408 l 1,0,-1
635.900390625 522 m 0,14,15
 635.900390625 721 635.900390625 721 578.099609375 829.5 c 128,-1,16
 520.299804688 938 520.299804688 938 423.400390625 938 c 0,17,18
 221.099609375 938 221.099609375 938 221.099609375 518 c 0,19,20
 221.099609375 329 221.099609375 329 273.799804688 227 c 128,-1,21
 326.5 125 326.5 125 418.299804688 125 c 0,22,23
 520.299804688 125 520.299804688 125 578.099609375 229 c 128,-1,24
 635.900390625 333 635.900390625 333 635.900390625 522 c 0,14,15
EndSplineSet
EndChar

StartChar: sigma1
Encoding: 962 962 395
Width: 674
GlyphClass: 2
Flags: W
LayerCount: 2
Fore
SplineSet
254.25 -418 m 1,0,-1
 285.700195312 -252 l 1,1,2
 324.799804688 -264 324.799804688 -264 355.400390625 -264 c 0,3,4
 419.150390625 -264 419.150390625 -264 460.375 -224.5 c 128,-1,5
 501.599609375 -185 501.599609375 -185 501.599609375 -123 c 0,6,7
 501.599609375 -85 501.599609375 -85 480.349609375 -56 c 128,-1,8
 459.099609375 -27 459.099609375 -27 371.549804688 5 c 0,9,10
 51.9501953125 121 51.9501953125 121 51.9501953125 489 c 0,11,12
 51.9501953125 740 51.9501953125 740 176.049804688 912.5 c 128,-1,13
 300.150390625 1085 300.150390625 1085 482.049804688 1085 c 0,14,15
 586.599609375 1085 586.599609375 1085 664.799804688 1053 c 1,16,-1
 633.349609375 901 l 1,17,18
 552.599609375 938 552.599609375 938 478.650390625 938 c 0,19,20
 344.349609375 938 344.349609375 938 258.5 817.5 c 128,-1,21
 172.650390625 697 172.650390625 697 172.650390625 506 c 0,22,23
 172.650390625 263 172.650390625 263 404.700195312 168 c 0,24,25
 544.950195312 110 544.950195312 110 587.450195312 42.5 c 128,-1,26
 629.950195312 -25 629.950195312 -25 629.950195312 -111 c 0,27,28
 629.950195312 -250 629.950195312 -250 555.575195312 -340 c 128,-1,29
 481.200195312 -430 481.200195312 -430 360.5 -430 c 0,30,31
 305.25 -430 305.25 -430 254.25 -418 c 1,0,-1
EndSplineSet
EndChar

StartChar: sigma
Encoding: 963 963 396
Width: 949
GlyphClass: 2
Flags: W
LayerCount: 2
Fore
SplineSet
685.200195312 912 m 1,0,1
 784.650390625 776 784.650390625 776 784.650390625 529 c 0,2,3
 784.650390625 275 784.650390625 275 687.75 123.5 c 128,-1,4
 590.849609375 -28 590.849609375 -28 418.299804688 -28 c 0,5,6
 240.650390625 -28 240.650390625 -28 144.174804688 125 c 128,-1,7
 47.7001953125 278 47.7001953125 278 47.7001953125 528 c 0,8,9
 47.7001953125 788 47.7001953125 788 147.150390625 934 c 128,-1,10
 246.599609375 1080 246.599609375 1080 397.900390625 1080 c 0,11,12
 427.650390625 1080 427.650390625 1080 507.549804688 1072 c 0,13,14
 538.150390625 1068 538.150390625 1068 599.349609375 1064 c 1,15,-1
 922.349609375 1064 l 1,16,-1
 922.349609375 912 l 1,17,-1
 685.200195312 912 l 1,0,1
421.700195312 955 m 0,18,19
 191.349609375 955 191.349609375 955 191.349609375 513 c 0,20,21
 191.349609375 326 191.349609375 326 249.575195312 217 c 128,-1,22
 307.799804688 108 307.799804688 108 414.049804688 108 c 0,23,24
 527.099609375 108 527.099609375 108 583.625 219 c 128,-1,25
 640.150390625 330 640.150390625 330 640.150390625 537 c 0,26,27
 640.150390625 728 640.150390625 728 584.474609375 841.5 c 128,-1,28
 528.799804688 955 528.799804688 955 421.700195312 955 c 0,18,19
EndSplineSet
EndChar

StartChar: tau
Encoding: 964 964 397
Width: 544
GlyphClass: 2
Flags: W
LayerCount: 2
Fore
SplineSet
522 915 m 1,0,-1
 342.650390625 915 l 1,1,-1
 342.650390625 0 l 1,2,-1
 217.700195312 0 l 1,3,-1
 217.700195312 915 l 1,4,-1
 23.0498046875 915 l 1,5,-1
 23.0498046875 1061 l 1,6,-1
 522 1061 l 1,7,-1
 522 915 l 1,0,-1
EndSplineSet
EndChar

StartChar: upsilon
Encoding: 965 965 398
Width: 794
GlyphClass: 2
Flags: W
LayerCount: 2
Fore
SplineSet
96.150390625 414 m 2,0,-1
 96.150390625 1061 l 1,1,-1
 221.099609375 1061 l 1,2,-1
 221.099609375 406 l 2,3,4
 221.099609375 280 221.099609375 280 270.400390625 202.5 c 128,-1,5
 319.700195312 125 319.700195312 125 395.349609375 125 c 0,6,7
 473.549804688 125 473.549804688 125 523.275390625 204.5 c 128,-1,8
 573 284 573 284 573 424 c 2,9,-1
 573 1061 l 1,10,-1
 697.950195312 1061 l 1,11,-1
 697.950195312 410 l 2,12,13
 697.950195312 211 697.950195312 211 615.5 94 c 128,-1,14
 533.049804688 -23 533.049804688 -23 393.650390625 -23 c 0,15,16
 255.099609375 -23 255.099609375 -23 175.625 92 c 128,-1,17
 96.150390625 207 96.150390625 207 96.150390625 414 c 2,0,-1
EndSplineSet
EndChar

StartChar: phi
Encoding: 966 966 399
Width: 926
GlyphClass: 2
Flags: W
LayerCount: 2
Fore
SplineSet
405.549804688 -408 m 1,0,-1
 405.549804688 -25 l 1,1,2
 246.599609375 -5 246.599609375 -5 148.424804688 160 c 128,-1,3
 50.25 325 50.25 325 50.25 557 c 0,4,5
 50.25 785 50.25 785 137.375 935.5 c 128,-1,6
 224.5 1086 224.5 1086 348.599609375 1083 c 1,7,-1
 323.950195312 928 l 1,8,9
 179.450195312 858 179.450195312 858 179.450195312 565 c 0,10,11
 179.450195312 400 179.450195312 400 238.099609375 284.5 c 128,-1,12
 296.75 169 296.75 169 405.549804688 133 c 1,13,-1
 405.549804688 793 l 2,14,15
 405.549804688 977 405.549804688 977 445.924804688 1031 c 128,-1,16
 486.299804688 1085 486.299804688 1085 573 1085 c 0,17,18
 724.299804688 1085 724.299804688 1085 799.950195312 925 c 128,-1,19
 875.599609375 765 875.599609375 765 875.599609375 584 c 0,20,21
 875.599609375 359 875.599609375 359 786.349609375 195 c 128,-1,22
 697.099609375 31 697.099609375 31 531.349609375 -25 c 1,23,-1
 531.349609375 -408 l 1,24,-1
 405.549804688 -408 l 1,0,-1
531.349609375 764 m 2,25,-1
 531.349609375 139 l 1,26,27
 629.099609375 166 629.099609375 166 688.174804688 290.5 c 128,-1,28
 747.25 415 747.25 415 747.25 594 c 0,29,30
 747.25 754 747.25 754 704.325195312 846 c 128,-1,31
 661.400390625 938 661.400390625 938 602.75 938 c 0,32,33
 566.200195312 938 566.200195312 938 548.775390625 901 c 128,-1,34
 531.349609375 864 531.349609375 864 531.349609375 764 c 2,25,-1
EndSplineSet
EndChar

StartChar: chi
Encoding: 967 967 400
Width: 745
GlyphClass: 2
Flags: W
LayerCount: 2
Fore
SplineSet
295.900390625 332 m 1,0,-1
 31.5498046875 1061 l 1,1,-1
 169.25 1061 l 1,2,-1
 372.400390625 473 l 1,3,-1
 583.200195312 1061 l 1,4,-1
 720.900390625 1061 l 1,5,-1
 448.900390625 338 l 1,6,-1
 734.5 -408 l 1,7,-1
 591.700195312 -408 l 1,8,-1
 372.400390625 205 l 1,9,-1
 149.700195312 -408 l 1,10,-1
 10.2998046875 -408 l 1,11,-1
 295.900390625 332 l 1,0,-1
EndSplineSet
EndChar

StartChar: psi
Encoding: 968 968 401
Width: 1039
GlyphClass: 2
Flags: W
LayerCount: 2
Fore
SplineSet
96.150390625 520 m 2,0,-1
 96.150390625 1061 l 1,1,-1
 221.099609375 1061 l 1,2,-1
 221.099609375 512 l 2,3,4
 221.099609375 299 221.099609375 299 279.75 216.5 c 128,-1,5
 338.400390625 134 338.400390625 134 456.549804688 127 c 1,6,-1
 456.549804688 1061 l 1,7,-1
 581.5 1061 l 1,8,-1
 581.5 127 l 1,9,10
 700.5 135 700.5 135 759.575195312 219.5 c 128,-1,11
 818.650390625 304 818.650390625 304 818.650390625 514 c 2,12,-1
 818.650390625 1061 l 1,13,-1
 943.599609375 1061 l 1,14,-1
 943.599609375 520 l 2,15,16
 943.599609375 331 943.599609375 331 910.875 219.5 c 128,-1,17
 878.150390625 108 878.150390625 108 791.450195312 44.5 c 128,-1,18
 704.75 -19 704.75 -19 581.5 -25 c 1,19,-1
 581.5 -408 l 1,20,-1
 456.549804688 -408 l 1,21,-1
 456.549804688 -25 l 1,22,23
 330.75 -19 330.75 -19 244.049804688 48 c 128,-1,24
 157.349609375 115 157.349609375 115 126.75 223.5 c 128,-1,25
 96.150390625 332 96.150390625 332 96.150390625 520 c 2,0,-1
EndSplineSet
EndChar

StartChar: omega
Encoding: 969 969 402
Width: 1093
GlyphClass: 2
Flags: W
LayerCount: 2
Fore
SplineSet
485.450195312 463 m 2,0,-1
 485.450195312 795 l 1,1,-1
 611.25 795 l 1,2,-1
 611.25 463 l 2,3,4
 611.25 296 611.25 296 652.049804688 206.5 c 128,-1,5
 692.849609375 117 692.849609375 117 760.849609375 117 c 0,6,7
 825.450195312 117 825.450195312 117 870.5 220.5 c 128,-1,8
 915.549804688 324 915.549804688 324 915.549804688 487 c 0,9,10
 915.549804688 738 915.549804688 738 812.700195312 1061 c 1,11,-1
 933.400390625 1061 l 1,12,13
 1044.75 784 1044.75 784 1044.75 516 c 0,14,15
 1044.75 261 1044.75 261 970.375 118 c 128,-1,16
 896 -25 896 -25 772.75 -25 c 0,17,18
 615.5 -25 615.5 -25 546.650390625 215 c 1,19,20
 476.099609375 -25 476.099609375 -25 322.25 -25 c 0,21,22
 199 -25 199 -25 124.625 118 c 128,-1,23
 50.25 261 50.25 261 50.25 516 c 0,24,25
 50.25 785 50.25 785 159.900390625 1061 c 1,26,-1
 282.299804688 1061 l 1,27,28
 179.450195312 732 179.450195312 732 179.450195312 487 c 0,29,30
 179.450195312 325 179.450195312 325 224.5 221 c 128,-1,31
 269.549804688 117 269.549804688 117 334.150390625 117 c 0,32,33
 403 117 403 117 444.224609375 206.5 c 128,-1,34
 485.450195312 296 485.450195312 296 485.450195312 463 c 2,0,-1
EndSplineSet
EndChar

StartChar: afii10051
Encoding: 1026 1026 409
Width: 1235
GlyphClass: 2
Flags: W
LayerCount: 2
Fore
SplineSet
35.7998046875 1466 m 1,0,-1
 851.799804688 1466 l 1,1,-1
 851.799804688 1293 l 1,2,-1
 510.950195312 1293 l 1,3,-1
 510.950195312 837 l 1,4,5
 687.75 936 687.75 936 817.799804688 936 c 0,6,7
 980.150390625 936 980.150390625 936 1079.17480469 794.5 c 128,-1,8
 1178.20019531 653 1178.20019531 653 1178.20019531 451 c 0,9,10
 1178.20019531 263 1178.20019531 263 1093.625 119 c 128,-1,11
 1009.04980469 -25 1009.04980469 -25 859.450195312 -25 c 0,12,13
 782.950195312 -25 782.950195312 -25 694.549804688 8 c 1,14,-1
 717.5 172 l 1,15,16
 769.349609375 135 769.349609375 135 827.150390625 135 c 0,17,18
 915.549804688 135 915.549804688 135 978.025390625 210.5 c 128,-1,19
 1040.5 286 1040.5 286 1040.5 445 c 0,20,21
 1040.5 593 1040.5 593 975.049804688 683.5 c 128,-1,22
 909.599609375 774 909.599609375 774 784.650390625 774 c 0,23,24
 668.200195312 774 668.200195312 774 510.950195312 680 c 1,25,-1
 510.950195312 0 l 1,26,-1
 375.799804688 0 l 1,27,-1
 375.799804688 1293 l 1,28,-1
 35.7998046875 1293 l 1,29,-1
 35.7998046875 1466 l 1,0,-1
EndSplineSet
EndChar

StartChar: afii10053
Encoding: 1028 1028 411
Width: 1026
GlyphClass: 2
Flags: W
LayerCount: 2
Fore
SplineSet
589.150390625 843 m 1,0,-1
 589.150390625 670 l 1,1,-1
 210.049804688 670 l 1,2,3
 217.700195312 422 217.700195312 422 305.674804688 280 c 128,-1,4
 393.650390625 138 393.650390625 138 530.5 138 c 0,5,6
 773.599609375 138 773.599609375 138 836.5 510 c 1,7,-1
 966.549804688 461 l 1,8,9
 884.099609375 -25 884.099609375 -25 540.700195312 -25 c 0,10,11
 306.099609375 -25 306.099609375 -25 187.950195312 198.5 c 128,-1,12
 69.7998046875 422 69.7998046875 422 69.7998046875 749 c 0,13,14
 69.7998046875 956 69.7998046875 956 125.474609375 1122.5 c 128,-1,15
 181.150390625 1289 181.150390625 1289 288.674804688 1390 c 128,-1,16
 396.200195312 1491 396.200195312 1491 543.25 1491 c 0,17,18
 700.5 1491 700.5 1491 807.599609375 1379.5 c 128,-1,19
 914.700195312 1268 914.700195312 1268 953.799804688 1064 c 1,20,-1
 821.200195312 1014 l 1,21,22
 761.700195312 1321 761.700195312 1321 542.400390625 1321 c 0,23,24
 408.099609375 1321 408.099609375 1321 321.400390625 1199 c 128,-1,25
 234.700195312 1077 234.700195312 1077 215.150390625 843 c 1,26,-1
 589.150390625 843 l 1,0,-1
EndSplineSet
EndChar

StartChar: afii10058
Encoding: 1033 1033 416
Width: 1508
GlyphClass: 2
Flags: W
LayerCount: 2
Fore
SplineSet
821.200195312 1466 m 1,0,-1
 821.200195312 840 l 1,1,-1
 1065.15039062 840 l 2,2,3
 1273.40039062 840 1273.40039062 840 1364.77539062 734.5 c 128,-1,4
 1456.15039062 629 1456.15039062 629 1456.15039062 427 c 0,5,6
 1456.15039062 296 1456.15039062 296 1409.40039062 189 c 128,-1,7
 1362.65039062 82 1362.65039062 82 1290.82519531 41 c 128,-1,8
 1219 0 1219 0 1084.70019531 0 c 2,9,-1
 685.200195312 0 l 1,10,-1
 685.200195312 1293 l 1,11,-1
 316.299804688 1293 l 1,12,-1
 316.299804688 538 l 2,13,14
 316.299804688 313 316.299804688 313 301.424804688 204.5 c 128,-1,15
 286.549804688 96 286.549804688 96 237.674804688 35.5 c 128,-1,16
 188.799804688 -25 188.799804688 -25 117.400390625 -25 c 0,17,18
 70.650390625 -25 70.650390625 -25 8.599609375 0 c 1,19,-1
 31.5498046875 171 l 1,20,21
 64.7001953125 151 64.7001953125 151 88.5 151 c 0,22,23
 133.549804688 151 133.549804688 151 157.349609375 199 c 128,-1,24
 181.150390625 247 181.150390625 247 181.150390625 434 c 2,25,-1
 181.150390625 1466 l 1,26,-1
 821.200195312 1466 l 1,0,-1
821.200195312 165 m 1,27,-1
 1090.65039062 165 l 2,28,29
 1168.84960938 165 1168.84960938 165 1210.5 187.5 c 128,-1,30
 1252.15039062 210 1252.15039062 210 1281.04980469 268.5 c 128,-1,31
 1309.95019531 327 1309.95019531 327 1309.95019531 421 c 0,32,33
 1309.95019531 516 1309.95019531 516 1276.79980469 576 c 128,-1,34
 1243.65039062 636 1243.65039062 636 1190.09960938 654.5 c 128,-1,35
 1136.54980469 673 1136.54980469 673 1002.25 673 c 2,36,-1
 821.200195312 673 l 1,37,-1
 821.200195312 165 l 1,27,-1
EndSplineSet
EndChar

StartChar: afii10059
Encoding: 1034 1034 417
Width: 1441
GlyphClass: 2
Flags: W
LayerCount: 2
Fore
SplineSet
754.049804688 1466 m 1,0,-1
 754.049804688 840 l 1,1,-1
 981 840 l 2,2,3
 1128.04980469 840 1128.04980469 840 1207.95019531 805.5 c 128,-1,4
 1287.84960938 771 1287.84960938 771 1338.42480469 668.5 c 128,-1,5
 1389 566 1389 566 1389 427 c 0,6,7
 1389 294 1389 294 1342.25 189 c 128,-1,8
 1295.5 84 1295.5 84 1225.79980469 42 c 128,-1,9
 1156.09960938 0 1156.09960938 0 1009.90039062 0 c 2,10,-1
 618.900390625 0 l 1,11,-1
 618.900390625 673 l 1,12,-1
 249.150390625 673 l 1,13,-1
 249.150390625 0 l 1,14,-1
 114 0 l 1,15,-1
 114 1466 l 1,16,-1
 249.150390625 1466 l 1,17,-1
 249.150390625 840 l 1,18,-1
 618.900390625 840 l 1,19,-1
 618.900390625 1466 l 1,20,-1
 754.049804688 1466 l 1,0,-1
754.049804688 165 m 1,21,-1
 1007.34960938 165 l 2,22,23
 1094.04980469 165 1094.04980469 165 1136.125 183 c 128,-1,24
 1178.20019531 201 1178.20019531 201 1210.92480469 261 c 128,-1,25
 1243.65039062 321 1243.65039062 321 1243.65039062 418 c 0,26,27
 1243.65039062 511 1243.65039062 511 1213.04980469 571 c 128,-1,28
 1182.45019531 631 1182.45019531 631 1125.07519531 652 c 128,-1,29
 1067.70019531 673 1067.70019531 673 918.099609375 673 c 2,30,-1
 754.049804688 673 l 1,31,-1
 754.049804688 165 l 1,21,-1
EndSplineSet
EndChar

StartChar: afii10060
Encoding: 1035 1035 418
Width: 1219
GlyphClass: 2
Flags: W
LayerCount: 2
Fore
SplineSet
34.9501953125 1466 m 1,0,-1
 852.650390625 1466 l 1,1,-1
 852.650390625 1293 l 1,2,-1
 511.799804688 1293 l 1,3,-1
 511.799804688 842 l 1,4,5
 702.200195312 936 702.200195312 936 817.799804688 936 c 0,6,7
 938.5 936 938.5 936 1019.25 863.5 c 128,-1,8
 1100 791 1100 791 1127.625 680 c 128,-1,9
 1155.25 569 1155.25 569 1155.25 386 c 2,10,-1
 1155.25 0 l 1,11,-1
 1020.09960938 0 l 1,12,-1
 1020.09960938 379 l 2,13,14
 1020.09960938 585 1020.09960938 585 971.224609375 678.5 c 128,-1,15
 922.349609375 772 922.349609375 772 808.450195312 772 c 0,16,17
 690.299804688 772 690.299804688 772 511.799804688 680 c 1,18,-1
 511.799804688 0 l 1,19,-1
 375.799804688 0 l 1,20,-1
 375.799804688 1293 l 1,21,-1
 34.9501953125 1293 l 1,22,-1
 34.9501953125 1466 l 1,0,-1
EndSplineSet
EndChar

StartChar: afii10145
Encoding: 1039 1039 421
Width: 1026
GlyphClass: 2
Flags: W
LayerCount: 2
Fore
SplineSet
573 0 m 1,0,-1
 573 -407 l 1,1,-1
 453.150390625 -407 l 1,2,-1
 453.150390625 0 l 1,3,-1
 111.450195312 0 l 1,4,-1
 111.450195312 1466 l 1,5,-1
 246.599609375 1466 l 1,6,-1
 246.599609375 173 l 1,7,-1
 779.549804688 173 l 1,8,-1
 779.549804688 1466 l 1,9,-1
 914.700195312 1466 l 1,10,-1
 914.700195312 0 l 1,11,-1
 573 0 l 1,0,-1
EndSplineSet
EndChar

StartChar: afii10018
Encoding: 1041 1041 423
Width: 936
GlyphClass: 2
Flags: W
LayerCount: 2
Fore
SplineSet
116.549804688 1466 m 1,0,-1
 779.549804688 1466 l 1,1,-1
 779.549804688 1293 l 1,2,-1
 251.700195312 1293 l 1,3,-1
 251.700195312 841 l 1,4,-1
 495.650390625 841 l 2,5,6
 631.650390625 841 631.650390625 841 710.700195312 804 c 128,-1,7
 789.75 767 789.75 767 838.200195312 665 c 128,-1,8
 886.650390625 563 886.650390625 563 886.650390625 426 c 0,9,10
 886.650390625 297 886.650390625 297 841.599609375 192 c 128,-1,11
 796.549804688 87 796.549804688 87 724.299804688 43.5 c 128,-1,12
 652.049804688 0 652.049804688 0 516.049804688 0 c 2,13,-1
 116.549804688 0 l 1,14,-1
 116.549804688 1466 l 1,0,-1
251.700195312 165 m 1,15,-1
 522 165 l 2,16,17
 626.549804688 165 626.549804688 165 683.924804688 223.5 c 128,-1,18
 741.299804688 282 741.299804688 282 741.299804688 421 c 0,19,20
 741.299804688 515 741.299804688 515 708.575195312 575 c 128,-1,21
 675.849609375 635 675.849609375 635 621.025390625 654.5 c 128,-1,22
 566.200195312 674 566.200195312 674 432.75 674 c 2,23,-1
 251.700195312 674 l 1,24,-1
 251.700195312 165 l 1,15,-1
EndSplineSet
EndChar

StartChar: afii10021
Encoding: 1044 1044 426
Width: 966
GlyphClass: 2
Flags: W
LayerCount: 2
Fore
SplineSet
203.25 1466 m 1,0,-1
 824.599609375 1466 l 1,1,-1
 824.599609375 173 l 1,2,-1
 916.400390625 173 l 1,3,-1
 916.400390625 -342 l 1,4,-1
 795.700195312 -342 l 1,5,-1
 795.700195312 0 l 1,6,-1
 120.799804688 0 l 1,7,-1
 120.799804688 -342 l 1,8,-1
 0.099609375 -342 l 1,9,-1
 0.099609375 173 l 1,10,-1
 79.150390625 173 l 1,11,12
 203.25 439 203.25 439 203.25 1252 c 2,13,-1
 203.25 1466 l 1,0,-1
689.450195312 1293 m 1,14,-1
 333.299804688 1293 l 1,15,-1
 333.299804688 1218 l 2,16,17
 333.299804688 1033 333.299804688 1033 310.775390625 710.5 c 128,-1,18
 288.25 388 288.25 388 218.549804688 173 c 1,19,-1
 689.450195312 173 l 1,20,-1
 689.450195312 1293 l 1,14,-1
EndSplineSet
EndChar

StartChar: afii10024
Encoding: 1046 1046 428
Width: 1317
GlyphClass: 2
Flags: W
LayerCount: 2
Fore
SplineSet
728.549804688 1466 m 1,0,-1
 728.549804688 824 l 1,1,2
 828.849609375 826 828.849609375 826 864.974609375 875 c 128,-1,3
 901.099609375 924 901.099609375 924 960.599609375 1123 c 0,4,5
 1010.75 1290 1010.75 1290 1045.59960938 1353.5 c 128,-1,6
 1080.45019531 1417 1080.45019531 1417 1126.77539062 1441.5 c 128,-1,7
 1173.09960938 1466 1173.09960938 1466 1285.29980469 1466 c 2,8,-1
 1303.15039062 1466 l 1,9,-1
 1303.15039062 1297 l 1,10,-1
 1276.79980469 1298 l 1,11,-1
 1246.20019531 1299 l 2,12,13
 1183.29980469 1299 1183.29980469 1299 1151.84960938 1252.5 c 128,-1,14
 1120.40039062 1206 1120.40039062 1206 1080.45019531 1062 c 0,15,16
 1028.59960938 879 1028.59960938 879 993.325195312 829 c 128,-1,17
 958.049804688 779 958.049804688 779 907.900390625 750 c 1,18,19
 1008.20019531 710 1008.20019531 710 1102.54980469 488 c 2,20,-1
 1313.34960938 0 l 1,21,-1
 1145.04980469 0 l 1,22,-1
 974.200195312 398 l 2,23,24
 896.849609375 580 896.849609375 580 848.400390625 633 c 128,-1,25
 799.950195312 686 799.950195312 686 728.549804688 686 c 1,26,-1
 728.549804688 0 l 1,27,-1
 590 0 l 1,28,-1
 590 686 l 1,29,30
 504.150390625 686 504.150390625 686 457.400390625 620 c 128,-1,31
 410.650390625 554 410.650390625 554 343.5 398 c 2,32,-1
 172.650390625 0 l 1,33,-1
 5.2001953125 0 l 1,34,-1
 216 488 l 2,35,36
 312.049804688 711 312.049804688 711 410.650390625 750 c 1,37,38
 356.25 782 356.25 782 321.400390625 835 c 128,-1,39
 286.549804688 888 286.549804688 888 238.099609375 1062 c 0,40,41
 194.75 1218 194.75 1218 163.299804688 1258.5 c 128,-1,42
 131.849609375 1299 131.849609375 1299 68.9501953125 1299 c 2,43,-1
 15.400390625 1297 l 1,44,-1
 15.400390625 1466 l 1,45,-1
 32.400390625 1466 l 2,46,47
 147.150390625 1466 147.150390625 1466 192.200195312 1441.5 c 128,-1,48
 237.25 1417 237.25 1417 272.950195312 1352.5 c 128,-1,49
 308.650390625 1288 308.650390625 1288 357.950195312 1123 c 0,50,51
 417.450195312 925 417.450195312 925 453.575195312 875.5 c 128,-1,52
 489.700195312 826 489.700195312 826 590 824 c 1,53,-1
 590 1466 l 1,54,-1
 728.549804688 1466 l 1,0,-1
EndSplineSet
EndChar

